<?xml version="1.0" encoding="UTF-8" standalone="no"?>
<!-- Created with Inkscape (http://www.inkscape.org/) -->

<svg
   xmlns:dc="http://purl.org/dc/elements/1.1/"
   xmlns:cc="http://creativecommons.org/ns#"
   xmlns:rdf="http://www.w3.org/1999/02/22-rdf-syntax-ns#"
   xmlns:svg="http://www.w3.org/2000/svg"
   xmlns="http://www.w3.org/2000/svg"
   xmlns:sodipodi="http://sodipodi.sourceforge.net/DTD/sodipodi-0.dtd"
   xmlns:inkscape="http://www.inkscape.org/namespaces/inkscape"
   width="31.303522mm"
   height="46.930477mm"
   viewBox="0 0 31.303522 46.930477"
   version="1.1"
   id="svg8"
   inkscape:version="0.92.1 r15371"
   sodipodi:docname="10.svg">
  <defs
     id="defs2" />
  <sodipodi:namedview
     id="base"
     pagecolor="#ffffff"
     bordercolor="#666666"
     borderopacity="1.0"
     inkscape:pageopacity="0.0"
     inkscape:pageshadow="2"
     inkscape:zoom="0.7"
     inkscape:cx="-123.03888"
     inkscape:cy="-244.7647"
     inkscape:document-units="mm"
     inkscape:current-layer="layer1"
     showgrid="false"
     inkscape:window-width="1297"
     inkscape:window-height="991"
     inkscape:window-x="-8"
     inkscape:window-y="0"
     inkscape:window-maximized="0"
     fit-margin-top="0"
     fit-margin-left="0"
     fit-margin-right="0"
     fit-margin-bottom="0"
     inkscape:pagecheckerboard="true"
     showguides="false" />
  <metadata
     id="metadata5">
    <rdf:RDF>
      <cc:Work
         rdf:about="">
        <dc:format>image/svg+xml</dc:format>
        <dc:type
           rdf:resource="http://purl.org/dc/dcmitype/StillImage" />
        <dc:title></dc:title>
      </cc:Work>
    </rdf:RDF>
  </metadata>
  <g
     inkscape:label="Layer 1"
     inkscape:groupmode="layer"
     id="layer1"
     transform="translate(-292.73398,-322.85076)">
    <g
       id="g8903">
      <rect
         y="322.85077"
         x="292.73398"
         height="46.93047"
         width="31.303518"
         id="rect8320-40"
         style="fill:#ffffff;fill-opacity:1;stroke:none;stroke-width:1;stroke-miterlimit:4;stroke-dasharray:none;stroke-opacity:1" />
      <path
         d="m 315.43027,344.48044 h -2.53008 v -0.34726 q 0.34727,-0.29766 0.5209,-0.69453 0.17363,-0.39688 0.22324,-0.69453 -0.34726,0.27285 -0.94258,0.27285 -0.5457,0 -0.99218,-0.39688 -0.44649,-0.42168 -0.44649,-1.21543 0,-0.66972 0.34727,-1.21543 0.34726,-0.5457 0.79375,-1.01699 0.44648,-0.49609 0.94258,-0.89297 0.49609,-0.39687 0.81855,-0.74414 0.32246,0.37207 0.81855,0.76895 0.4961,0.37207 0.94258,0.84336 0.47129,0.47129 0.79375,1.04179 0.32246,0.54571 0.32246,1.21543 0,0.79375 -0.44648,1.21543 -0.42168,0.39688 -0.96738,0.39688 -0.29766,0 -0.5209,-0.0496 -0.22324,-0.0744 -0.42168,-0.22324 0.0496,0.29765 0.19844,0.69453 0.17363,0.39687 0.5457,0.69453 z m 0,-10.49238 h -2.53008 v -0.37207 q 0.34727,-0.29765 0.5209,-0.66972 0.17363,-0.39688 0.22324,-0.71934 -0.34726,0.27285 -0.94258,0.27285 -0.5457,0 -0.99218,-0.39687 -0.44649,-0.39688 -0.44649,-1.19063 0,-0.69453 0.34727,-1.24023 0.34726,-0.54571 0.79375,-1.017 0.44648,-0.47128 0.94258,-0.86816 0.49609,-0.39687 0.81855,-0.76895 0.32246,0.39688 0.81855,0.79375 0.4961,0.37208 0.94258,0.84336 0.47129,0.44649 0.79375,1.017 0.32246,0.5457 0.32246,1.24023 0,0.79375 -0.44648,1.19063 -0.42168,0.39687 -0.96738,0.39687 -0.29766,0 -0.5209,-0.0496 -0.22324,-0.0496 -0.42168,-0.22324 0.0496,0.32246 0.19844,0.71934 0.17363,0.37207 0.5457,0.66972 z m -5.77949,5.2586 h -2.53008 v -0.34727 q 0.34726,-0.29766 0.5209,-0.69453 0.17363,-0.39688 0.22324,-0.69453 -0.34727,0.27285 -0.94258,0.27285 -0.5457,0 -0.99219,-0.39688 -0.42168,-0.42168 -0.42168,-1.21543 0,-0.66972 0.32246,-1.21543 0.34727,-0.5457 0.79375,-1.01699 0.44649,-0.47129 0.94258,-0.86816 0.4961,-0.42168 0.81856,-0.76895 0.32246,0.37207 0.81855,0.76895 0.4961,0.39687 0.94258,0.86816 0.47129,0.44649 0.79375,1.01699 0.32246,0.54571 0.32246,1.21543 0,0.79375 -0.44648,1.21543 -0.42168,0.39688 -0.96739,0.39688 -0.59531,0 -0.94257,-0.27285 0.0496,0.29765 0.22324,0.69453 0.17363,0.39687 0.5209,0.69453 z m -5.8043,5.23378 h -2.53008 v -0.34726 q 0.37207,-0.29766 0.5209,-0.69453 0.17363,-0.39688 0.22324,-0.69453 -0.34726,0.27285 -0.91777,0.27285 -0.57051,0 -1.01699,-0.39688 -0.42168,-0.42168 -0.42168,-1.21543 0,-0.66972 0.32246,-1.21543 0.34726,-0.5457 0.79375,-1.01699 0.47129,-0.49609 0.94258,-0.89297 0.49609,-0.39687 0.81855,-0.74414 0.32246,0.37207 0.81856,0.76895 0.49609,0.37207 0.94257,0.84336 0.47129,0.47129 0.79375,1.04179 0.34727,0.54571 0.34727,1.21543 0,0.79375 -0.44649,1.21543 -0.44648,0.39688 -0.99218,0.39688 -0.59531,0 -0.94258,-0.27285 0.0496,0.29765 0.22324,0.69453 0.17363,0.39687 0.5209,0.69453 z m 0,-10.49238 h -2.53008 v -0.37207 q 0.37207,-0.29765 0.5209,-0.66972 0.17363,-0.39688 0.22324,-0.71934 -0.34726,0.27285 -0.91777,0.27285 -0.57051,0 -1.01699,-0.39687 -0.42168,-0.39688 -0.42168,-1.19063 0,-0.69453 0.32246,-1.24023 0.34726,-0.54571 0.79375,-1.017 0.47129,-0.47128 0.94258,-0.86816 0.49609,-0.39687 0.81855,-0.76895 0.32246,0.39688 0.81856,0.79375 0.49609,0.37208 0.94257,0.84336 0.47129,0.44649 0.79375,1.017 0.34727,0.5457 0.34727,1.24023 0,0.79375 -0.44649,1.19063 -0.44648,0.39687 -0.99218,0.39687 -0.59531,0 -0.94258,-0.27285 0.0496,0.32246 0.22324,0.71934 0.17363,0.37207 0.5209,0.66972 z m -6.39961,0.59531 h -1.48828 v -0.19843 q 0.22324,-0.19844 0.29766,-0.42168 0.0992,-0.22324 0.12402,-0.39688 -0.17363,0.17364 -0.5209,0.17364 -0.32246,0 -0.59531,-0.24805 -0.24805,-0.24805 -0.24805,-0.71934 0,-0.37207 0.17363,-0.69453 0.19844,-0.32246 0.47129,-0.59531 0.27285,-0.27285 0.54571,-0.4961 0.29765,-0.24804 0.49609,-0.47128 0.19844,0.22324 0.47129,0.47128 0.29766,0.22325 0.57051,0.4961 0.27285,0.27285 0.44648,0.59531 0.19844,0.29766 0.19844,0.69453 0,0.47129 -0.27285,0.71934 -0.24805,0.24805 -0.57051,0.24805 -0.34727,0 -0.5457,-0.17364 0.0496,0.17364 0.12402,0.39688 0.0992,0.22324 0.32246,0.42168 z m -1.28984,-5.10976 h -1.76114 v -0.49609 h 0.62012 v -3.6711 l -0.76894,0.27285 v -0.49609 l 1.26504,-0.47129 v 4.36563 h 0.64492 z m 1.53789,0.0744 q -0.44649,0 -0.71934,-0.22324 -0.27285,-0.22324 -0.44648,-0.57051 -0.17364,-0.34726 -0.24805,-0.76894 -0.0496,-0.42168 -0.0496,-0.79375 0,-0.42168 0.0496,-0.86817 0.0496,-0.44648 0.19844,-0.81855 0.17363,-0.37207 0.44648,-0.59531 0.27285,-0.24805 0.76895,-0.24805 0.69453,0 1.0666,0.66973 0.37207,0.64492 0.37207,1.86035 0,0.39687 -0.0496,0.81855 -0.0496,0.42168 -0.22324,0.76895 -0.14883,0.32246 -0.42168,0.5457 -0.27285,0.22324 -0.74414,0.22324 z m 0,-4.44004 q -0.94258,0 -0.94258,2.0836 0,1.90996 0.94258,1.90996 0.47129,0 0.69453,-0.44649 0.22324,-0.47128 0.22324,-1.46347 0,-1.01699 -0.24805,-1.53789 -0.22324,-0.54571 -0.66972,-0.54571 z m 3.59668,23.29161 h 2.53008 v 0.37207 q -0.34727,0.29765 -0.5209,0.69453 -0.17364,0.37207 -0.19844,0.69453 0.17363,-0.17363 0.39687,-0.22324 0.24805,-0.0496 0.5209,-0.0496 0.54571,0 0.99219,0.39687 0.44648,0.39688 0.44648,1.19063 0,0.66972 -0.34726,1.24023 -0.32246,0.5457 -0.79375,1.01699 -0.44649,0.47129 -0.94258,0.86817 -0.49609,0.39687 -0.81855,0.76894 -0.29766,-0.39687 -0.79375,-0.76894 -0.4961,-0.39688 -0.96739,-0.84336 -0.47129,-0.47129 -0.79375,-1.0418 -0.32246,-0.57051 -0.32246,-1.24023 0,-0.79375 0.44649,-1.19063 0.44648,-0.39687 0.99218,-0.39687 0.59532,0 0.91778,0.27285 -0.0496,-0.32246 -0.22324,-0.69453 -0.14883,-0.39688 -0.5209,-0.69453 z m 0,10.49238 h 2.53008 v 0.37207 q -0.34727,0.29765 -0.5209,0.69453 -0.17364,0.37207 -0.19844,0.69453 0.17363,-0.17363 0.39687,-0.22324 0.24805,-0.0496 0.5209,-0.0496 0.54571,0 0.99219,0.39687 0.44648,0.39688 0.44648,1.21543 0,0.66973 -0.34726,1.21543 -0.32246,0.54571 -0.79375,1.017 -0.44649,0.47128 -0.94258,0.86816 -0.49609,0.42168 -0.81855,0.76894 -0.29766,-0.37207 -0.79375,-0.76894 -0.4961,-0.39688 -0.96739,-0.86816 -0.47129,-0.44649 -0.79375,-0.99219 -0.32246,-0.57051 -0.32246,-1.24024 0,-0.81855 0.44649,-1.21543 0.44648,-0.39687 0.99218,-0.39687 0.59532,0 0.91778,0.27285 -0.0496,-0.32246 -0.22324,-0.69453 -0.14883,-0.39688 -0.5209,-0.69453 z m 5.77949,-5.2586 h 2.53008 v 0.34727 q -0.34727,0.29766 -0.5209,0.69453 -0.17363,0.39688 -0.19844,0.71934 0.17363,-0.17364 0.39688,-0.22325 0.24804,-0.0744 0.52089,-0.0744 0.54571,0 0.99219,0.42168 0.44649,0.39688 0.44649,1.19063 0,0.66972 -0.34727,1.21543 -0.32246,0.5457 -0.79375,1.04179 -0.44648,0.47129 -0.94258,0.86817 -0.49609,0.39687 -0.81855,0.74414 -0.29766,-0.37207 -0.79375,-0.74414 -0.4961,-0.39688 -0.96738,-0.86817 -0.47129,-0.47129 -0.79375,-1.01699 -0.32247,-0.57051 -0.32247,-1.24023 0,-0.79375 0.44649,-1.19063 0.44648,-0.42168 0.99219,-0.42168 0.5705,0 0.91777,0.29766 -0.0496,-0.32246 -0.22324,-0.71934 -0.14883,-0.39687 -0.5209,-0.69453 z m 5.8043,-5.23378 h 2.53007 v 0.37207 q -0.34726,0.29765 -0.52089,0.69453 -0.17364,0.37207 -0.22325,0.69453 0.19844,-0.17363 0.42168,-0.22324 0.24805,-0.0496 0.5209,-0.0496 0.5457,0 0.96738,0.39687 0.44649,0.39688 0.44649,1.19063 0,0.66972 -0.34727,1.24023 -0.32246,0.5457 -0.76894,1.01699 -0.44649,0.47129 -0.94258,0.86817 -0.49609,0.39687 -0.81855,0.76894 -0.32247,-0.39687 -0.81856,-0.76894 -0.49609,-0.39688 -0.96738,-0.84336 -0.44649,-0.47129 -0.76895,-1.0418 -0.32246,-0.57051 -0.32246,-1.24023 0,-0.79375 0.42168,-1.19063 0.44649,-0.39687 0.99219,-0.39687 0.59531,0 0.94258,0.27285 -0.0496,-0.32246 -0.22325,-0.69453 -0.17363,-0.39688 -0.52089,-0.69453 z m 0,10.49238 h 2.53007 v 0.37207 q -0.34726,0.29765 -0.52089,0.69453 -0.17364,0.37207 -0.22325,0.69453 0.19844,-0.17363 0.42168,-0.22324 0.24805,-0.0496 0.5209,-0.0496 0.5457,0 0.96738,0.39687 0.44649,0.39688 0.44649,1.21543 0,0.66973 -0.34727,1.21543 -0.32246,0.54571 -0.76894,1.017 -0.44649,0.47128 -0.94258,0.86816 -0.49609,0.42168 -0.81855,0.76894 -0.32247,-0.37207 -0.81856,-0.76894 -0.49609,-0.39688 -0.96738,-0.86816 -0.44649,-0.44649 -0.76895,-0.99219 -0.32246,-0.57051 -0.32246,-1.24024 0,-0.81855 0.42168,-1.21543 0.44649,-0.39687 0.99219,-0.39687 0.59531,0 0.94258,0.27285 -0.0496,-0.32246 -0.22325,-0.69453 -0.17363,-0.39688 -0.52089,-0.69453 z m 6.39961,-0.57051 h 1.48828 v 0.17363 q -0.22325,0.19844 -0.29766,0.42168 -0.0744,0.22324 -0.12402,0.39688 0.19843,-0.14883 0.5209,-0.14883 0.32246,0 0.5705,0.24805 0.27285,0.22324 0.27285,0.69453 0,0.37207 -0.19843,0.71933 -0.17364,0.32246 -0.44649,0.59532 -0.27285,0.27285 -0.5705,0.49609 -0.27286,0.22324 -0.47129,0.44648 -0.17364,-0.22324 -0.47129,-0.44648 -0.27285,-0.22324 -0.57051,-0.49609 -0.27285,-0.27286 -0.47129,-0.59532 -0.17363,-0.32246 -0.17363,-0.71933 0,-0.47129 0.24804,-0.69453 0.27286,-0.24805 0.59532,-0.24805 0.37207,0 0.5457,0.14883 -0.0248,-0.17364 -0.12402,-0.39688 -0.0992,-0.22324 -0.32246,-0.42168 z m 1.28984,5.08496 h 1.78594 v 0.49609 h -0.64493 v 3.6711 l 0.76895,-0.27285 v 0.49609 l -1.26504,0.47129 v -4.36563 h -0.64492 z m -1.53789,-0.0744 q 0.44648,0 0.71933,0.22324 0.27286,0.22324 0.44649,0.57051 0.17363,0.34726 0.22324,0.76894 0.0744,0.42168 0.0744,0.79375 0,0.42168 -0.0496,0.86817 -0.0496,0.47129 -0.19844,0.81855 -0.14883,0.37207 -0.44649,0.59531 -0.27285,0.24805 -0.76894,0.24805 -0.69453,0 -1.0666,-0.66973 -0.37207,-0.64492 -0.37207,-1.86035 0,-0.39687 0.0496,-0.81855 0.0744,-0.42168 0.22324,-0.76895 0.14883,-0.32246 0.42168,-0.5457 0.29765,-0.22324 0.74414,-0.22324 z m 0,4.44004 q 0.94258,0 0.94258,-2.0836 0,-1.88515 -0.94258,-1.88515 -0.44649,0 -0.66973,0.44648 -0.22324,0.44648 -0.22324,1.43867 0,1.01699 0.22324,1.53789 0.22324,0.54571 0.66973,0.54571 z m 5.01055,-44.92129 v 46.93047 h -31.30352 v -46.93047 z m -30.1625,45.78945 h 29.02148 V 323.99177 H 293.875 Z"
         style="font-style:normal;font-variant:normal;font-weight:normal;font-stretch:normal;font-size:50.79999924px;line-height:1.25;font-family:serif;-inkscape-font-specification:serif;letter-spacing:0px;word-spacing:0px;fill:#000000;fill-opacity:1;stroke:none;stroke-width:0.41033289"
         id="path8172"
         inkscape:connector-curvature="0" />
    </g>
  </g>
</svg>
