<?xml version="1.0" encoding="UTF-8" standalone="no"?>
<!-- Created with Inkscape (http://www.inkscape.org/) -->

<svg
   xmlns:dc="http://purl.org/dc/elements/1.1/"
   xmlns:cc="http://creativecommons.org/ns#"
   xmlns:rdf="http://www.w3.org/1999/02/22-rdf-syntax-ns#"
   xmlns:svg="http://www.w3.org/2000/svg"
   xmlns="http://www.w3.org/2000/svg"
   xmlns:sodipodi="http://sodipodi.sourceforge.net/DTD/sodipodi-0.dtd"
   xmlns:inkscape="http://www.inkscape.org/namespaces/inkscape"
   width="31.303518mm"
   height="46.93047mm"
   viewBox="0 0 31.303518 46.930469"
   version="1.1"
   id="svg8"
   inkscape:version="0.92.1 r15371"
   sodipodi:docname="2.svg">
  <defs
     id="defs2" />
  <sodipodi:namedview
     id="base"
     pagecolor="#ffffff"
     bordercolor="#666666"
     borderopacity="1.0"
     inkscape:pageopacity="0.0"
     inkscape:pageshadow="2"
     inkscape:zoom="0.7"
     inkscape:cx="352.57142"
     inkscape:cy="-244.76474"
     inkscape:document-units="mm"
     inkscape:current-layer="layer1"
     showgrid="false"
     inkscape:window-width="1297"
     inkscape:window-height="991"
     inkscape:window-x="-8"
     inkscape:window-y="0"
     inkscape:window-maximized="0"
     fit-margin-top="0"
     fit-margin-left="0"
     fit-margin-right="0"
     fit-margin-bottom="0"
     inkscape:pagecheckerboard="true"
     showguides="false" />
  <metadata
     id="metadata5">
    <rdf:RDF>
      <cc:Work
         rdf:about="">
        <dc:format>image/svg+xml</dc:format>
        <dc:type
           rdf:resource="http://purl.org/dc/dcmitype/StillImage" />
        <dc:title></dc:title>
      </cc:Work>
    </rdf:RDF>
  </metadata>
  <g
     inkscape:label="Layer 1"
     inkscape:groupmode="layer"
     id="layer1"
     transform="translate(-26.034002,-322.85077)">
    <g
       id="g8871">
      <rect
         y="322.85077"
         x="26.034002"
         height="46.93047"
         width="31.303518"
         id="rect8320-5"
         style="fill:#ffffff;fill-opacity:1;stroke:none;stroke-width:1;stroke-miterlimit:4;stroke-dasharray:none;stroke-opacity:1" />
      <path
         d="m 42.950799,333.98806 h -2.530078 v -0.37207 q 0.347265,-0.29765 0.520898,-0.66972 0.173633,-0.39688 0.223242,-0.71934 -0.347265,0.27285 -0.942578,0.27285 -0.545703,0 -0.992187,-0.39687 -0.42168,-0.39688 -0.42168,-1.19063 0,-0.69453 0.322461,-1.24023 0.347266,-0.54571 0.79375,-1.017 0.446484,-0.47128 0.942578,-0.86816 0.496094,-0.39687 0.818555,-0.76895 0.322461,0.39688 0.818555,0.79375 0.496093,0.37208 0.942578,0.84336 0.471289,0.44649 0.79375,1.017 0.322461,0.5457 0.322461,1.24023 0,0.79375 -0.446485,1.19063 -0.421679,0.39687 -0.967383,0.39687 -0.595312,0 -0.942578,-0.27285 0.04961,0.32246 0.223242,0.71934 0.173633,0.37207 0.520899,0.66972 z m -12.203906,0.59531 h -1.488281 v -0.19843 q 0.223242,-0.19844 0.297656,-0.42168 0.09922,-0.22324 0.124023,-0.39688 -0.173633,0.17364 -0.520898,0.17364 -0.322461,0 -0.595313,-0.24805 -0.248046,-0.24805 -0.248046,-0.71934 0,-0.37207 0.173632,-0.69453 0.198438,-0.32246 0.471289,-0.59531 0.272852,-0.27285 0.545703,-0.4961 0.297657,-0.24804 0.496094,-0.47128 0.198438,0.22324 0.471289,0.47128 0.297657,0.22325 0.570508,0.4961 0.272852,0.27285 0.446484,0.59531 0.198438,0.29766 0.198438,0.69453 0,0.47129 -0.272852,0.71934 -0.248046,0.24805 -0.570507,0.24805 -0.347266,0 -0.545704,-0.17364 0.04961,0.17364 0.124024,0.39688 0.09922,0.22324 0.322461,0.42168 z m 26.590624,-11.73261 v 46.93047 H 26.034002 V 322.85076 Z M 27.175018,368.64021 H 56.196502 V 323.99177 H 27.175018 Z m 3.894336,-39.1666 h -2.306836 v -0.49609 l 1.066601,-1.38907 q 0.322461,-0.42168 0.570508,-0.79375 0.248047,-0.37207 0.248047,-0.79375 0,-0.42168 -0.223242,-0.64492 -0.198438,-0.22324 -0.545703,-0.22324 -0.223242,0 -0.471289,0.12402 -0.248047,0.12403 -0.446485,0.39688 v -0.54571 q 0.396875,-0.44648 0.992188,-0.44648 0.496094,0 0.818555,0.37207 0.32246,0.37207 0.32246,0.91777 0,0.59532 -0.297656,1.0418 -0.297656,0.42168 -0.669726,0.89297 l -0.868164,1.0666 h 1.810742 z m 9.351367,29.39355 h 2.530078 v 0.34727 q -0.347266,0.29766 -0.520899,0.69453 -0.173632,0.39688 -0.223242,0.69453 0.198438,-0.14883 0.42168,-0.19844 0.248047,-0.0744 0.520898,-0.0744 0.545704,0 0.967383,0.42168 0.446485,0.39687 0.446485,1.19062 0,0.66973 -0.347266,1.21543 -0.322461,0.54571 -0.768945,1.017 -0.446485,0.49609 -0.942578,0.89296 -0.496094,0.39688 -0.818555,0.74415 -0.322461,-0.37207 -0.818555,-0.76895 -0.496094,-0.37207 -0.967383,-0.84336 -0.446484,-0.47129 -0.768945,-1.01699 -0.322461,-0.57051 -0.322461,-1.24024 0,-0.79375 0.42168,-1.19062 0.446484,-0.42168 0.992187,-0.42168 0.595313,0 0.942578,0.27285 -0.04961,-0.29765 -0.223242,-0.69453 -0.173633,-0.39687 -0.520898,-0.69453 z m 12.203906,-0.59531 h 1.488281 v 0.19844 q -0.223242,0.17363 -0.322461,0.39687 -0.07441,0.22325 -0.09922,0.42168 0.173633,-0.17363 0.520899,-0.17363 0.322461,0 0.570508,0.24805 0.272851,0.24804 0.272851,0.69453 0,0.39687 -0.198437,0.71933 -0.173633,0.32247 -0.471289,0.59532 -0.272852,0.27285 -0.545703,0.52089 -0.272852,0.22325 -0.471289,0.42168 -0.198438,-0.19843 -0.496094,-0.42168 -0.272852,-0.24804 -0.545703,-0.52089 -0.272852,-0.27285 -0.471289,-0.59532 -0.173633,-0.32246 -0.173633,-0.71933 0,-0.44649 0.248047,-0.69453 0.272851,-0.24805 0.595312,-0.24805 0.347266,0 0.545703,0.17363 -0.04961,-0.19843 -0.148828,-0.42168 -0.07441,-0.22324 -0.297656,-0.39687 z m -0.322461,5.10977 h 2.306836 v 0.47129 l -1.066602,1.38906 q -0.322461,0.42168 -0.570507,0.79375 -0.248047,0.39687 -0.248047,0.81855 0,0.42168 0.198437,0.64492 0.223242,0.22325 0.570508,0.22325 0.223242,0 0.471289,-0.12403 0.248047,-0.12402 0.446484,-0.39687 v 0.5457 q -0.421679,0.42168 -0.992187,0.42168 -0.496094,0 -0.818555,-0.37207 -0.322461,-0.34727 -0.322461,-0.89297 0,-0.59531 0.272852,-1.0418 0.297656,-0.44648 0.694531,-0.91777 l 0.868164,-1.0666 h -1.810742 z"
         style="font-style:normal;font-variant:normal;font-weight:normal;font-stretch:normal;font-size:50.79999924px;line-height:1.25;font-family:serif;-inkscape-font-specification:serif;letter-spacing:0px;word-spacing:0px;fill:#000000;fill-opacity:1;stroke:none;stroke-width:0.41033289"
         id="path8156"
         inkscape:connector-curvature="0" />
    </g>
  </g>
</svg>
