<?xml version="1.0" encoding="UTF-8" standalone="no"?>
<!-- Created with Inkscape (http://www.inkscape.org/) -->

<svg
   xmlns:dc="http://purl.org/dc/elements/1.1/"
   xmlns:cc="http://creativecommons.org/ns#"
   xmlns:rdf="http://www.w3.org/1999/02/22-rdf-syntax-ns#"
   xmlns:svg="http://www.w3.org/2000/svg"
   xmlns="http://www.w3.org/2000/svg"
   xmlns:sodipodi="http://sodipodi.sourceforge.net/DTD/sodipodi-0.dtd"
   xmlns:inkscape="http://www.inkscape.org/namespaces/inkscape"
   width="31.30352mm"
   height="46.930477mm"
   viewBox="0 0 31.30352 46.930477"
   version="1.1"
   id="svg8"
   inkscape:version="0.92.1 r15371"
   sodipodi:docname="4.svg">
  <defs
     id="defs2" />
  <sodipodi:namedview
     id="base"
     pagecolor="#ffffff"
     bordercolor="#666666"
     borderopacity="1.0"
     inkscape:pageopacity="0.0"
     inkscape:pageshadow="2"
     inkscape:zoom="0.7"
     inkscape:cx="100.57143"
     inkscape:cy="-244.76474"
     inkscape:document-units="mm"
     inkscape:current-layer="layer1"
     showgrid="false"
     inkscape:window-width="1297"
     inkscape:window-height="991"
     inkscape:window-x="-8"
     inkscape:window-y="0"
     inkscape:window-maximized="0"
     fit-margin-top="0"
     fit-margin-left="0"
     fit-margin-right="0"
     fit-margin-bottom="0"
     inkscape:pagecheckerboard="true"
     showguides="false" />
  <metadata
     id="metadata5">
    <rdf:RDF>
      <cc:Work
         rdf:about="">
        <dc:format>image/svg+xml</dc:format>
        <dc:type
           rdf:resource="http://purl.org/dc/dcmitype/StillImage" />
        <dc:title></dc:title>
      </cc:Work>
    </rdf:RDF>
  </metadata>
  <g
     inkscape:label="Layer 1"
     inkscape:groupmode="layer"
     id="layer1"
     transform="translate(-92.709,-322.85076)">
    <g
       id="g8879">
      <rect
         y="322.85077"
         x="92.709"
         height="46.93047"
         width="31.303518"
         id="rect8320-7"
         style="fill:#ffffff;fill-opacity:1;stroke:none;stroke-width:1;stroke-miterlimit:4;stroke-dasharray:none;stroke-opacity:1" />
      <path
         d="m 115.40529,333.98806 h -2.53008 v -0.37207 q 0.34727,-0.29765 0.5209,-0.66972 0.17363,-0.39688 0.22324,-0.71934 -0.34726,0.27285 -0.94258,0.27285 -0.5457,0 -0.99218,-0.39687 -0.44649,-0.39688 -0.44649,-1.19063 0,-0.69453 0.34727,-1.24023 0.34726,-0.54571 0.79375,-1.017 0.44648,-0.47128 0.94258,-0.86816 0.49609,-0.39687 0.81855,-0.76895 0.32246,0.39688 0.81856,0.79375 0.49609,0.37208 0.94257,0.84336 0.47129,0.44649 0.79375,1.017 0.32246,0.5457 0.32246,1.24023 0,0.79375 -0.44648,1.19063 -0.42168,0.39687 -0.96738,0.39687 -0.29766,0 -0.5209,-0.0496 -0.22324,-0.0496 -0.42168,-0.22324 0.0496,0.32246 0.19844,0.71934 0.17363,0.37207 0.5457,0.66972 z m -11.58379,0 h -2.53008 v -0.37207 q 0.37207,-0.29765 0.5209,-0.66972 0.17363,-0.39688 0.22324,-0.71934 -0.34726,0.27285 -0.91777,0.27285 -0.57051,0 -1.01699,-0.39687 -0.421681,-0.39688 -0.421681,-1.19063 0,-0.69453 0.322461,-1.24023 0.34727,-0.54571 0.79375,-1.017 0.47129,-0.47128 0.94258,-0.86816 0.49609,-0.39687 0.81855,-0.76895 0.32246,0.39688 0.81856,0.79375 0.49609,0.37208 0.94258,0.84336 0.47128,0.44649 0.79375,1.017 0.34726,0.5457 0.34726,1.24023 0,0.79375 -0.44648,1.19063 -0.44649,0.39687 -0.99219,0.39687 -0.59531,0 -0.94258,-0.27285 0.0496,0.32246 0.22324,0.71934 0.17364,0.37207 0.5209,0.66972 z m -6.399608,0.59531 h -1.488281 v -0.19843 q 0.223242,-0.19844 0.297656,-0.42168 0.09922,-0.22324 0.124024,-0.39688 -0.173633,0.17364 -0.520899,0.17364 -0.322461,0 -0.595312,-0.24805 -0.248047,-0.24805 -0.248047,-0.71934 0,-0.37207 0.173633,-0.69453 0.198437,-0.32246 0.471289,-0.59531 0.272851,-0.27285 0.545703,-0.4961 0.297656,-0.24804 0.496093,-0.47128 0.198438,0.22324 0.47129,0.47128 0.297656,0.22325 0.570507,0.4961 0.272852,0.27285 0.446485,0.59531 0.198437,0.29766 0.198437,0.69453 0,0.47129 -0.272851,0.71934 -0.248047,0.24805 -0.570508,0.24805 -0.347266,0 -0.545703,-0.17364 0.04961,0.17364 0.124023,0.39688 0.09922,0.22324 0.322461,0.42168 z m 26.590628,-11.73261 v 46.93047 H 92.709002 V 322.85076 Z M 93.850017,368.64021 H 122.8715 V 323.99177 H 93.850017 Z m 3.993555,-40.40684 h -0.520899 v 1.24024 h -0.471289 v -1.24024 h -1.860351 v -0.42168 l 1.711523,-3.05097 h 0.620117 v 2.95176 h 0.520899 z m -0.992188,-0.52089 v -2.40606 l -1.364258,2.40606 z m 4.440036,31.17949 h 2.53008 v 0.37207 q -0.34726,0.29765 -0.5209,0.69453 -0.17363,0.37207 -0.22324,0.69453 0.19844,-0.17363 0.42168,-0.22324 0.24805,-0.0496 0.5209,-0.0496 0.5457,0 0.99219,0.39687 0.44648,0.39688 0.44648,1.21543 0,0.66973 -0.34726,1.21543 -0.34727,0.54571 -0.79375,1.017 -0.44649,0.47128 -0.94258,0.86816 -0.4961,0.42168 -0.81856,0.76894 -0.32246,-0.37207 -0.81855,-0.76894 -0.47129,-0.39688 -0.94258,-0.86816 -0.47129,-0.44649 -0.79375,-0.99219 -0.322461,-0.57051 -0.322461,-1.24024 0,-0.81855 0.421681,-1.21543 0.44648,-0.39687 1.01699,-0.39687 0.57051,0 0.91777,0.27285 -0.0496,-0.32246 -0.22324,-0.69453 -0.14883,-0.39688 -0.5209,-0.69453 z m 11.58379,0 h 2.53008 v 0.37207 q -0.37207,0.29765 -0.5457,0.69453 -0.14883,0.37207 -0.19844,0.69453 0.19844,-0.17363 0.42168,-0.22324 0.22324,-0.0496 0.5209,-0.0496 0.5457,0 0.96738,0.39687 0.44648,0.39688 0.44648,1.21543 0,0.66973 -0.34726,1.21543 -0.32246,0.54571 -0.76895,1.017 -0.44648,0.47128 -0.94257,0.86816 -0.4961,0.42168 -0.81856,0.76894 -0.32246,-0.37207 -0.81855,-0.76894 -0.4961,-0.39688 -0.96739,-0.86816 -0.44648,-0.44649 -0.79375,-0.99219 -0.32246,-0.57051 -0.32246,-1.24024 0,-0.81855 0.44649,-1.21543 0.44648,-0.39687 0.99218,-0.39687 0.59532,0 0.94258,0.27285 -0.0496,-0.32246 -0.22324,-0.69453 -0.17363,-0.39688 -0.5209,-0.69453 z m 6.39961,-0.57051 h 1.48828 v 0.17363 q -0.22324,0.19844 -0.32246,0.42168 -0.0744,0.22324 -0.0992,0.39688 0.17364,-0.14883 0.5209,-0.14883 0.32246,0 0.57051,0.24805 0.27285,0.22324 0.27285,0.69453 0,0.37207 -0.19844,0.71933 -0.17363,0.32246 -0.44648,0.59532 -0.27285,0.27285 -0.57051,0.49609 -0.27285,0.22324 -0.47129,0.44648 -0.19844,-0.22324 -0.49609,-0.44648 -0.27285,-0.22324 -0.5457,-0.49609 -0.27286,-0.27286 -0.47129,-0.59532 -0.17364,-0.32246 -0.17364,-0.71933 0,-0.47129 0.24805,-0.69453 0.27285,-0.24805 0.59531,-0.24805 0.34727,0 0.54571,0.14883 -0.0496,-0.17364 -0.14883,-0.39688 -0.0744,-0.22324 -0.29766,-0.42168 z m -0.42168,6.35 h 0.5209 v -1.26504 h 0.47129 v 1.26504 h 1.86035 v 0.42168 l -1.71152,3.02617 h -0.62012 v -2.95176 h -0.5209 z m 0.99219,0.49609 v 2.40606 l 1.36426,-2.40606 z"
         style="font-style:normal;font-variant:normal;font-weight:normal;font-stretch:normal;font-size:50.79999924px;line-height:1.25;font-family:serif;-inkscape-font-specification:serif;letter-spacing:0px;word-spacing:0px;fill:#000000;fill-opacity:1;stroke:none;stroke-width:0.41033289"
         id="path8160"
         inkscape:connector-curvature="0" />
    </g>
  </g>
</svg>
