<?xml version="1.0" encoding="UTF-8" standalone="no"?>
<!-- Created with Inkscape (http://www.inkscape.org/) -->

<svg
   xmlns:dc="http://purl.org/dc/elements/1.1/"
   xmlns:cc="http://creativecommons.org/ns#"
   xmlns:rdf="http://www.w3.org/1999/02/22-rdf-syntax-ns#"
   xmlns:svg="http://www.w3.org/2000/svg"
   xmlns="http://www.w3.org/2000/svg"
   xmlns:sodipodi="http://sodipodi.sourceforge.net/DTD/sodipodi-0.dtd"
   xmlns:inkscape="http://www.inkscape.org/namespaces/inkscape"
   width="31.303516mm"
   height="46.930477mm"
   viewBox="0 0 31.303516 46.930477"
   version="1.1"
   id="svg8"
   inkscape:version="0.92.1 r15371"
   sodipodi:docname="a.svg">
  <defs
     id="defs2" />
  <sodipodi:namedview
     id="base"
     pagecolor="#ffffff"
     bordercolor="#666666"
     borderopacity="1.0"
     inkscape:pageopacity="0.0"
     inkscape:pageshadow="2"
     inkscape:zoom="0.7"
     inkscape:cx="478.57141"
     inkscape:cy="-244.76475"
     inkscape:document-units="mm"
     inkscape:current-layer="layer1"
     showgrid="false"
     inkscape:window-width="1297"
     inkscape:window-height="991"
     inkscape:window-x="-8"
     inkscape:window-y="0"
     inkscape:window-maximized="0"
     fit-margin-top="0"
     fit-margin-left="0"
     fit-margin-right="0"
     fit-margin-bottom="0"
     inkscape:pagecheckerboard="true"
     showguides="false" />
  <metadata
     id="metadata5">
    <rdf:RDF>
      <cc:Work
         rdf:about="">
        <dc:format>image/svg+xml</dc:format>
        <dc:type
           rdf:resource="http://purl.org/dc/dcmitype/StillImage" />
        <dc:title></dc:title>
      </cc:Work>
    </rdf:RDF>
  </metadata>
  <g
     inkscape:label="Layer 1"
     inkscape:groupmode="layer"
     id="layer1"
     transform="translate(7.3034954,-322.85076)">
    <g
       id="g8855">
      <rect
         y="322.85077"
         x="-7.3034954"
         height="46.93047"
         width="31.303516"
         id="rect8320"
         style="fill:#ffffff;fill-opacity:1;stroke:none;stroke-width:1;stroke-miterlimit:4;stroke-dasharray:none;stroke-opacity:1" />
      <path
         d="m -2.5906049,334.58337 h -1.4882812 v -0.19843 q 0.2232422,-0.19844 0.2976563,-0.42168 0.099219,-0.22324 0.1240234,-0.39688 -0.1736328,0.17364 -0.5208984,0.17364 -0.322461,0 -0.5953125,-0.24805 -0.2480469,-0.24805 -0.2480469,-0.71934 0,-0.37207 0.1736328,-0.69453 0.1984375,-0.32246 0.4712891,-0.59531 0.2728515,-0.27285 0.5457031,-0.4961 0.2976562,-0.24804 0.4960937,-0.47128 0.1984375,0.22324 0.4712891,0.47128 0.2976562,0.22325 0.5705078,0.4961 0.2728515,0.27285 0.4464843,0.59531 0.1984375,0.29766 0.1984375,0.69453 0,0.47129 -0.2728515,0.71934 -0.2480469,0.24805 -0.5705078,0.24805 -0.3472656,0 -0.5457031,-0.17364 0.049609,0.17364 0.1240234,0.39688 0.099219,0.22324 0.3224609,0.42168 z M 19.23752,358.32146 h 1.488281 v 0.17363 q -0.223242,0.19844 -0.297656,0.42168 -0.07441,0.22324 -0.124024,0.39688 0.198438,-0.14883 0.520899,-0.14883 0.322461,0 0.570508,0.24805 0.272851,0.22324 0.272851,0.69453 0,0.37207 -0.198437,0.71933 -0.173633,0.32246 -0.446485,0.59532 -0.272851,0.27285 -0.570508,0.49609 -0.272851,0.22324 -0.471289,0.44648 -0.173632,-0.22324 -0.471289,-0.44648 -0.272851,-0.22324 -0.570507,-0.49609 -0.272852,-0.27286 -0.471289,-0.59532 -0.173633,-0.32246 -0.173633,-0.71933 0,-0.47129 0.248047,-0.69453 0.272851,-0.24805 0.595312,-0.24805 0.37207,0 0.545703,0.14883 -0.02481,-0.17364 -0.124023,-0.39688 -0.09922,-0.22324 -0.322461,-0.42168 z m 4.7625,-35.4707 v 46.93047 H -7.3034954 V 322.85076 Z M -6.1624798,368.64021 H 22.859004 V 323.99177 H -6.1624798 Z m 5.0105468,-39.1666 h -0.6449219 l -0.5208984,-1.36426 h -2.058789 l -0.4712891,1.36426 h -0.6449219 l 1.8851563,-4.86172 h 0.5705078 z m -1.3394531,-1.88516 -0.8433594,-2.38125 -0.8433593,2.38125 z m 20.3150391,35.81797 h 0.644922 l 0.520898,1.36426 h 2.058789 l 0.471289,-1.36426 h 0.644922 l -1.885156,4.86172 h -0.570508 z m 1.339453,1.88516 0.843359,2.38125 0.843359,-2.38125 z M 11.051973,353.98064 H 5.5453325 v -0.76895 q 0.3720703,-0.32246 0.6449219,-0.69453 0.2976562,-0.39687 0.471289,-0.79375 0.1984375,-0.42168 0.322461,-0.79375 0.1240234,-0.39687 0.1736328,-0.74414 -0.4216797,0.34727 -0.9177735,0.47129 -0.4960937,0.12403 -1.0914062,0.12403 -0.5953125,0 -1.1658203,-0.22325 -0.5457031,-0.22324 -0.9921875,-0.64492 -0.4216796,-0.44648 -0.6945312,-1.09141 -0.2480469,-0.64492 -0.2480469,-1.51308 0,-0.96738 0.322461,-1.81074 0.3472656,-0.86817 0.868164,-1.61231 0.5457031,-0.76894 1.2402344,-1.43867 0.6945312,-0.69453 1.3890624,-1.28984 0.6945313,-0.62012 1.3394531,-1.16582 0.6449219,-0.57051 1.0914063,-1.09141 0.471289,0.5209 1.1162109,1.09141 0.6697263,0.5457 1.3642573,1.16582 0.694532,0.59531 1.364258,1.26504 0.669727,0.66972 1.21543,1.43867 0.545703,0.74414 0.868164,1.6123 0.347266,0.86817 0.347266,1.83555 0,0.86816 -0.272852,1.51308 -0.272851,0.64493 -0.719336,1.09141 -0.42168,0.42168 -0.992187,0.64492 -0.545703,0.22325 -1.141016,0.22325 -0.570508,0 -1.091406,-0.12403 -0.4960939,-0.12402 -0.9177736,-0.47129 0.099219,0.69453 0.471289,1.53789 0.3720706,0.84336 1.1410156,1.48828 z"
         style="font-style:normal;font-variant:normal;font-weight:normal;font-stretch:normal;font-size:50.79999924px;line-height:1.25;font-family:serif;-inkscape-font-specification:serif;letter-spacing:0px;word-spacing:0px;fill:#000000;fill-opacity:1;stroke:none;stroke-width:0.41033289"
         id="path8154"
         inkscape:connector-curvature="0" />
    </g>
  </g>
</svg>
