<?xml version="1.0" encoding="UTF-8" standalone="no"?>
<!-- Created with Inkscape (http://www.inkscape.org/) -->

<svg
   xmlns:dc="http://purl.org/dc/elements/1.1/"
   xmlns:cc="http://creativecommons.org/ns#"
   xmlns:rdf="http://www.w3.org/1999/02/22-rdf-syntax-ns#"
   xmlns:svg="http://www.w3.org/2000/svg"
   xmlns="http://www.w3.org/2000/svg"
   xmlns:sodipodi="http://sodipodi.sourceforge.net/DTD/sodipodi-0.dtd"
   xmlns:inkscape="http://www.inkscape.org/namespaces/inkscape"
   width="31.30352mm"
   height="46.930477mm"
   viewBox="0 0 31.30352 46.930477"
   version="1.1"
   id="svg8"
   inkscape:version="0.92.1 r15371"
   sodipodi:docname="j.svg">
  <defs
     id="defs2" />
  <sodipodi:namedview
     id="base"
     pagecolor="#ffffff"
     bordercolor="#666666"
     borderopacity="1.0"
     inkscape:pageopacity="0.0"
     inkscape:pageshadow="2"
     inkscape:zoom="0.7"
     inkscape:cx="-249.03884"
     inkscape:cy="-244.7647"
     inkscape:document-units="mm"
     inkscape:current-layer="layer1"
     showgrid="false"
     inkscape:window-width="1297"
     inkscape:window-height="991"
     inkscape:window-x="-8"
     inkscape:window-y="0"
     inkscape:window-maximized="0"
     fit-margin-top="0"
     fit-margin-left="0"
     fit-margin-right="0"
     fit-margin-bottom="0"
     inkscape:pagecheckerboard="true"
     showguides="false" />
  <metadata
     id="metadata5">
    <rdf:RDF>
      <cc:Work
         rdf:about="">
        <dc:format>image/svg+xml</dc:format>
        <dc:type
           rdf:resource="http://purl.org/dc/dcmitype/StillImage" />
        <dc:title></dc:title>
      </cc:Work>
    </rdf:RDF>
  </metadata>
  <g
     inkscape:label="Layer 1"
     inkscape:groupmode="layer"
     id="layer1"
     transform="translate(-326.07147,-322.85076)">
    <rect
       style="fill:#ffffff;fill-opacity:1;stroke:none;stroke-width:1;stroke-miterlimit:4;stroke-dasharray:none;stroke-opacity:1"
       id="rect8320-69"
       width="31.303518"
       height="46.93047"
       x="326.07147"
       y="322.85077" />
    <path
       inkscape:connector-curvature="0"
       id="path8174"
       style="font-style:normal;font-variant:normal;font-weight:normal;font-stretch:normal;font-size:50.79999924px;line-height:1.25;font-family:serif;-inkscape-font-specification:serif;letter-spacing:0px;word-spacing:0px;fill:#000000;fill-opacity:1;stroke:none;stroke-width:0.41033289"
       d="m 357.37499,322.85076 v 46.93047 h -31.30352 v -46.93047 z m -30.1625,45.78945 h 29.02148 v -44.64844 h -29.02148 z m 23.41562,-39.6875 v 34.72656 h -17.80976 v -34.72656 z m -16.74316,1.0666 v 32.59336 h 15.67656 v -32.59336 z m 9.89707,3.91914 -0.64492,5.2586 q -1.14102,0 -2.03399,0.17363 -0.86816,0.17363 -1.56269,0.49609 -0.66973,0.29766 -1.14102,0.66973 -0.47129,0.37207 -0.79375,0.79375 -0.79375,0.99219 -1.24023,2.25723 -0.42168,1.24023 -0.64492,2.38125 -0.24805,1.28984 -0.34727,2.6789 h -0.44648 q 0.0744,-1.31465 0.32246,-2.6541 0.22324,-1.14102 0.69453,-2.45566 0.49609,-1.31465 1.36426,-2.45567 0.44648,-0.57051 0.99218,-0.96738 0.57051,-0.42168 1.14102,-0.69453 l 1.09141,-5.8291 h 6.27558 l 0.0992,1.26504 -0.24805,0.29765 0.59532,0.99219 v 0.22324 l -0.62012,0.12403 0.0744,0.37207 -0.42168,0.19843 0.34727,0.19844 -0.49609,1.21543 -1.48829,0.12402 0.22325,0.69454 3.1998,1.04179 v 0.44649 l -3.52226,-1.19063 -0.34727,-1.26504 1.63711,-0.0992 0.42168,-0.91777 -0.37207,-0.29766 0.47129,-0.17363 -0.0744,-0.5457 0.57051,-0.0744 -0.57051,-1.0666 0.24805,-0.34726 -0.0992,-0.86817 z m -5.90351,2.45567 h -2.18282 v -0.32246 q 0.29766,-0.27286 0.44649,-0.59532 0.14883,-0.32246 0.17363,-0.62011 -0.29766,0.24804 -0.79375,0.24804 -0.47129,0 -0.86816,-0.34726 -0.37207,-0.37207 -0.37207,-1.0418 0,-0.59531 0.27285,-1.0666 0.29765,-0.47129 0.69453,-0.86817 0.39687,-0.42167 0.81855,-0.76894 0.44649,-0.37207 0.71934,-0.66973 0.27285,0.29766 0.69453,0.66973 0.44648,0.34727 0.84336,0.74414 0.39687,0.39688 0.66973,0.89297 0.29765,0.47129 0.29765,1.0666 0,0.66973 -0.39687,1.0418 -0.37207,0.34726 -0.84336,0.34726 -0.4961,0 -0.79375,-0.24804 0.0248,0.29765 0.17363,0.62011 0.14883,0.32246 0.44649,0.59532 z m 7.51582,19.81894 h 2.18281 v 0.29766 q -0.29766,0.27285 -0.44649,0.62012 -0.14882,0.32246 -0.17363,0.59531 0.29766,-0.22324 0.79375,-0.22324 0.47129,0 0.84336,0.34726 0.39687,0.34727 0.39687,1.0418 0,0.57051 -0.29765,1.0666 -0.27285,0.47129 -0.66973,0.89297 -0.39687,0.39687 -0.84336,0.74414 -0.42168,0.34726 -0.69453,0.66973 -0.29765,-0.32247 -0.71933,-0.66973 -0.42168,-0.34727 -0.81856,-0.74414 -0.39687,-0.39688 -0.69453,-0.89297 -0.27285,-0.49609 -0.27285,-1.0666 0,-0.69453 0.37207,-1.0418 0.39687,-0.34726 0.86816,-0.34726 0.4961,0 0.79375,0.22324 -0.0248,-0.27285 -0.17363,-0.59531 -0.14883,-0.34727 -0.44648,-0.62012 z m -5.90352,-25.54883 h 8.35918 l -1.0418,2.53008 h -6.27558 z m -8.70645,3.91914 h -1.48828 v -0.19843 q 0.22325,-0.19844 0.29766,-0.42168 0.0992,-0.22324 0.12402,-0.39688 -0.17363,0.17364 -0.5209,0.17364 -0.32246,0 -0.59531,-0.24805 -0.24804,-0.24805 -0.24804,-0.71934 0,-0.37207 0.17363,-0.69453 0.19844,-0.32246 0.47129,-0.59531 0.27285,-0.27285 0.5457,-0.4961 0.29766,-0.24804 0.49609,-0.47128 0.19844,0.22324 0.47129,0.47128 0.29766,0.22325 0.57051,0.4961 0.27285,0.27285 0.44649,0.59531 0.19843,0.29766 0.19843,0.69453 0,0.47129 -0.27285,0.71934 -0.24805,0.24805 -0.57051,0.24805 -0.34726,0 -0.5457,-0.17364 0.0496,0.17364 0.12402,0.39688 0.0992,0.22324 0.32246,0.42168 z m 21.82813,23.73809 h 1.48828 v 0.17363 q -0.22324,0.19844 -0.29766,0.42168 -0.0744,0.22324 -0.12402,0.39688 0.19844,-0.14883 0.5209,-0.14883 0.32246,0 0.57051,0.24805 0.27285,0.22324 0.27285,0.69453 0,0.37207 -0.19844,0.71933 -0.17363,0.32246 -0.44648,0.59532 -0.27285,0.27285 -0.57051,0.49609 -0.27285,0.22324 -0.47129,0.44648 -0.17363,-0.22324 -0.47129,-0.44648 -0.27285,-0.22324 -0.57051,-0.49609 -0.27285,-0.27286 -0.47129,-0.59532 -0.17363,-0.32246 -0.17363,-0.71933 0,-0.47129 0.24805,-0.69453 0.27285,-0.24805 0.59531,-0.24805 0.37207,0 0.5457,0.14883 -0.0248,-0.17364 -0.12402,-0.39688 -0.0992,-0.22324 -0.32246,-0.42168 z m 0.14883,6.79648 q 0,-0.32246 0.0744,-0.64492 0.0744,-0.32246 0.22324,-0.57051 0.17364,-0.24804 0.42168,-0.39687 0.24805,-0.14883 0.59532,-0.14883 0.29765,0 0.47128,0.0744 v 0.5457 q -0.14882,-0.12402 -0.47128,-0.12402 -0.76895,0 -0.76895,1.26503 v 3.1502 h -0.5457 z m -22.12578,-37.35585 q 0,0.34726 -0.0744,0.66972 -0.0744,0.29766 -0.24804,0.57051 -0.14883,0.24805 -0.39688,0.39687 -0.22324,0.12403 -0.59531,0.12403 -0.29766,0 -0.47129,-0.0744 v -0.5457 q 0.14883,0.12402 0.47129,0.12402 0.76894,0 0.76894,-1.26503 v -3.1502 h 0.54571 z m 14.03945,7.56543 1.41387,-0.14883 -0.64493,0.5705 z m -5.18418,23.3164 0.64492,-5.23379 q 1.14102,0 2.03399,-0.17363 0.89296,-0.19844 1.56269,-0.49609 0.66973,-0.29766 1.14102,-0.66973 0.47129,-0.39688 0.79375,-0.79375 0.76894,-0.99219 1.21543,-2.23242 0.44648,-1.26504 0.66972,-2.40606 0.27285,-1.31465 0.34727,-2.6789 h 0.44648 q -0.0744,1.31464 -0.32246,2.62929 -0.22324,1.14102 -0.71933,2.48047 -0.47129,1.31465 -1.33946,2.43086 -0.44648,0.57051 -1.01699,0.99219 -0.5457,0.39687 -1.11621,0.66973 l -1.09141,5.8539 h -6.27558 l -0.0992,-1.26504 0.24805,-0.32246 -0.59532,-0.99219 v -0.19843 l 0.62012,-0.14883 -0.0496,-0.37207 0.42168,-0.19844 -0.37207,-0.19844 0.5209,-1.19062 1.46348,-0.14883 -0.19844,-0.69453 -3.22461,-1.0418 v -0.44648 l 3.52226,1.19062 0.34727,1.26504 -1.63711,0.12402 -0.42168,0.89297 0.37207,0.29766 -0.47129,0.19844 0.0744,0.5209 -0.54571,0.0744 0.57051,1.09141 -0.27285,0.32246 0.0992,0.86816 z m 4.29121,3.27422 h -8.35918 l 1.0418,-2.53008 h 6.27558 z m -5.18418,-4.66328 -1.41387,0.14883 0.64493,-0.57051 z" />
  </g>
</svg>
