<?xml version="1.0" encoding="UTF-8" standalone="no"?>
<!-- Created with Inkscape (http://www.inkscape.org/) -->

<svg
   xmlns:dc="http://purl.org/dc/elements/1.1/"
   xmlns:cc="http://creativecommons.org/ns#"
   xmlns:rdf="http://www.w3.org/1999/02/22-rdf-syntax-ns#"
   xmlns:svg="http://www.w3.org/2000/svg"
   xmlns="http://www.w3.org/2000/svg"
   xmlns:sodipodi="http://sodipodi.sourceforge.net/DTD/sodipodi-0.dtd"
   xmlns:inkscape="http://www.inkscape.org/namespaces/inkscape"
   width="31.303522mm"
   height="46.930481mm"
   viewBox="0 0 31.303522 46.930481"
   version="1.1"
   id="svg8"
   inkscape:version="0.92.1 r15371"
   sodipodi:docname="10.svg">
  <defs
     id="defs2" />
  <sodipodi:namedview
     id="base"
     pagecolor="#ffffff"
     bordercolor="#666666"
     borderopacity="1.0"
     inkscape:pageopacity="0.0"
     inkscape:pageshadow="2"
     inkscape:zoom="0.7"
     inkscape:cx="28.571512"
     inkscape:cy="-4.7647849"
     inkscape:document-units="mm"
     inkscape:current-layer="layer1"
     showgrid="false"
     inkscape:window-width="1297"
     inkscape:window-height="991"
     inkscape:window-x="-8"
     inkscape:window-y="0"
     inkscape:window-maximized="0"
     fit-margin-top="0"
     fit-margin-left="0"
     fit-margin-right="0"
     fit-margin-bottom="0"
     inkscape:pagecheckerboard="true"
     showguides="false" />
  <metadata
     id="metadata5">
    <rdf:RDF>
      <cc:Work
         rdf:about="">
        <dc:format>image/svg+xml</dc:format>
        <dc:type
           rdf:resource="http://purl.org/dc/dcmitype/StillImage" />
        <dc:title></dc:title>
      </cc:Work>
    </rdf:RDF>
  </metadata>
  <g
     inkscape:label="Layer 1"
     inkscape:groupmode="layer"
     id="layer1"
     transform="translate(-292.73398,-386.35074)">
    <g
       id="g8957">
      <rect
         y="386.35074"
         x="292.73398"
         height="46.93047"
         width="31.303518"
         id="rect8320-39"
         style="fill:#ffffff;fill-opacity:1;stroke:none;stroke-width:1;stroke-miterlimit:4;stroke-dasharray:none;stroke-opacity:1" />
      <path
         d="m 314.16523,391.73337 q 0.19844,-0.39687 0.5209,-0.71933 0.34726,-0.34727 0.86816,-0.34727 0.54571,0 0.99219,0.4961 0.44648,0.49609 0.44648,1.56269 0,0.86817 -0.34726,1.5627 -0.32246,0.66972 -0.76895,1.26504 -0.42168,0.5705 -0.91777,1.0666 -0.47129,0.47129 -0.79375,0.91777 -0.32246,-0.44648 -0.81855,-0.91777 -0.47129,-0.4961 -0.94258,-1.0666 -0.44649,-0.59532 -0.76895,-1.26504 -0.32246,-0.69453 -0.32246,-1.5627 0,-1.0666 0.44649,-1.56269 0.44648,-0.4961 0.99218,-0.4961 0.54571,0 0.89297,0.34727 0.34727,0.32246 0.5209,0.71933 z m 0,10.41797 q 0.19844,-0.39687 0.5209,-0.71933 0.34726,-0.32246 0.86816,-0.32246 0.54571,0 0.99219,0.49609 0.44648,0.49609 0.44648,1.53789 0,0.86816 -0.34726,1.56269 -0.32246,0.69454 -0.76895,1.26504 -0.42168,0.57051 -0.91777,1.06661 -0.47129,0.47128 -0.79375,0.94257 -0.32246,-0.47129 -0.81855,-0.94257 -0.47129,-0.4961 -0.94258,-1.06661 -0.44649,-0.5705 -0.76895,-1.26504 -0.32246,-0.69453 -0.32246,-1.56269 0,-1.0418 0.44649,-1.53789 0.44648,-0.49609 0.99218,-0.49609 0.54571,0 0.89297,0.32246 0.34727,0.32246 0.5209,0.71933 z m -11.60859,-10.41797 q 0.22324,-0.39687 0.5457,-0.71933 0.32246,-0.34727 0.84336,-0.34727 0.57051,0 0.99219,0.4961 0.44648,0.49609 0.44648,1.56269 0,0.86817 -0.32246,1.5627 -0.32246,0.66972 -0.76895,1.26504 -0.44648,0.5705 -0.94257,1.0666 -0.47129,0.47129 -0.79375,0.91777 -0.29766,-0.44648 -0.79375,-0.91777 -0.47129,-0.4961 -0.94258,-1.0666 -0.44649,-0.59532 -0.76895,-1.26504 -0.32246,-0.69453 -0.32246,-1.5627 0,-1.0666 0.42168,-1.56269 0.44649,-0.4961 0.99219,-0.4961 0.57051,0 0.91777,0.34727 0.34727,0.32246 0.4961,0.71933 z m 0,10.41797 q 0.22324,-0.39687 0.5457,-0.71933 0.32246,-0.32246 0.84336,-0.32246 0.57051,0 0.99219,0.49609 0.44648,0.49609 0.44648,1.53789 0,0.86816 -0.32246,1.56269 -0.32246,0.69454 -0.76895,1.26504 -0.44648,0.57051 -0.94257,1.06661 -0.47129,0.47128 -0.79375,0.94257 -0.29766,-0.47129 -0.79375,-0.94257 -0.47129,-0.4961 -0.94258,-1.06661 -0.44649,-0.5705 -0.76895,-1.26504 -0.32246,-0.69453 -0.32246,-1.56269 0,-1.0418 0.42168,-1.53789 0.44649,-0.49609 0.99219,-0.49609 0.57051,0 0.91777,0.32246 0.34727,0.32246 0.4961,0.71933 z m 5.8291,-5.15937 q 0.19844,-0.39688 0.5209,-0.71934 0.34726,-0.32246 0.86816,-0.32246 0.5457,0 0.99219,0.49609 0.44648,0.4961 0.44648,1.53789 0,0.86817 -0.32246,1.5627 -0.32246,0.66973 -0.76894,1.26504 -0.44649,0.57051 -0.94258,1.0666 -0.47129,0.47129 -0.79375,0.94258 -0.32246,-0.47129 -0.81856,-0.94258 -0.47129,-0.49609 -0.91777,-1.0666 -0.44648,-0.59531 -0.79375,-1.26504 -0.32246,-0.69453 -0.32246,-1.5627 0,-1.04179 0.44648,-1.53789 0.44649,-0.49609 0.99219,-0.49609 0.5457,0 0.89297,0.32246 0.34726,0.32246 0.5209,0.71934 z m -11.68301,-2.13321 q 0.0992,-0.22324 0.27285,-0.37207 0.17363,-0.17363 0.44649,-0.17363 0.29765,0 0.52089,0.24805 0.22325,0.24804 0.22325,0.79375 0,0.44648 -0.17364,0.81855 -0.17363,0.34727 -0.42168,0.64492 -0.22324,0.27286 -0.47128,0.54571 -0.22325,0.24804 -0.39688,0.47129 -0.17363,-0.22325 -0.42168,-0.47129 -0.22324,-0.27285 -0.47129,-0.54571 -0.22324,-0.29765 -0.39687,-0.64492 -0.17364,-0.37207 -0.17364,-0.81855 0,-0.54571 0.22325,-0.79375 0.24804,-0.24805 0.52089,-0.24805 0.29766,0 0.47129,0.17363 0.17364,0.14883 0.24805,0.37207 z m -0.5457,-1.88515 h -1.76114 v -0.4961 h 0.62012 v -3.67109 l -0.76894,0.27285 v -0.49609 l 1.26504,-0.47129 v 4.36562 h 0.64492 z m 1.53789,0.0744 q -0.44649,0 -0.71934,-0.22324 -0.27285,-0.22324 -0.44648,-0.57051 -0.17364,-0.34726 -0.24805,-0.76894 -0.0496,-0.42168 -0.0496,-0.79375 0,-0.42168 0.0496,-0.86817 0.0496,-0.44648 0.19844,-0.81855 0.17363,-0.37207 0.44648,-0.59531 0.27285,-0.24805 0.76895,-0.24805 0.69453,0 1.0666,0.66973 0.37207,0.64492 0.37207,1.86035 0,0.39687 -0.0496,0.81855 -0.0496,0.42168 -0.22324,0.76895 -0.14883,0.32246 -0.42168,0.5457 -0.27285,0.22324 -0.74414,0.22324 z m 0,-4.44004 q -0.94258,0 -0.94258,2.0836 0,1.90996 0.94258,1.90996 0.47129,0 0.69453,-0.44649 0.22324,-0.47129 0.22324,-1.46347 0,-1.017 -0.24805,-1.53789 -0.22324,-0.54571 -0.66972,-0.54571 z m 4.86172,39.56348 q -0.19844,0.39687 -0.5209,0.71933 -0.32246,0.32247 -0.86817,0.32247 -0.5457,0 -0.99218,-0.4961 -0.44649,-0.49609 -0.44649,-1.53789 0,-0.84336 0.32246,-1.53789 0.34727,-0.71934 0.79375,-1.28984 0.44649,-0.57051 0.91778,-1.0418 0.49609,-0.49609 0.79375,-0.96738 0.32246,0.47129 0.79375,0.96738 0.49609,0.47129 0.94257,1.0418 0.47129,0.5705 0.79375,1.28984 0.32247,0.69453 0.32247,1.53789 0,1.0418 -0.44649,1.53789 -0.44648,0.4961 -0.99219,0.4961 -0.5457,0 -0.89297,-0.32247 -0.34726,-0.32246 -0.52089,-0.71933 z m 0,-10.44277 q -0.19844,0.39687 -0.5209,0.71933 -0.32246,0.32246 -0.86817,0.32246 -0.5457,0 -0.99218,-0.49609 -0.44649,-0.49609 -0.44649,-1.53789 0,-0.84336 0.32246,-1.53789 0.34727,-0.69453 0.79375,-1.26504 0.44649,-0.59531 0.91778,-1.0666 0.49609,-0.4961 0.79375,-0.96739 0.32246,0.47129 0.79375,0.96739 0.49609,0.47129 0.94257,1.0666 0.47129,0.57051 0.79375,1.26504 0.32247,0.69453 0.32247,1.53789 0,1.0418 -0.44649,1.53789 -0.44648,0.49609 -0.99219,0.49609 -0.5457,0 -0.89297,-0.32246 -0.34726,-0.32246 -0.52089,-0.71933 z m 11.60859,10.44277 q -0.22324,0.39687 -0.5457,0.71933 -0.32246,0.32247 -0.84336,0.32247 -0.54571,0 -0.99219,-0.4961 -0.44648,-0.49609 -0.44648,-1.53789 0,-0.84336 0.32246,-1.53789 0.32246,-0.71934 0.76894,-1.28984 0.44649,-0.57051 0.91778,-1.0418 0.49609,-0.49609 0.81855,-0.96738 0.32246,0.47129 0.79375,0.96738 0.49609,0.47129 0.94258,1.0418 0.44648,0.5705 0.76894,1.28984 0.34727,0.69453 0.34727,1.53789 0,1.0418 -0.44649,1.53789 -0.44648,0.4961 -0.99218,0.4961 -0.54571,0 -0.89297,-0.32247 -0.34727,-0.32246 -0.5209,-0.71933 z m 0,-10.44277 q -0.22324,0.39687 -0.5457,0.71933 -0.32246,0.32246 -0.84336,0.32246 -0.54571,0 -0.99219,-0.49609 -0.44648,-0.49609 -0.44648,-1.53789 0,-0.84336 0.32246,-1.53789 0.32246,-0.69453 0.76894,-1.26504 0.44649,-0.59531 0.91778,-1.0666 0.49609,-0.4961 0.81855,-0.96739 0.32246,0.47129 0.79375,0.96739 0.49609,0.47129 0.94258,1.0666 0.44648,0.57051 0.76894,1.26504 0.34727,0.69453 0.34727,1.53789 0,1.0418 -0.44649,1.53789 -0.44648,0.49609 -0.99218,0.49609 -0.54571,0 -0.89297,-0.32246 -0.34727,-0.32246 -0.5209,-0.71933 z m -5.8291,5.15937 q -0.19844,0.39688 -0.5457,0.74414 -0.32247,0.32246 -0.84336,0.32246 -0.54571,0 -0.99219,-0.49609 -0.44649,-0.4961 -0.44649,-1.5627 0,-0.84336 0.32246,-1.53789 0.34727,-0.69453 0.76895,-1.26504 0.44648,-0.59531 0.94258,-1.0666 0.49609,-0.49609 0.79375,-0.96738 0.32246,0.47129 0.79375,0.96738 0.49609,0.47129 0.94258,1.0666 0.47129,0.57051 0.79375,1.26504 0.32246,0.69453 0.32246,1.53789 0,1.0666 -0.44649,1.5627 -0.44648,0.49609 -0.99218,0.49609 -0.54571,0 -0.89297,-0.32246 -0.34727,-0.34726 -0.5209,-0.74414 z m 11.68301,2.15801 q -0.0992,0.19844 -0.27286,0.37207 -0.17363,0.14883 -0.44648,0.14883 -0.29766,0 -0.5209,-0.24805 -0.19844,-0.24805 -0.19844,-0.79375 0,-0.44648 0.14883,-0.79375 0.17364,-0.34727 0.39688,-0.64492 0.24804,-0.29766 0.47129,-0.5457 0.24804,-0.27286 0.42168,-0.4961 0.14882,0.22324 0.39687,0.4961 0.27285,0.24804 0.49609,0.5457 0.22325,0.29765 0.39688,0.64492 0.17363,0.34727 0.17363,0.79375 0,0.5457 -0.24804,0.79375 -0.22325,0.24805 -0.4961,0.24805 -0.29765,0 -0.47129,-0.14883 -0.14883,-0.17363 -0.24804,-0.37207 z m 0.5457,1.86035 h 1.78594 v 0.49609 h -0.64493 v 3.6711 l 0.76895,-0.27285 v 0.49609 l -1.26504,0.47129 v -4.36563 h -0.64492 z m -1.53789,-0.0744 q 0.44648,0 0.71933,0.22324 0.27286,0.22324 0.44649,0.57051 0.17363,0.34726 0.22324,0.76894 0.0744,0.42168 0.0744,0.79375 0,0.42168 -0.0496,0.86817 -0.0496,0.47128 -0.19844,0.81855 -0.14883,0.37207 -0.44649,0.59531 -0.27285,0.24805 -0.76894,0.24805 -0.69453,0 -1.0666,-0.66973 -0.37207,-0.64492 -0.37207,-1.86035 0,-0.39687 0.0496,-0.81855 0.0744,-0.42168 0.22324,-0.76895 0.14883,-0.32246 0.42168,-0.5457 0.29765,-0.22324 0.74414,-0.22324 z m 0,4.44003 q 0.94258,0 0.94258,-2.08359 0,-1.88516 -0.94258,-1.88516 -0.44649,0 -0.66973,0.44649 -0.22324,0.44648 -0.22324,1.43867 0,1.01699 0.22324,1.53789 0.22324,0.5457 0.66973,0.5457 z m 5.01055,-44.92128 v 46.93046 h -31.30352 v -46.93046 z m -30.1625,45.78945 h 29.02148 V 387.49177 H 293.875 Z"
         style="font-style:normal;font-variant:normal;font-weight:normal;font-stretch:normal;font-size:50.79999924px;line-height:1.25;font-family:serif;-inkscape-font-specification:serif;letter-spacing:0px;word-spacing:0px;fill:#ff0101;fill-opacity:1;stroke:none;stroke-width:0.41033289;stroke-opacity:1"
         id="path8198"
         inkscape:connector-curvature="0" />
      <path
         sodipodi:nodetypes="cccccccccc"
         d="m 324.0375,386.35076 v 46.93046 h -31.30352 v -46.93046 z m -30.1625,45.78945 h 29.02148 V 387.49177 H 293.875 Z"
         style="font-style:normal;font-variant:normal;font-weight:normal;font-stretch:normal;font-size:50.79999924px;line-height:1.25;font-family:serif;-inkscape-font-specification:serif;letter-spacing:0px;word-spacing:0px;fill:#000000;fill-opacity:1;stroke:none;stroke-width:0.41033289"
         id="path8180-3-62"
         inkscape:connector-curvature="0" />
    </g>
  </g>
</svg>
