<?xml version="1.0" encoding="UTF-8" standalone="no"?>
<!-- Created with Inkscape (http://www.inkscape.org/) -->

<svg
   xmlns:dc="http://purl.org/dc/elements/1.1/"
   xmlns:cc="http://creativecommons.org/ns#"
   xmlns:rdf="http://www.w3.org/1999/02/22-rdf-syntax-ns#"
   xmlns:svg="http://www.w3.org/2000/svg"
   xmlns="http://www.w3.org/2000/svg"
   xmlns:sodipodi="http://sodipodi.sourceforge.net/DTD/sodipodi-0.dtd"
   xmlns:inkscape="http://www.inkscape.org/namespaces/inkscape"
   width="31.30352mm"
   height="46.930489mm"
   viewBox="0 0 31.30352 46.930489"
   version="1.1"
   id="svg8"
   inkscape:version="0.92.1 r15371"
   sodipodi:docname="2.svg">
  <defs
     id="defs2" />
  <sodipodi:namedview
     id="base"
     pagecolor="#ffffff"
     bordercolor="#666666"
     borderopacity="1.0"
     inkscape:pageopacity="0.0"
     inkscape:pageshadow="2"
     inkscape:zoom="0.7"
     inkscape:cx="279.47776"
     inkscape:cy="303.80665"
     inkscape:document-units="mm"
     inkscape:current-layer="layer1"
     showgrid="false"
     inkscape:window-width="1297"
     inkscape:window-height="991"
     inkscape:window-x="-8"
     inkscape:window-y="0"
     inkscape:window-maximized="0"
     fit-margin-top="0"
     fit-margin-left="0"
     fit-margin-right="0"
     fit-margin-bottom="0"
     inkscape:pagecheckerboard="true"
     showguides="false" />
  <metadata
     id="metadata5">
    <rdf:RDF>
      <cc:Work
         rdf:about="">
        <dc:format>image/svg+xml</dc:format>
        <dc:type
           rdf:resource="http://purl.org/dc/dcmitype/StillImage" />
        <dc:title></dc:title>
      </cc:Work>
    </rdf:RDF>
  </metadata>
  <g
     inkscape:label="Layer 1"
     inkscape:groupmode="layer"
     id="layer1"
     transform="translate(-59.371494,-513.35075)">
    <rect
       style="fill:#ffffff;fill-opacity:1;stroke:none;stroke-width:1;stroke-miterlimit:4;stroke-dasharray:none;stroke-opacity:1"
       id="rect8320-36"
       width="31.303518"
       height="46.93047"
       x="59.371494"
       y="513.35077" />
    <path
       inkscape:connector-curvature="0"
       id="path8238"
       style="font-style:normal;font-variant:normal;font-weight:normal;font-stretch:normal;font-size:50.79999924px;line-height:1.25;font-family:serif;-inkscape-font-specification:serif;letter-spacing:0px;word-spacing:0px;fill:#000000;fill-opacity:1;stroke:none;stroke-width:0.41033289"
       d="m 90.675015,513.35075 v 46.93047 H 59.3715 V 513.35075 Z M 60.512516,559.14021 H 89.534 V 514.49177 H 60.512516 Z m 3.894335,-39.1666 h -2.306835 v -0.4961 l 1.066601,-1.38906 q 0.322461,-0.42168 0.570508,-0.79375 0.248047,-0.37207 0.248047,-0.79375 0,-0.42168 -0.223242,-0.64492 -0.198438,-0.22324 -0.545703,-0.22324 -0.223243,0 -0.47129,0.12402 -0.248046,0.12402 -0.446484,0.39687 v -0.5457 q 0.396875,-0.44648 0.992188,-0.44648 0.496093,0 0.818554,0.37207 0.322461,0.37207 0.322461,0.91777 0,0.59531 -0.297656,1.0418 -0.297656,0.42168 -0.669727,0.89297 l -0.868164,1.0666 h 1.810742 z m 21.232813,33.908 H 87.9465 v 0.47129 l -1.066602,1.38906 q -0.322461,0.42168 -0.570508,0.79375 -0.248047,0.39688 -0.248047,0.81856 0,0.42168 0.198438,0.64492 0.223242,0.22324 0.570508,0.22324 0.223242,0 0.471289,-0.12402 0.248047,-0.12402 0.446484,-0.39687 v 0.5457 q -0.42168,0.42168 -0.992187,0.42168 -0.496094,0 -0.818555,-0.37207 -0.322461,-0.34727 -0.322461,-0.89297 0,-0.59531 0.272852,-1.0418 0.297656,-0.44648 0.694531,-0.91777 l 0.868164,-1.0666 h -1.810742 z m -11.90625,-29.39355 v -0.37207 q 0.297656,-0.22324 0.520898,-0.66973 0.223242,-0.44648 0.223242,-1.0914 -0.198437,0.12402 -0.396875,0.19843 -0.173632,0.0744 -0.471289,0.0744 -0.620117,0 -1.066601,-0.39688 -0.446485,-0.42168 -0.446485,-1.11621 0,-0.62012 0.396875,-1.0418 0.42168,-0.44648 1.091407,-0.47128 -0.04961,-0.12403 -0.07441,-0.24805 0,-0.12402 0,-0.24805 0,-0.62012 0.421679,-1.0666 0.42168,-0.44648 1.091407,-0.44648 0.669726,0 1.066601,0.44648 0.42168,0.44648 0.42168,1.0666 0,0.12403 -0.02481,0.24805 0,0.12402 -0.04961,0.24805 0.669726,0.0248 1.066601,0.47128 0.42168,0.42168 0.42168,1.0418 0,0.69453 -0.446484,1.11621 -0.42168,0.39688 -1.066602,0.39688 -0.297656,0 -0.496094,-0.0744 -0.173632,-0.0744 -0.37207,-0.19843 0,0.64492 0.223242,1.0914 0.223242,0.44649 0.520899,0.66973 v 0.37207 z m -11.137305,0.59531 v -0.19844 q 0.173633,-0.14882 0.297657,-0.39687 0.124023,-0.24805 0.124023,-0.64492 -0.198437,0.14883 -0.496094,0.14883 -0.37207,0 -0.644922,-0.22325 -0.248046,-0.22324 -0.248046,-0.64492 0,-0.37207 0.248046,-0.62012 0.248047,-0.24804 0.620118,-0.27285 -0.04961,-0.17363 -0.04961,-0.29765 0,-0.37207 0.248047,-0.62012 0.248047,-0.27285 0.644922,-0.27285 0.396875,0 0.644922,0.27285 0.248047,0.24805 0.248047,0.62012 0,0.12402 -0.04961,0.29765 0.396875,0.0248 0.644922,0.27285 0.248047,0.24805 0.248047,0.62012 0,0.42168 -0.272852,0.64492 -0.248046,0.22325 -0.644921,0.22325 -0.297657,0 -0.496094,-0.14883 0,0.39687 0.124023,0.66972 0.148828,0.24805 0.322461,0.37207 v 0.19844 z m 13.716992,24.30859 v 0.37208 q -0.297656,0.22324 -0.520898,0.66972 -0.223242,0.44649 -0.223242,1.09141 0.198437,-0.12403 0.37207,-0.19844 0.198437,-0.0744 0.496094,-0.0744 0.620117,0 1.066601,0.42168 0.446485,0.39687 0.446485,1.0914 0,0.62012 -0.42168,1.0666 -0.396875,0.42168 -1.066602,0.44649 0.02481,0.12402 0.04961,0.24805 0.0248,0.12402 0.0248,0.24804 0,0.64492 -0.421679,1.0666 -0.42168,0.44649 -1.091406,0.44649 -0.669727,0 -1.091407,-0.44649 -0.396875,-0.42168 -0.396875,-1.0666 0,-0.12402 0,-0.24804 0.02481,-0.12403 0.07441,-0.24805 -0.669726,-0.0248 -1.091406,-0.44649 -0.396875,-0.44648 -0.396875,-1.0666 0,-0.69453 0.42168,-1.0914 0.446484,-0.42168 1.091406,-0.42168 0.297656,0 0.471289,0.0744 0.198438,0.0744 0.396875,0.19844 0,-0.64492 -0.223242,-1.09141 -0.223242,-0.44648 -0.520898,-0.66972 v -0.37208 z m 11.087695,-0.59531 v 0.19844 q -0.173632,0.14883 -0.297656,0.42168 -0.124023,0.24805 -0.124023,0.62012 0.198437,-0.14883 0.496094,-0.14883 0.396875,0 0.644921,0.24805 0.248047,0.22324 0.248047,0.64492 0,0.34726 -0.248047,0.62011 -0.248046,0.24805 -0.620117,0.24805 0.04961,0.17363 0.04961,0.29766 0,0.37207 -0.248047,0.64492 -0.248047,0.24805 -0.644922,0.24805 -0.396875,0 -0.644922,-0.24805 -0.248047,-0.27285 -0.248047,-0.64492 0,-0.12403 0.04961,-0.29766 -0.396875,0 -0.644921,-0.24805 -0.248047,-0.27285 -0.248047,-0.62011 0,-0.42168 0.272851,-0.64492 0.272852,-0.24805 0.644922,-0.24805 0.297656,0 0.496094,0.14883 0,-0.37207 -0.148828,-0.64493 -0.124024,-0.27285 -0.272852,-0.39687 v -0.19844 z" />
  </g>
</svg>
