<?xml version="1.0" encoding="UTF-8" standalone="no"?>
<!-- Created with Inkscape (http://www.inkscape.org/) -->

<svg
   xmlns:dc="http://purl.org/dc/elements/1.1/"
   xmlns:cc="http://creativecommons.org/ns#"
   xmlns:rdf="http://www.w3.org/1999/02/22-rdf-syntax-ns#"
   xmlns:svg="http://www.w3.org/2000/svg"
   xmlns="http://www.w3.org/2000/svg"
   xmlns:sodipodi="http://sodipodi.sourceforge.net/DTD/sodipodi-0.dtd"
   xmlns:inkscape="http://www.inkscape.org/namespaces/inkscape"
   width="31.303522mm"
   height="46.930481mm"
   viewBox="0 0 31.303522 46.930481"
   version="1.1"
   id="svg8"
   inkscape:version="0.92.1 r15371"
   sodipodi:docname="5.svg">
  <defs
     id="defs2" />
  <sodipodi:namedview
     id="base"
     pagecolor="#ffffff"
     bordercolor="#666666"
     borderopacity="1.0"
     inkscape:pageopacity="0.0"
     inkscape:pageshadow="2"
     inkscape:zoom="0.7"
     inkscape:cx="-151.42852"
     inkscape:cy="63.806615"
     inkscape:document-units="mm"
     inkscape:current-layer="layer1"
     showgrid="false"
     inkscape:window-width="1297"
     inkscape:window-height="991"
     inkscape:window-x="-8"
     inkscape:window-y="0"
     inkscape:window-maximized="0"
     fit-margin-top="0"
     fit-margin-left="0"
     fit-margin-right="0"
     fit-margin-bottom="0"
     inkscape:pagecheckerboard="true"
     showguides="false" />
  <metadata
     id="metadata5">
    <rdf:RDF>
      <cc:Work
         rdf:about="">
        <dc:format>image/svg+xml</dc:format>
        <dc:type
           rdf:resource="http://purl.org/dc/dcmitype/StillImage" />
        <dc:title></dc:title>
      </cc:Work>
    </rdf:RDF>
  </metadata>
  <g
     inkscape:label="Layer 1"
     inkscape:groupmode="layer"
     id="layer1"
     transform="translate(-159.38399,-449.85074)">
    <rect
       style="fill:#ffffff;fill-opacity:1;stroke:none;stroke-width:1;stroke-miterlimit:4;stroke-dasharray:none;stroke-opacity:1"
       id="rect8320-50"
       width="31.303518"
       height="46.93047"
       x="159.38399"
       y="449.85074" />
    <path
       inkscape:connector-curvature="0"
       id="path8216"
       style="font-style:normal;font-variant:normal;font-weight:normal;font-stretch:normal;font-size:50.79999924px;line-height:1.25;font-family:serif;-inkscape-font-specification:serif;letter-spacing:0px;word-spacing:0px;fill:#ff0101;fill-opacity:1;stroke:none;stroke-width:0.41033289;stroke-opacity:1"
       d="m 190.6875,449.85076 v 46.93046 h -31.30351 v -46.93046 z m -30.1625,45.78945 h 29.02149 V 450.99177 H 160.525 Z m 1.68672,-39.26582 v -0.57051 q 0.39688,0.29766 0.86817,0.29766 0.44648,0 0.66972,-0.27285 0.24805,-0.29766 0.24805,-0.71934 0,-0.49609 -0.27285,-0.71934 -0.27285,-0.24804 -0.71934,-0.24804 -0.0992,0 -0.27285,0 -0.14883,0 -0.39687,0.0248 v -2.40605 h 1.98437 v 0.49609 h -1.51308 v 1.43867 h 0.12402 q 0.0496,0 0.0992,0 0.0744,-0.0248 0.12402,-0.0248 0.62012,0 0.96738,0.37207 0.37207,0.37207 0.37207,1.01699 0,0.64492 -0.39687,1.0666 -0.37207,0.42168 -1.01699,0.42168 -0.59531,0 -0.86817,-0.17363 z m 25.62325,34.15605 v 0.57051 q -0.42168,-0.32246 -0.86817,-0.32246 -0.44648,0 -0.66973,0.29766 -0.22324,0.29765 -0.22324,0.71933 0,0.47129 0.24805,0.71934 0.27285,0.24804 0.71934,0.24804 0.0992,0 0.24804,0 0.17364,0 0.42168,-0.0496 v 2.40606 h -1.98437 v -0.49609 h 1.51308 v -1.41387 q -0.0496,0 -0.12402,0 h -0.19844 q -0.64492,0 -1.01699,-0.37207 -0.34727,-0.37207 -0.34727,-1.01699 0,-0.64493 0.37207,-1.06661 0.39688,-0.42168 1.0418,-0.42168 0.57051,0 0.86817,0.19844 z m -21.00957,-32.99023 2.40605,-3.49746 2.43086,3.49746 -2.43086,3.49746 z m 0,31.7748 2.40605,-3.49746 2.43086,3.49746 -2.43086,3.49746 z m 11.58378,-31.7748 2.40606,-3.49746 2.43086,3.49746 -2.43086,3.49746 z m 0,31.7748 2.40606,-3.49746 2.43086,3.49746 -2.43086,3.49746 z m -5.77949,-15.70136 2.40606,-3.49747 2.43086,3.49747 -2.43086,3.49746 z m -10.69082,-14.01465 1.41387,-2.05879 1.38906,2.05879 -1.38906,1.98437 z m 26.14414,27.70683 -1.41386,2.03399 -1.38907,-2.03399 1.38907,-2.00918 z" />
    <path
       inkscape:connector-curvature="0"
       id="path8180-3-0"
       style="font-style:normal;font-variant:normal;font-weight:normal;font-stretch:normal;font-size:50.79999924px;line-height:1.25;font-family:serif;-inkscape-font-specification:serif;letter-spacing:0px;word-spacing:0px;fill:#000000;fill-opacity:1;stroke:none;stroke-width:0.41033289"
       d="m 190.68751,449.85076 v 46.93046 h -31.30352 v -46.93046 z m -30.1625,45.78945 h 29.02148 v -44.64844 h -29.02148 z"
       sodipodi:nodetypes="cccccccccc" />
  </g>
</svg>
