<?xml version="1.0" encoding="UTF-8" standalone="no"?>
<!-- Created with Inkscape (http://www.inkscape.org/) -->

<svg
   xmlns:dc="http://purl.org/dc/elements/1.1/"
   xmlns:cc="http://creativecommons.org/ns#"
   xmlns:rdf="http://www.w3.org/1999/02/22-rdf-syntax-ns#"
   xmlns:svg="http://www.w3.org/2000/svg"
   xmlns="http://www.w3.org/2000/svg"
   xmlns:sodipodi="http://sodipodi.sourceforge.net/DTD/sodipodi-0.dtd"
   xmlns:inkscape="http://www.inkscape.org/namespaces/inkscape"
   width="31.303524mm"
   height="46.930481mm"
   viewBox="0 0 31.303524 46.930481"
   version="1.1"
   id="svg8"
   inkscape:version="0.92.1 r15371"
   sodipodi:docname="6.svg">
  <defs
     id="defs2" />
  <sodipodi:namedview
     id="base"
     pagecolor="#ffffff"
     bordercolor="#666666"
     borderopacity="1.0"
     inkscape:pageopacity="0.0"
     inkscape:pageshadow="2"
     inkscape:zoom="0.7"
     inkscape:cx="-277.42852"
     inkscape:cy="63.806611"
     inkscape:document-units="mm"
     inkscape:current-layer="layer1"
     showgrid="false"
     inkscape:window-width="1297"
     inkscape:window-height="991"
     inkscape:window-x="-8"
     inkscape:window-y="0"
     inkscape:window-maximized="0"
     fit-margin-top="0"
     fit-margin-left="0"
     fit-margin-right="0"
     fit-margin-bottom="0"
     inkscape:pagecheckerboard="true"
     showguides="false" />
  <metadata
     id="metadata5">
    <rdf:RDF>
      <cc:Work
         rdf:about="">
        <dc:format>image/svg+xml</dc:format>
        <dc:type
           rdf:resource="http://purl.org/dc/dcmitype/StillImage" />
        <dc:title></dc:title>
      </cc:Work>
    </rdf:RDF>
  </metadata>
  <g
     inkscape:label="Layer 1"
     inkscape:groupmode="layer"
     id="layer1"
     transform="translate(-192.72149,-449.85074)">
    <rect
       style="fill:#ffffff;fill-opacity:1;stroke:none;stroke-width:1;stroke-miterlimit:4;stroke-dasharray:none;stroke-opacity:1"
       id="rect8320-62"
       width="31.303518"
       height="46.93047"
       x="192.7215"
       y="449.85074" />
    <path
       inkscape:connector-curvature="0"
       id="path8218"
       style="font-style:normal;font-variant:normal;font-weight:normal;font-stretch:normal;font-size:50.79999924px;line-height:1.25;font-family:serif;-inkscape-font-specification:serif;letter-spacing:0px;word-spacing:0px;fill:#ff0101;fill-opacity:1;stroke:none;stroke-width:0.41033289;stroke-opacity:1"
       d="m 224.02501,449.85076 v 46.93046 H 192.7215 v -46.93046 z m -30.1625,45.78945 H 222.884 v -44.64844 h -29.02149 z m 3.79512,-43.82988 v 0.49609 q -0.14883,-0.0992 -0.32246,-0.12402 -0.17363,-0.0496 -0.34727,-0.0496 -0.34726,0 -0.5705,0.22324 -0.19844,0.22324 -0.32246,0.5457 -0.12403,0.32246 -0.17364,0.69453 -0.0496,0.37207 -0.0496,0.66973 0.29766,-0.66973 0.89297,-0.66973 0.57051,0 0.84336,0.44649 0.29766,0.42168 0.29766,0.96738 0,0.57051 -0.32246,1.0666 -0.32246,0.47129 -0.94258,0.47129 -0.37207,0 -0.62012,-0.19844 -0.24805,-0.19843 -0.39687,-0.49609 -0.12403,-0.32246 -0.19844,-0.66973 -0.0496,-0.37207 -0.0496,-0.71933 0,-0.39688 0.0744,-0.86817 0.0744,-0.49609 0.27286,-0.91777 0.19843,-0.42168 0.49609,-0.69453 0.29766,-0.29766 0.74414,-0.29766 0.47129,0 0.69453,0.12403 z m -1.01699,2.25722 q -0.34727,0 -0.5457,0.29766 -0.19844,0.27285 -0.19844,0.62012 0,0.17363 0.0248,0.37207 0.0496,0.19843 0.14883,0.37207 0.0992,0.17363 0.24805,0.29765 0.14883,0.0992 0.34726,0.0992 0.39688,0 0.54571,-0.32246 0.17363,-0.34727 0.17363,-0.69453 0,-0.39688 -0.17363,-0.71934 -0.14883,-0.32246 -0.57051,-0.32246 z m 22.42344,41.00215 v -0.49609 q 0.14882,0.0992 0.32246,0.12402 0.17363,0.0496 0.34726,0.0496 0.34727,0 0.54571,-0.22324 0.22324,-0.19844 0.34726,-0.54571 0.12402,-0.32246 0.17363,-0.69453 0.0496,-0.34726 0.0496,-0.64492 -0.29765,0.64492 -0.89297,0.64492 -0.5457,0 -0.84335,-0.44648 -0.27286,-0.42168 -0.27286,-0.96738 0,-0.57051 0.29766,-1.0418 0.32246,-0.4961 0.94258,-0.4961 0.37207,0 0.62012,0.19844 0.24804,0.19844 0.37207,0.5209 0.14882,0.29766 0.22324,0.66973 0.0744,0.37207 0.0744,0.69453 0,0.39687 -0.0992,0.86816 -0.0744,0.4961 -0.27285,0.91778 -0.19844,0.42168 -0.49609,0.69453 -0.29766,0.29765 -0.74414,0.29765 -0.22324,0 -0.42168,-0.0248 -0.17364,-0.0248 -0.27285,-0.0992 z m 1.01699,-2.25723 q 0.34726,0 0.5457,-0.29765 0.19844,-0.27285 0.19844,-0.62012 0,-0.17363 -0.0496,-0.37207 -0.0248,-0.19844 -0.12402,-0.37207 -0.0992,-0.17363 -0.24805,-0.27285 -0.14883,-0.12403 -0.34727,-0.12403 -0.37207,0 -0.5457,0.34727 -0.17363,0.32246 -0.17363,0.69453 0,0.37207 0.14883,0.69453 0.17363,0.32246 0.59531,0.32246 z m -19.91817,-35.27226 2.40606,-3.49746 2.43086,3.49746 -2.43086,3.49746 z m 0,31.7748 2.40606,-3.49746 2.43086,3.49746 -2.43086,3.49746 z m 11.58379,-31.7748 2.40606,-3.49746 2.43086,3.49746 -2.43086,3.49746 z m 0,31.7748 2.40606,-3.49746 2.43086,3.49746 -2.43086,3.49746 z m -16.47031,-29.71601 1.41387,-2.05879 1.38906,2.05879 -1.38906,1.98437 z m 26.14414,27.70683 -1.41387,2.03399 -1.38906,-2.03399 1.38906,-2.00918 z m -21.25762,-13.69218 2.40606,-3.49747 2.43086,3.49747 -2.43086,3.49746 z m 11.58379,0 2.40606,-3.49747 2.43086,3.49747 -2.43086,3.49746 z" />
    <path
       inkscape:connector-curvature="0"
       id="path8180-3-44"
       style="font-style:normal;font-variant:normal;font-weight:normal;font-stretch:normal;font-size:50.79999924px;line-height:1.25;font-family:serif;-inkscape-font-specification:serif;letter-spacing:0px;word-spacing:0px;fill:#000000;fill-opacity:1;stroke:none;stroke-width:0.41033289"
       d="m 224.02501,449.85076 v 46.93046 h -31.30352 v -46.93046 z m -30.1625,45.78945 h 29.02148 v -44.64844 h -29.02148 z"
       sodipodi:nodetypes="cccccccccc" />
  </g>
</svg>
