<?xml version="1.0" encoding="UTF-8" standalone="no"?>
<!-- Created with Inkscape (http://www.inkscape.org/) -->

<svg
   xmlns:dc="http://purl.org/dc/elements/1.1/"
   xmlns:cc="http://creativecommons.org/ns#"
   xmlns:rdf="http://www.w3.org/1999/02/22-rdf-syntax-ns#"
   xmlns:svg="http://www.w3.org/2000/svg"
   xmlns="http://www.w3.org/2000/svg"
   xmlns:sodipodi="http://sodipodi.sourceforge.net/DTD/sodipodi-0.dtd"
   xmlns:inkscape="http://www.inkscape.org/namespaces/inkscape"
   width="31.303526mm"
   height="46.930481mm"
   viewBox="0 0 31.303526 46.930481"
   version="1.1"
   id="svg8"
   inkscape:version="0.92.1 r15371"
   sodipodi:docname="8.svg">
  <defs
     id="defs2" />
  <sodipodi:namedview
     id="base"
     pagecolor="#ffffff"
     bordercolor="#666666"
     borderopacity="1.0"
     inkscape:pageopacity="0.0"
     inkscape:pageshadow="2"
     inkscape:zoom="0.7"
     inkscape:cx="402.31035"
     inkscape:cy="63.806604"
     inkscape:document-units="mm"
     inkscape:current-layer="layer1"
     showgrid="false"
     inkscape:window-width="1297"
     inkscape:window-height="991"
     inkscape:window-x="-8"
     inkscape:window-y="0"
     inkscape:window-maximized="0"
     fit-margin-top="0"
     fit-margin-left="0"
     fit-margin-right="0"
     fit-margin-bottom="0"
     inkscape:pagecheckerboard="true"
     showguides="false" />
  <metadata
     id="metadata5">
    <rdf:RDF>
      <cc:Work
         rdf:about="">
        <dc:format>image/svg+xml</dc:format>
        <dc:type
           rdf:resource="http://purl.org/dc/dcmitype/StillImage" />
        <dc:title></dc:title>
      </cc:Work>
    </rdf:RDF>
  </metadata>
  <g
     inkscape:label="Layer 1"
     inkscape:groupmode="layer"
     id="layer1"
     transform="translate(-259.39648,-449.85074)">
    <rect
       style="fill:#ffffff;fill-opacity:1;stroke:none;stroke-width:1;stroke-miterlimit:4;stroke-dasharray:none;stroke-opacity:1"
       id="rect8320-14"
       width="31.303518"
       height="46.93047"
       x="259.39648"
       y="449.85074" />
    <path
       inkscape:connector-curvature="0"
       id="path8222"
       style="font-style:normal;font-variant:normal;font-weight:normal;font-stretch:normal;font-size:50.79999924px;line-height:1.25;font-family:serif;-inkscape-font-specification:serif;letter-spacing:0px;word-spacing:0px;fill:#ff0101;fill-opacity:1;stroke:none;stroke-width:0.41033289;stroke-opacity:1"
       d="m 290.7,449.85076 v 46.93046 h -31.30351 v -46.93046 z m -30.1625,45.78945 h 29.02149 V 450.99177 H 260.5375 Z m 2.48047,-41.62227 v -0.0248 q -0.74414,-0.39688 -0.74414,-1.16582 0,-0.5209 0.34727,-0.84336 0.34726,-0.32246 0.84335,-0.32246 0.4961,0 0.79375,0.32246 0.29766,0.29765 0.29766,0.74414 0,0.39687 -0.19844,0.74414 -0.19843,0.32246 -0.59531,0.5209 v 0.0248 q 0.91777,0.37207 0.91777,1.26504 0,0.62012 -0.34726,0.94258 -0.34727,0.32246 -0.96738,0.32246 -0.5209,0 -0.89297,-0.34726 -0.34727,-0.37207 -0.34727,-0.86817 0,-0.44648 0.22324,-0.76894 0.24805,-0.32246 0.66973,-0.54571 z m 1.0418,-1.21543 q 0,-0.29765 -0.17364,-0.47129 -0.14882,-0.19843 -0.44648,-0.19843 -0.29766,0 -0.49609,0.19843 -0.17364,0.17364 -0.17364,0.47129 0,0.29766 0.14883,0.57051 0.17363,0.24805 0.4961,0.42168 0.32246,-0.17363 0.47128,-0.42168 0.17364,-0.27285 0.17364,-0.57051 z m -0.69453,1.46348 q -0.74414,0.37207 -0.74414,1.01699 0,0.37207 0.22324,0.59531 0.22324,0.22325 0.59531,0.22325 0.32246,0 0.5209,-0.19844 0.22324,-0.22324 0.22324,-0.59531 0,-0.71934 -0.81855,-1.0418 z m 23.68847,38.59609 v 0.0248 q 0.74414,0.39687 0.74414,1.16582 0,0.5209 -0.34726,0.84336 -0.34727,0.32246 -0.84336,0.32246 -0.4961,0 -0.79375,-0.29766 -0.29766,-0.29765 -0.29766,-0.76894 0,-0.37207 0.19844,-0.71934 0.22324,-0.34726 0.59531,-0.5457 v -0.0248 q -0.91777,-0.34726 -0.91777,-1.26504 0,-0.62011 0.34726,-0.94257 0.34727,-0.32247 0.96739,-0.32247 0.5209,0 0.86816,0.37208 0.37207,0.37207 0.37207,0.84335 0,0.44649 -0.24805,0.76895 -0.22324,0.32246 -0.64492,0.5457 z m -1.04179,1.21543 q 0,0.29766 0.17363,0.47129 0.17363,0.19844 0.44648,0.19844 0.29766,0 0.47129,-0.19844 0.19844,-0.17363 0.19844,-0.47129 0,-0.29765 -0.17363,-0.57051 -0.14883,-0.24804 -0.47129,-0.42167 -0.64492,0.34726 -0.64492,0.99218 z m 0.69453,-1.46347 q 0.74414,-0.37207 0.74414,-1.017 0,-0.34726 -0.22324,-0.5705 -0.22325,-0.24805 -0.59532,-0.24805 -0.32246,0 -0.5457,0.22324 -0.19844,0.22324 -0.19844,0.57051 0,0.71934 0.81856,1.0418 z m -19.86856,-35.07383 2.40606,-3.49746 2.43086,3.49746 -2.43086,3.49746 z m 0,31.7748 2.40606,-3.49746 2.43086,3.49746 -2.43086,3.49746 z m 11.58379,-31.7748 2.40606,-3.49746 2.43086,3.49746 -2.43086,3.49746 z m 0,31.7748 2.40606,-3.49746 2.43086,3.49746 -2.43086,3.49746 z m -16.47031,-29.71601 1.41387,-2.05879 1.38906,2.05879 -1.38906,1.98437 z m 26.14414,27.70683 -1.41387,2.03399 -1.38906,-2.03399 1.38906,-2.00918 z m -21.25762,-13.69218 2.40606,-3.49747 2.43086,3.49747 -2.43086,3.49746 z m 11.58379,0 2.40606,-3.49747 2.43086,3.49747 -2.43086,3.49746 z m -5.77949,-7.83829 2.40605,-3.49746 2.43086,3.49746 -2.43086,3.49747 z m 0,15.75098 2.40605,-3.49746 2.43086,3.49746 -2.43086,3.49746 z" />
    <path
       inkscape:connector-curvature="0"
       id="path8180-3-48"
       style="font-style:normal;font-variant:normal;font-weight:normal;font-stretch:normal;font-size:50.79999924px;line-height:1.25;font-family:serif;-inkscape-font-specification:serif;letter-spacing:0px;word-spacing:0px;fill:#000000;fill-opacity:1;stroke:none;stroke-width:0.41033289"
       d="m 290.70001,449.85076 v 46.93046 h -31.30352 v -46.93046 z m -30.1625,45.78945 h 29.02148 v -44.64844 h -29.02148 z"
       sodipodi:nodetypes="cccccccccc" />
  </g>
</svg>
