<?xml version="1.0" encoding="UTF-8" standalone="no"?>
<!-- Created with Inkscape (http://www.inkscape.org/) -->

<svg
   xmlns:dc="http://purl.org/dc/elements/1.1/"
   xmlns:cc="http://creativecommons.org/ns#"
   xmlns:rdf="http://www.w3.org/1999/02/22-rdf-syntax-ns#"
   xmlns:svg="http://www.w3.org/2000/svg"
   xmlns="http://www.w3.org/2000/svg"
   xmlns:sodipodi="http://sodipodi.sourceforge.net/DTD/sodipodi-0.dtd"
   xmlns:inkscape="http://www.inkscape.org/namespaces/inkscape"
   width="31.303526mm"
   height="46.930481mm"
   viewBox="0 0 31.303526 46.930481"
   version="1.1"
   id="svg8"
   inkscape:version="0.92.1 r15371"
   sodipodi:docname="k.svg">
  <defs
     id="defs2" />
  <sodipodi:namedview
     id="base"
     pagecolor="#ffffff"
     bordercolor="#666666"
     borderopacity="1.0"
     inkscape:pageopacity="0.0"
     inkscape:pageshadow="2"
     inkscape:zoom="0.7"
     inkscape:cx="-227.68965"
     inkscape:cy="63.806586"
     inkscape:document-units="mm"
     inkscape:current-layer="layer1"
     showgrid="false"
     inkscape:window-width="1297"
     inkscape:window-height="991"
     inkscape:window-x="-8"
     inkscape:window-y="0"
     inkscape:window-maximized="0"
     fit-margin-top="0"
     fit-margin-left="0"
     fit-margin-right="0"
     fit-margin-bottom="0"
     inkscape:pagecheckerboard="true"
     showguides="false" />
  <metadata
     id="metadata5">
    <rdf:RDF>
      <cc:Work
         rdf:about="">
        <dc:format>image/svg+xml</dc:format>
        <dc:type
           rdf:resource="http://purl.org/dc/dcmitype/StillImage" />
        <dc:title></dc:title>
      </cc:Work>
    </rdf:RDF>
  </metadata>
  <g
     inkscape:label="Layer 1"
     inkscape:groupmode="layer"
     id="layer1"
     transform="translate(-426.08398,-449.85074)">
    <rect
       style="fill:#ffffff;fill-opacity:1;stroke:none;stroke-width:1;stroke-miterlimit:4;stroke-dasharray:none;stroke-opacity:1"
       id="rect8320-16"
       width="31.303518"
       height="46.93047"
       x="426.08398"
       y="449.85074" />
    <path
       inkscape:connector-curvature="0"
       id="path8232"
       style="font-style:normal;font-variant:normal;font-weight:normal;font-stretch:normal;font-size:50.79999924px;line-height:1.25;font-family:serif;-inkscape-font-specification:serif;letter-spacing:0px;word-spacing:0px;fill:#ff0101;fill-opacity:1;stroke:none;stroke-width:0.41033289;stroke-opacity:1"
       d="m 457.3875,449.85076 v 46.93046 h -31.30351 v -46.93046 z m -30.1625,45.78945 h 29.02149 V 450.99177 H 427.225 Z m 23.41563,-39.6875 v 34.72656 h -17.80977 v -34.72656 z m -16.74317,1.0666 v 32.59336 h 15.67656 v -32.59336 z m 4.14239,12.77441 q -0.79375,1.017 -1.31465,2.25723 -0.4961,1.24023 -0.79375,2.38125 -0.34727,1.31465 -0.54571,2.67891 h -0.44648 q 0.19844,-1.36426 0.57051,-2.72852 0.32246,-1.14101 0.86816,-2.43086 0.5457,-1.31465 1.36426,-2.38125 0.5209,-0.66972 1.09141,-1.0666 0.5705,-0.39687 1.14101,-0.62012 0.59531,-0.24804 1.14102,-0.34726 0.5705,-0.0992 1.0666,-0.14883 l 0.0744,-0.42168 h -2.08359 l 1.01699,-1.6123 -0.44648,-0.96739 0.34726,-0.12402 -0.42168,-0.29766 0.0744,-0.47129 -0.62012,-0.12402 v -0.22324 l 0.59531,-0.99219 -0.24805,-0.29766 0.0992,-1.26503 h 6.27559 l 1.56269,6.07714 h -3.67109 l -0.32246,-1.38906 -1.68672,0.66973 -0.24805,1.86035 q -0.5457,0.0496 -1.14101,0.14883 -0.59531,0.0992 -1.16582,0.32246 -0.57051,0.19844 -1.11621,0.57051 -0.54571,0.34726 -1.01699,0.94257 z m -3.34864,-9.40097 2.13321,-3.07578 2.1332,3.07578 -2.1332,3.07578 z m 9.67383,25.77207 2.1332,-3.07578 2.13321,3.07578 -2.13321,3.07578 z m -4.86172,-28.50059 1.5875,1.48828 1.09141,-1.48828 1.38906,1.48828 1.24024,-1.48828 1.21542,1.48828 1.83555,-1.48828 -1.0418,2.53008 h -6.27558 z m 1.43867,3.27422 -0.0992,0.86816 0.24804,0.34727 -0.5457,1.0666 0.5457,0.0744 -0.0248,0.22324 0.86816,0.17363 0.32246,0.69453 1.83555,-0.86816 -0.49609,-2.57969 z m 13.84102,26.36738 -1.41387,2.03399 -1.38906,-2.03399 1.38906,-2.00918 z m -26.14414,-27.70683 1.41387,-2.05879 1.38906,2.05879 -1.38906,1.98437 z m 22.99394,31.08027 h 0.74414 l 1.90997,2.25723 v -2.25723 h 0.5457 v 4.58887 h -0.5457 v -2.15801 l -1.83555,2.15801 h -0.66973 l 1.95957,-2.20762 z m -19.84375,-34.47851 h -0.74414 l -1.88515,-2.25723 v 2.25723 h -0.57051 v -4.58887 h 0.57051 v 2.15801 l 1.81074,-2.15801 h 0.69453 l -1.95957,2.20762 z m 9.22735,7.73906 0.47129,0.27285 -0.37207,0.19844 0.22324,0.5209 h 0.59531 l -0.29765,-0.84336 z m 0.91777,-1.19063 -0.64492,-0.5705 1.41387,0.14882 z m 3.37344,14.01465 q 0.76894,-0.99219 1.28984,-2.23242 0.5209,-1.26504 0.81856,-2.40606 0.34726,-1.28984 0.5457,-2.6789 h 0.44648 q -0.22324,1.38906 -0.59531,2.72851 -0.32246,1.16582 -0.86816,2.45567 -0.5209,1.28984 -1.33945,2.38125 -0.5209,0.64492 -1.09141,1.04179 -0.57051,0.39688 -1.16582,0.64493 -0.57051,0.22324 -1.14102,0.34726 -0.5457,0.0992 -1.04179,0.12403 l -0.0744,0.42168 h 2.0836 l -1.017,1.6371 0.44649,0.96739 -0.37207,0.12402 0.42168,0.27285 -0.0496,0.4961 0.59531,0.12402 v 0.19844 l -0.57051,0.99218 0.24805,0.32247 -0.0992,1.26503 H 436.502 l -1.5875,-6.10195 h 3.6959 l 0.32246,1.38906 1.68672,-0.64492 0.24805,-1.88515 q 0.5457,-0.0248 1.14102,-0.12403 0.59531,-0.0992 1.16582,-0.29765 0.5705,-0.22325 1.0914,-0.59532 0.54571,-0.37207 1.0418,-0.96738 z m -1.46348,12.12949 -1.6123,-1.46347 -1.0666,1.46347 -1.38907,-1.46347 -1.24023,1.46347 -1.21543,-1.46347 -1.83555,1.46347 1.0418,-2.53008 h 6.25078 z m -1.43867,-3.27422 0.0992,-0.84335 -0.27285,-0.34727 0.57051,-1.0666 -0.54571,-0.0992 0.0248,-0.19844 -0.86817,-0.17363 -0.32246,-0.69453 -1.83554,0.86816 0.49609,2.55488 z m -0.0744,-2.97656 -0.47129,-0.27285 0.37207,-0.22324 -0.22324,-0.4961 h -0.62012 l 0.32246,0.84336 z m -0.91778,1.16582 0.64492,0.57051 -1.41386,-0.14883 z" />
    <path
       inkscape:connector-curvature="0"
       id="path8180-3-74"
       style="font-style:normal;font-variant:normal;font-weight:normal;font-stretch:normal;font-size:50.79999924px;line-height:1.25;font-family:serif;-inkscape-font-specification:serif;letter-spacing:0px;word-spacing:0px;fill:#000000;fill-opacity:1;stroke:none;stroke-width:0.41033289"
       d="m 457.38751,449.85076 v 46.93046 h -31.30352 v -46.93046 z m -30.1625,45.78945 h 29.02148 v -44.64844 h -29.02148 z"
       sodipodi:nodetypes="cccccccccc" />
  </g>
</svg>
