<?xml version="1.0" encoding="UTF-8" standalone="no"?>
<!-- Created with Inkscape (http://www.inkscape.org/) -->

<svg
   xmlns:dc="http://purl.org/dc/elements/1.1/"
   xmlns:cc="http://creativecommons.org/ns#"
   xmlns:rdf="http://www.w3.org/1999/02/22-rdf-syntax-ns#"
   xmlns:svg="http://www.w3.org/2000/svg"
   xmlns="http://www.w3.org/2000/svg"
   xmlns:sodipodi="http://sodipodi.sourceforge.net/DTD/sodipodi-0.dtd"
   xmlns:inkscape="http://www.inkscape.org/namespaces/inkscape"
   width="31.303997mm"
   height="46.93047mm"
   viewBox="0 0 31.303997 46.93047"
   version="1.1"
   id="svg8"
   inkscape:version="0.92.1 r15371"
   sodipodi:docname="back.svg">
  <defs
     id="defs2" />
  <sodipodi:namedview
     id="base"
     pagecolor="#ffffff"
     bordercolor="#666666"
     borderopacity="1.0"
     inkscape:pageopacity="0.0"
     inkscape:pageshadow="2"
     inkscape:zoom="1.979899"
     inkscape:cx="12.683145"
     inkscape:cy="169.84163"
     inkscape:document-units="mm"
     inkscape:current-layer="layer1"
     showgrid="false"
     inkscape:window-width="1297"
     inkscape:window-height="991"
     inkscape:window-x="-8"
     inkscape:window-y="0"
     inkscape:window-maximized="0"
     fit-margin-top="0"
     fit-margin-left="0"
     fit-margin-right="0"
     fit-margin-bottom="0"
     inkscape:pagecheckerboard="true"
     showguides="false" />
  <metadata
     id="metadata5">
    <rdf:RDF>
      <cc:Work
         rdf:about="">
        <dc:format>image/svg+xml</dc:format>
        <dc:type
           rdf:resource="http://purl.org/dc/dcmitype/StillImage" />
        <dc:title></dc:title>
      </cc:Work>
    </rdf:RDF>
  </metadata>
  <g
     inkscape:label="Layer 1"
     inkscape:groupmode="layer"
     id="layer1"
     transform="translate(-156.88627,-564.32312)">
    <rect
       style="fill:#ffffff;fill-opacity:1;stroke:none;stroke-width:1;stroke-miterlimit:4;stroke-dasharray:none;stroke-opacity:1"
       id="rect8320-79-3"
       width="31.303518"
       height="46.93047"
       x="156.88628"
       y="564.32312" />
    <g
       aria-label="🂠"
       transform="scale(1.0000127,0.99998729)"
       style="font-style:normal;font-variant:normal;font-weight:normal;font-stretch:normal;font-size:50.80014038px;line-height:1.25;font-family:serif;-inkscape-font-specification:serif;font-variant-ligatures:normal;font-variant-caps:normal;font-variant-numeric:normal;font-feature-settings:normal;text-align:start;letter-spacing:0px;word-spacing:0px;writing-mode:lr-tb;text-anchor:start;fill:#000000;fill-opacity:1;stroke:none;stroke-width:0.26458335"
       id="text8981">
      <path
         d="m 188.18788,564.33032 v 46.9306 h -31.3036 v -46.9306 z M 158.0253,610.1199 h 29.02156 V 565.47134 H 158.0253 Z m 24.45749,-40.10929 v 35.57002 h -19.89342 v -35.57002 z m -18.7524,30.16258 2.20763,-4.01837 2.20762,4.01837 2.20762,-4.01837 2.20763,4.04318 2.15801,-4.04318 2.23243,4.04318 2.20762,-4.04318 2.18282,4.04318 v -8.28479 l -2.18282,4.06798 -2.20762,-4.06798 -2.23243,4.06798 -2.15801,-4.06798 -2.20763,4.06798 -2.20762,-4.09279 -2.20762,4.09279 -2.20763,-4.06798 z m 0,-16.56958 2.20763,-4.06798 2.20762,4.06798 2.20762,-4.06798 2.20763,4.09279 2.15801,-4.09279 2.23243,4.09279 2.20762,-4.09279 2.18282,4.09279 v -8.23518 l -2.18282,4.04317 -2.20762,-4.04317 -2.23243,4.04317 -2.15801,-4.04317 -2.20763,4.04317 -2.20762,-4.04317 -2.20762,4.04317 -2.20763,-4.04317 z m 0,20.836 h 17.61138 v -4.1672 l -2.18282,4.09278 -2.20762,-4.09278 -2.23243,4.09278 -2.15801,-4.09278 -2.20763,4.09278 -2.20762,-4.11759 -2.20762,4.11759 -2.20763,-4.11759 z m 0,-29.12078 2.20763,-4.09279 2.20762,4.09279 2.20762,-4.09279 2.20763,4.09279 2.15801,-4.09279 2.23243,4.09279 2.20762,-4.09279 2.18282,4.09279 v -4.1672 h -17.61138 z m 4.41525,8.3592 -2.18282,4.09278 2.18282,4.06798 2.18282,-4.09278 z m 8.80569,0.0248 -2.18282,4.04318 2.18282,4.06798 2.15801,-4.06798 z m -4.39044,0 -2.20763,4.04318 2.20763,4.06798 2.15801,-4.06798 z m -8.8305,8.13596 2.20763,-4.09278 -2.20763,-4.09279 z m 17.61138,-0.0248 v -8.11116 l -2.18282,4.04318 z"
         style="stroke-width:0.26458335"
         id="path9021"
         inkscape:connector-curvature="0" />
    </g>
  </g>
</svg>
