<?xml version="1.0" encoding="UTF-8" standalone="no"?>
<!-- Created with Inkscape (http://www.inkscape.org/) -->

<svg
   xmlns:dc="http://purl.org/dc/elements/1.1/"
   xmlns:cc="http://creativecommons.org/ns#"
   xmlns:rdf="http://www.w3.org/1999/02/22-rdf-syntax-ns#"
   xmlns:svg="http://www.w3.org/2000/svg"
   xmlns="http://www.w3.org/2000/svg"
   xmlns:sodipodi="http://sodipodi.sourceforge.net/DTD/sodipodi-0.dtd"
   xmlns:inkscape="http://www.inkscape.org/namespaces/inkscape"
   width="31.30352mm"
   height="46.930477mm"
   viewBox="0 0 31.30352 46.930477"
   version="1.1"
   id="svg8"
   inkscape:version="0.92.1 r15371"
   sodipodi:docname="k.svg">
  <defs
     id="defs2" />
  <sodipodi:namedview
     id="base"
     pagecolor="#ffffff"
     bordercolor="#666666"
     borderopacity="1.0"
     inkscape:pageopacity="0.0"
     inkscape:pageshadow="2"
     inkscape:zoom="0.7"
     inkscape:cx="-145.77827"
     inkscape:cy="-244.76469"
     inkscape:document-units="mm"
     inkscape:current-layer="layer1"
     showgrid="false"
     inkscape:window-width="1297"
     inkscape:window-height="991"
     inkscape:window-x="-8"
     inkscape:window-y="0"
     inkscape:window-maximized="0"
     fit-margin-top="0"
     fit-margin-left="0"
     fit-margin-right="0"
     fit-margin-bottom="0"
     inkscape:pagecheckerboard="true"
     showguides="false" />
  <metadata
     id="metadata5">
    <rdf:RDF>
      <cc:Work
         rdf:about="">
        <dc:format>image/svg+xml</dc:format>
        <dc:type
           rdf:resource="http://purl.org/dc/dcmitype/StillImage" />
        <dc:title></dc:title>
      </cc:Work>
    </rdf:RDF>
  </metadata>
  <g
     inkscape:label="Layer 1"
     inkscape:groupmode="layer"
     id="layer1"
     transform="translate(-392.74649,-322.85076)">
    <rect
       style="fill:#ffffff;fill-opacity:1;stroke:none;stroke-width:1;stroke-miterlimit:4;stroke-dasharray:none;stroke-opacity:1"
       id="rect8320-07"
       width="31.303518"
       height="46.93047"
       x="392.74649"
       y="322.85077" />
    <path
       inkscape:connector-curvature="0"
       id="path8178"
       style="font-style:normal;font-variant:normal;font-weight:normal;font-stretch:normal;font-size:50.79999924px;line-height:1.25;font-family:serif;-inkscape-font-specification:serif;letter-spacing:0px;word-spacing:0px;fill:#000000;fill-opacity:1;stroke:none;stroke-width:0.41033289"
       d="m 424.05001,322.85076 v 46.93047 h -31.30352 v -46.93047 z m -30.1625,45.78945 h 29.02148 v -44.64844 h -29.02148 z m 23.41562,-39.6875 v 34.72656 h -17.80976 v -34.72656 z m -16.74316,1.0666 v 32.59336 h 15.67656 v -32.59336 z m 1.0418,18.62832 q 0.0744,-1.31465 0.32246,-2.6541 0.22324,-1.14102 0.69453,-2.45566 0.49609,-1.31465 1.36426,-2.45567 0.5457,-0.66972 1.14101,-1.11621 0.62012,-0.44648 1.19063,-0.71933 0.5705,-0.27286 1.04179,-0.39688 0.47129,-0.12402 0.69453,-0.17363 -0.34726,-0.64492 -0.59531,-1.53789 -0.24805,-0.91778 -0.24805,-1.83555 v -1.71152 h 6.3004 l 1.53789,5.90351 h -2.00918 l -0.17364,-0.76894 q -0.32246,0.27285 -0.62011,0.47129 -0.27286,0.17363 -0.5209,0.37207 -0.24805,0.17363 -0.42168,0.42168 -0.17363,0.24804 -0.24805,0.64492 h -3.37344 q 0.0248,-0.0992 0.0744,-0.27285 0.0744,-0.17364 0.14883,-0.39688 0.0744,-0.22324 0.12402,-0.44648 0.0496,-0.24805 0.0496,-0.44649 -0.32246,0.0744 -0.76895,0.19844 -0.44648,0.12402 -0.96738,0.39688 -0.49609,0.24804 -1.0418,0.64492 -0.52089,0.39687 -1.01699,1.01699 -0.79375,0.99219 -1.24023,2.25723 -0.42168,1.24023 -0.64492,2.38125 -0.24805,1.28984 -0.34727,2.6789 z m 2.95175,-12.25351 h -2.18281 v -0.32246 q 0.29766,-0.27286 0.44649,-0.59532 0.14882,-0.32246 0.17363,-0.62011 -0.29766,0.24804 -0.79375,0.24804 -0.47129,0 -0.86817,-0.34726 -0.37207,-0.37207 -0.37207,-1.0418 0,-0.59531 0.27286,-1.0666 0.29765,-0.47129 0.69453,-0.86817 0.39687,-0.42167 0.81855,-0.76894 0.44649,-0.37207 0.71934,-0.66973 0.27285,0.29766 0.69453,0.66973 0.44648,0.34727 0.84336,0.74414 0.39687,0.39688 0.66972,0.89297 0.29766,0.47129 0.29766,1.0666 0,0.66973 -0.39687,1.0418 -0.37207,0.34726 -0.84336,0.34726 -0.4961,0 -0.79375,-0.24804 0.0248,0.29765 0.17363,0.62011 0.14883,0.32246 0.44648,0.59532 z m 7.51582,19.81894 h 2.18282 v 0.29766 q -0.29766,0.27285 -0.44649,0.62012 -0.14883,0.32246 -0.17363,0.59531 0.29766,-0.22324 0.79375,-0.22324 0.47129,0 0.84336,0.34726 0.39687,0.34727 0.39687,1.0418 0,0.57051 -0.29765,1.0666 -0.27285,0.47129 -0.66973,0.89297 -0.39687,0.39687 -0.84336,0.74414 -0.42168,0.34726 -0.69453,0.66973 -0.29766,-0.32247 -0.71934,-0.66973 -0.42168,-0.34727 -0.81855,-0.74414 -0.39688,-0.39688 -0.69453,-0.89297 -0.27285,-0.49609 -0.27285,-1.0666 0,-0.69453 0.37207,-1.0418 0.39687,-0.34726 0.86816,-0.34726 0.49609,0 0.79375,0.22324 -0.0248,-0.27285 -0.17363,-0.59531 -0.14883,-0.34727 -0.44649,-0.62012 z m -4.56406,-20.83594 q 0,1.14102 0.47129,2.18282 0.17363,-0.12403 0.5457,-0.29766 0.37207,-0.19844 0.99219,-0.19844 0.79375,0 1.33945,0.19844 0.54571,0.19844 0.66973,0.27285 0.29766,-0.19844 0.57051,-0.5209 0.29765,-0.32246 0.39687,-0.94257 l -0.34726,-2.25723 h -4.63848 z m -1.33945,-4.71289 1.5875,1.48829 1.0914,-1.48829 1.38907,1.48829 1.24023,-1.48829 1.21543,1.48829 1.83555,-1.48829 -1.0418,2.53008 h -6.27559 z m -8.70645,3.91914 h -1.48828 v -0.19843 q 0.22324,-0.19844 0.29766,-0.42168 0.0992,-0.22324 0.12402,-0.39688 -0.17363,0.17364 -0.5209,0.17364 -0.32246,0 -0.59531,-0.24805 -0.24805,-0.24805 -0.24805,-0.71934 0,-0.37207 0.17364,-0.69453 0.19843,-0.32246 0.47129,-0.59531 0.27285,-0.27285 0.5457,-0.4961 0.29765,-0.24804 0.49609,-0.47128 0.19844,0.22324 0.47129,0.47128 0.29766,0.22325 0.57051,0.4961 0.27285,0.27285 0.44648,0.59531 0.19844,0.29766 0.19844,0.69453 0,0.47129 -0.27285,0.71934 -0.24805,0.24805 -0.57051,0.24805 -0.34726,0 -0.5457,-0.17364 0.0496,0.17364 0.12402,0.39688 0.0992,0.22324 0.32246,0.42168 z m 21.82813,23.73809 h 1.48828 v 0.17363 q -0.22324,0.19844 -0.29766,0.42168 -0.0744,0.22324 -0.12402,0.39688 0.19844,-0.14883 0.5209,-0.14883 0.32246,0 0.57051,0.24805 0.27285,0.22324 0.27285,0.69453 0,0.37207 -0.19844,0.71933 -0.17363,0.32246 -0.44648,0.59532 -0.27286,0.27285 -0.57051,0.49609 -0.27285,0.22324 -0.47129,0.44648 -0.17363,-0.22324 -0.47129,-0.44648 -0.27285,-0.22324 -0.57051,-0.49609 -0.27285,-0.27286 -0.47129,-0.59532 -0.17363,-0.32246 -0.17363,-0.71933 0,-0.47129 0.24805,-0.69453 0.27285,-0.24805 0.59531,-0.24805 0.37207,0 0.5457,0.14883 -0.0248,-0.17364 -0.12402,-0.39688 -0.0992,-0.22324 -0.32246,-0.42168 z m -0.99219,5.35781 h 0.74414 l 1.90996,2.25723 v -2.25723 h 0.5457 v 4.58887 h -0.5457 v -2.15801 l -1.83555,2.15801 h -0.66972 l 1.95957,-2.20762 z m -19.84375,-34.47851 h -0.74414 l -1.88516,-2.25723 v 2.25723 h -0.5705 v -4.58887 h 0.5705 v 2.15801 l 1.81075,-2.15801 h 0.69453 l -1.95957,2.20762 z m 9.97148,9.0041 q 0.14883,0.0496 0.32247,0.12402 0.17363,0.0496 0.34726,0.0992 0.19844,0.0248 0.37207,0.0248 0.19844,0 0.42168,-0.0248 0.24805,-0.0496 0.44649,-0.0992 0.24804,-0.0744 0.49609,-0.14883 v -0.37207 q -0.12402,-0.0248 -0.32246,-0.0744 -0.17363,-0.0496 -0.42168,-0.0744 -0.22324,-0.0248 -0.57051,-0.0248 -0.22324,0 -0.42168,0.0248 -0.19844,0.0248 -0.34726,0.0744 -0.19844,0.0496 -0.32247,0.0744 z m 0.0496,-3.32383 q 0.32246,0 0.54571,0.0992 0.22324,0.0992 0.22324,0.24805 0,0.14882 -0.22324,0.24804 -0.22325,0.0992 -0.54571,0.0992 -0.29765,0 -0.52089,-0.0992 -0.19844,-0.0992 -0.19844,-0.24804 0,-0.14883 0.19844,-0.24805 0.22324,-0.0992 0.52089,-0.0992 z m 2.6293,0 q 0.32246,0 0.5209,0.0992 0.22324,0.0992 0.22324,0.24805 0,0.14882 -0.22324,0.24804 -0.19844,0.0992 -0.5209,0.0992 -0.32246,0 -0.5457,-0.0992 -0.19844,-0.0992 -0.19844,-0.24804 0,-0.14883 0.19844,-0.24805 0.22324,-0.0992 0.5457,-0.0992 z m -1.5875,0.42168 h 0.22324 l -0.17363,1.24023 h 0.39688 v 0.24805 h -0.71934 z m -0.76894,2.50527 h 1.6371 v 0.27286 h -1.6371 z m 6.27558,6.15157 q -0.0744,1.31464 -0.32246,2.62929 -0.22324,1.14102 -0.71934,2.48047 -0.47128,1.31465 -1.33945,2.43086 -0.5209,0.66973 -1.14101,1.11621 -0.62012,0.44649 -1.19063,0.71934 -0.57051,0.27285 -1.0418,0.39687 -0.47129,0.12403 -0.69453,0.17364 0.34727,0.64492 0.59532,1.56269 0.24804,0.89297 0.24804,1.81074 v 1.73633 h -6.30039 l -1.53789,-5.92832 h 2.00918 l 0.17363,0.76895 q 0.32246,-0.27286 0.62012,-0.44649 0.29766,-0.17363 0.5209,-0.34726 0.22324,-0.19844 0.39687,-0.44649 0.19844,-0.24804 0.27286,-0.66972 h 3.37343 q -0.0248,0.0992 -0.0992,0.29765 -0.0496,0.17363 -0.12402,0.39688 -0.0744,0.22324 -0.12402,0.44648 -0.0496,0.22324 -0.0496,0.42168 0.32246,-0.0744 0.76894,-0.19844 0.44649,-0.12402 0.94258,-0.37207 0.5209,-0.24804 1.0418,-0.64492 0.5457,-0.42168 1.0418,-1.01699 0.76894,-0.99219 1.21542,-2.23242 0.44649,-1.26504 0.66973,-2.40606 0.27285,-1.31465 0.34727,-2.6789 z m -5.90351,13.2457 q 0,-1.11621 -0.47129,-2.18281 -0.17364,0.12402 -0.54571,0.32246 -0.37207,0.17363 -0.99218,0.17363 -0.79375,0 -1.33946,-0.19844 -0.5457,-0.19843 -0.66972,-0.27285 -0.29766,0.19844 -0.57051,0.5457 -0.27285,0.32247 -0.39688,0.91778 l 0.34727,2.25722 h 4.63848 z m 1.33945,4.71289 -1.5875,-1.46348 -1.09141,1.46348 -1.38906,-1.46348 -1.24023,1.46348 -1.19063,-1.46348 -1.86035,1.46348 1.0418,-2.53008 h 6.27558 z m -2.25723,-7.51582 q -0.14883,-0.0744 -0.32246,-0.14883 -0.17363,-0.0248 -0.37207,-0.0744 -0.17363,-0.0496 -0.34726,-0.0496 -0.22325,0 -0.44649,0.0744 -0.22324,0.0496 -0.42168,0.0744 -0.22324,0.0744 -0.49609,0.12402 v 0.37207 q 0.12402,0.0496 0.29765,0.0992 0.17364,0.0496 0.42168,0.0744 0.24805,0.0248 0.59532,0.0248 0.22324,0 0.39687,-0.0248 0.19844,-0.0248 0.37207,-0.0744 0.17363,-0.0496 0.32246,-0.0992 z m -0.0496,3.29902 q -0.32246,0 -0.5457,-0.0992 -0.22324,-0.0992 -0.22324,-0.24804 0,-0.14883 0.22324,-0.22324 0.22324,-0.0992 0.5457,-0.0992 0.32246,0 0.5209,0.0992 0.22324,0.0744 0.22324,0.22324 0,0.14883 -0.22324,0.24804 -0.19844,0.0992 -0.5209,0.0992 z m -2.62929,0 q -0.29766,0 -0.5209,-0.0992 -0.22324,-0.0992 -0.22324,-0.24804 0,-0.14883 0.22324,-0.22324 0.22324,-0.0992 0.5209,-0.0992 0.32246,0 0.52089,0.0992 0.22325,0.0744 0.22325,0.22324 0,0.14883 -0.22325,0.24804 -0.19843,0.0992 -0.52089,0.0992 z m 1.5875,-0.42168 h -0.22325 l 0.17364,-1.21543 h -0.39688 v -0.24804 h 0.71934 z m 0.79375,-2.50527 h -1.66192 v -0.24805 h 1.66192 z" />
  </g>
</svg>
