<?xml version="1.0" encoding="UTF-8" standalone="no"?>
<!-- Created with Inkscape (http://www.inkscape.org/) -->

<svg
   xmlns:dc="http://purl.org/dc/elements/1.1/"
   xmlns:cc="http://creativecommons.org/ns#"
   xmlns:rdf="http://www.w3.org/1999/02/22-rdf-syntax-ns#"
   xmlns:svg="http://www.w3.org/2000/svg"
   xmlns="http://www.w3.org/2000/svg"
   xmlns:sodipodi="http://sodipodi.sourceforge.net/DTD/sodipodi-0.dtd"
   xmlns:inkscape="http://www.inkscape.org/namespaces/inkscape"
   width="31.30352mm"
   height="46.930489mm"
   viewBox="0 0 31.30352 46.930489"
   version="1.1"
   id="svg8"
   inkscape:version="0.92.1 r15371"
   sodipodi:docname="3.svg">
  <defs
     id="defs2" />
  <sodipodi:namedview
     id="base"
     pagecolor="#ffffff"
     bordercolor="#666666"
     borderopacity="1.0"
     inkscape:pageopacity="0.0"
     inkscape:pageshadow="2"
     inkscape:zoom="0.7"
     inkscape:cx="491.49026"
     inkscape:cy="303.80665"
     inkscape:document-units="mm"
     inkscape:current-layer="layer1"
     showgrid="false"
     inkscape:window-width="1297"
     inkscape:window-height="991"
     inkscape:window-x="-8"
     inkscape:window-y="0"
     inkscape:window-maximized="0"
     fit-margin-top="0"
     fit-margin-left="0"
     fit-margin-right="0"
     fit-margin-bottom="0"
     inkscape:pagecheckerboard="true"
     showguides="false" />
  <metadata
     id="metadata5">
    <rdf:RDF>
      <cc:Work
         rdf:about="">
        <dc:format>image/svg+xml</dc:format>
        <dc:type
           rdf:resource="http://purl.org/dc/dcmitype/StillImage" />
        <dc:title></dc:title>
      </cc:Work>
    </rdf:RDF>
  </metadata>
  <g
     inkscape:label="Layer 1"
     inkscape:groupmode="layer"
     id="layer1"
     transform="translate(-92.709,-513.35075)">
    <rect
       style="fill:#ffffff;fill-opacity:1;stroke:none;stroke-width:1;stroke-miterlimit:4;stroke-dasharray:none;stroke-opacity:1"
       id="rect8320-648"
       width="31.303518"
       height="46.93047"
       x="92.709"
       y="513.35077" />
    <path
       inkscape:connector-curvature="0"
       id="path8240"
       style="font-style:normal;font-variant:normal;font-weight:normal;font-stretch:normal;font-size:50.79999924px;line-height:1.25;font-family:serif;-inkscape-font-specification:serif;letter-spacing:0px;word-spacing:0px;fill:#000000;fill-opacity:1;stroke:none;stroke-width:0.41033289"
       d="m 124.01252,513.35075 v 46.93047 H 92.709002 V 513.35075 Z M 93.850017,559.14021 H 122.8715 V 514.49177 H 93.850017 Z m 1.5875,-39.36504 v -0.57051 q 0.396875,0.39688 0.892969,0.39688 0.42168,0 0.644922,-0.24805 0.248047,-0.24805 0.248047,-0.69453 0,-0.89297 -1.066602,-0.89297 h -0.322461 v -0.44649 h 0.297656 q 0.942578,0 0.942578,-0.91777 0,-0.79375 -0.719335,-0.79375 -0.396875,0 -0.768946,0.32246 v -0.5209 q 0.347266,-0.27285 0.892969,-0.27285 0.471289,0 0.79375,0.34727 0.322461,0.32246 0.322461,0.79375 0,0.94258 -0.843359,1.21543 v 0.0248 q 0.421679,0.0496 0.694531,0.37207 0.297656,0.29766 0.297656,0.74414 0,0.62012 -0.42168,1.017 -0.396875,0.39687 -0.992187,0.39687 -0.520899,0 -0.892969,-0.27285 z m 25.821683,34.28008 v 0.5705 q -0.42168,-0.37207 -0.89297,-0.37207 -0.42168,0 -0.66973,0.24805 -0.22324,0.24805 -0.22324,0.66973 0,0.89297 1.0666,0.89297 h 0.32246 v 0.47128 h -0.29765 q -0.94258,0 -0.94258,0.89297 0,0.81856 0.71933,0.81856 0.39688,0 0.76895,-0.32246 v 0.49609 q -0.34727,0.27285 -0.86817,0.27285 -0.49609,0 -0.81855,-0.32246 -0.32246,-0.32246 -0.32246,-0.81855 0,-0.91778 0.84336,-1.21543 v -0.0248 q -0.42168,-0.0248 -0.69453,-0.34726 -0.27285,-0.32246 -0.27285,-0.76895 0,-0.59531 0.39687,-0.99219 0.39688,-0.42168 0.99219,-0.42168 0.5209,0 0.89297,0.27286 z m -14.18828,-29.56719 v -0.37207 q 0.29765,-0.22324 0.52089,-0.66973 0.22325,-0.44648 0.22325,-1.0914 -0.19844,0.12402 -0.39688,0.19843 -0.17363,0.0744 -0.47129,0.0744 -0.62012,0 -1.0666,-0.39688 -0.44648,-0.42168 -0.44648,-1.11621 0,-0.62012 0.39687,-1.0418 0.42168,-0.44648 1.09141,-0.47128 -0.0496,-0.12403 -0.0744,-0.24805 0,-0.12402 0,-0.24805 0,-0.62012 0.42168,-1.0666 0.42168,-0.44648 1.09141,-0.44648 0.66973,0 1.0666,0.44648 0.42168,0.44648 0.42168,1.0666 0,0.12403 -0.0248,0.24805 0,0.12402 -0.0496,0.24805 0.66972,0.0248 1.0666,0.47128 0.42168,0.42168 0.42168,1.0418 0,0.69453 -0.44649,1.11621 -0.42168,0.39688 -1.0666,0.39688 -0.29765,0 -0.49609,-0.0744 -0.17363,-0.0744 -0.37207,-0.19843 0,0.64492 0.22324,1.0914 0.22324,0.44649 0.5209,0.66973 v 0.37207 z m -11.137309,0.59531 v -0.19844 q 0.173633,-0.14882 0.297656,-0.39687 0.124024,-0.24805 0.124024,-0.64492 -0.198438,0.14883 -0.496094,0.14883 -0.372071,0 -0.644922,-0.22325 -0.248047,-0.22324 -0.248047,-0.64492 0,-0.37207 0.248047,-0.62012 0.248047,-0.24804 0.620117,-0.27285 -0.04961,-0.17363 -0.04961,-0.29765 0,-0.37207 0.248047,-0.62012 0.248046,-0.27285 0.644921,-0.27285 0.396875,0 0.644922,0.27285 0.248047,0.24805 0.248047,0.62012 0,0.12402 -0.04961,0.29765 0.396875,0.0248 0.644922,0.27285 0.248047,0.24805 0.248047,0.62012 0,0.42168 -0.272852,0.64492 -0.248047,0.22325 -0.644922,0.22325 -0.297656,0 -0.496094,-0.14883 0,0.39687 0.124024,0.66972 0.148828,0.24805 0.322461,0.37207 v 0.19844 z m 13.716989,24.30859 v 0.37208 q -0.29765,0.22324 -0.5209,0.66972 -0.22324,0.44649 -0.22324,1.09141 0.19844,-0.12403 0.37207,-0.19844 0.19844,-0.0744 0.4961,-0.0744 0.62011,0 1.0666,0.42168 0.44648,0.39687 0.44648,1.0914 0,0.62012 -0.42168,1.0666 -0.39687,0.42168 -1.0666,0.44649 0.0248,0.12402 0.0496,0.24805 0.0248,0.12402 0.0248,0.24804 0,0.64492 -0.42168,1.0666 -0.42168,0.44649 -1.09141,0.44649 -0.66973,0 -1.09141,-0.44649 -0.39687,-0.42168 -0.39687,-1.0666 0,-0.12402 0,-0.24804 0.0248,-0.12403 0.0744,-0.24805 -0.66972,-0.0248 -1.0914,-0.44649 -0.39688,-0.44648 -0.39688,-1.0666 0,-0.69453 0.42168,-1.0914 0.44648,-0.42168 1.09141,-0.42168 0.29765,0 0.47129,0.0744 0.19843,0.0744 0.39687,0.19844 0,-0.64492 -0.22324,-1.09141 -0.22324,-0.44648 -0.5209,-0.66972 v -0.37208 z m 11.0877,-0.59531 v 0.19844 q -0.17363,0.14883 -0.29766,0.42168 -0.12402,0.24805 -0.12402,0.62012 0.19844,-0.14883 0.49609,-0.14883 0.39688,0 0.64492,0.24805 0.24805,0.22324 0.24805,0.64492 0,0.34726 -0.24805,0.62011 -0.24804,0.24805 -0.62011,0.24805 0.0496,0.17363 0.0496,0.29766 0,0.37207 -0.24805,0.64492 -0.24805,0.24805 -0.64492,0.24805 -0.39688,0 -0.64492,-0.24805 -0.24805,-0.27285 -0.24805,-0.64492 0,-0.12403 0.0496,-0.29766 -0.39688,0 -0.64492,-0.24805 -0.24805,-0.27285 -0.24805,-0.62011 0,-0.42168 0.27285,-0.64492 0.27285,-0.24805 0.64492,-0.24805 0.29766,0 0.4961,0.14883 0,-0.37207 -0.14883,-0.64493 -0.12403,-0.27285 -0.27285,-0.39687 v -0.19844 z m -13.66738,-8.25996 v -0.37207 q 0.29765,-0.22324 0.52089,-0.66973 0.22325,-0.44648 0.22325,-1.0914 -0.19844,0.12402 -0.39688,0.19844 -0.17363,0.0744 -0.47129,0.0744 -0.62012,0 -1.0666,-0.39687 -0.44648,-0.42168 -0.44648,-1.11622 0,-0.62011 0.39687,-1.04179 0.42168,-0.44649 1.09141,-0.47129 -0.0496,-0.12403 -0.0744,-0.24805 0,-0.12402 0,-0.24805 0,-0.64492 0.42168,-1.0666 0.42168,-0.44648 1.09141,-0.44648 0.66973,0 1.0666,0.44648 0.42168,0.42168 0.42168,1.0666 0,0.12403 -0.0248,0.24805 0,0.12402 -0.0496,0.24805 0.66972,0.0248 1.0666,0.47129 0.42168,0.42168 0.42168,1.04179 0,0.69454 -0.44649,1.11622 -0.42168,0.39687 -1.0666,0.39687 -0.29765,0 -0.49609,-0.0744 -0.17363,-0.0744 -0.37207,-0.19844 0,0.64492 0.22324,1.0914 0.22324,0.44649 0.5209,0.66973 v 0.37207 z" />
  </g>
</svg>
