<?xml version="1.0" encoding="UTF-8" standalone="no"?>
<!-- Created with Inkscape (http://www.inkscape.org/) -->

<svg
   xmlns:dc="http://purl.org/dc/elements/1.1/"
   xmlns:cc="http://creativecommons.org/ns#"
   xmlns:rdf="http://www.w3.org/1999/02/22-rdf-syntax-ns#"
   xmlns:svg="http://www.w3.org/2000/svg"
   xmlns="http://www.w3.org/2000/svg"
   xmlns:sodipodi="http://sodipodi.sourceforge.net/DTD/sodipodi-0.dtd"
   xmlns:inkscape="http://www.inkscape.org/namespaces/inkscape"
   width="31.30352mm"
   height="46.930489mm"
   viewBox="0 0 31.30352 46.930489"
   version="1.1"
   id="svg8"
   inkscape:version="0.92.1 r15371"
   sodipodi:docname="4.svg">
  <defs
     id="defs2" />
  <sodipodi:namedview
     id="base"
     pagecolor="#ffffff"
     bordercolor="#666666"
     borderopacity="1.0"
     inkscape:pageopacity="0.0"
     inkscape:pageshadow="2"
     inkscape:zoom="0.7"
     inkscape:cx="365.49026"
     inkscape:cy="303.80665"
     inkscape:document-units="mm"
     inkscape:current-layer="layer1"
     showgrid="false"
     inkscape:window-width="1297"
     inkscape:window-height="991"
     inkscape:window-x="-8"
     inkscape:window-y="0"
     inkscape:window-maximized="0"
     fit-margin-top="0"
     fit-margin-left="0"
     fit-margin-right="0"
     fit-margin-bottom="0"
     inkscape:pagecheckerboard="true"
     showguides="false" />
  <metadata
     id="metadata5">
    <rdf:RDF>
      <cc:Work
         rdf:about="">
        <dc:format>image/svg+xml</dc:format>
        <dc:type
           rdf:resource="http://purl.org/dc/dcmitype/StillImage" />
        <dc:title></dc:title>
      </cc:Work>
    </rdf:RDF>
  </metadata>
  <g
     inkscape:label="Layer 1"
     inkscape:groupmode="layer"
     id="layer1"
     transform="translate(-126.0465,-513.35075)">
    <rect
       style="fill:#ffffff;fill-opacity:1;stroke:none;stroke-width:1;stroke-miterlimit:4;stroke-dasharray:none;stroke-opacity:1"
       id="rect8320-79"
       width="31.303518"
       height="46.93047"
       x="126.0465"
       y="513.35077" />
    <path
       inkscape:connector-curvature="0"
       id="path8242"
       style="font-style:normal;font-variant:normal;font-weight:normal;font-stretch:normal;font-size:50.79999924px;line-height:1.25;font-family:serif;-inkscape-font-specification:serif;letter-spacing:0px;word-spacing:0px;fill:#000000;fill-opacity:1;stroke:none;stroke-width:0.41033289"
       d="m 157.35001,513.35075 v 46.93047 H 126.0465 v -46.93047 z m -30.1625,45.78946 h 29.02148 v -44.64844 h -29.02148 z m 3.99356,-40.40684 h -0.5209 v 1.24024 h -0.47129 v -1.24024 h -1.86035 v -0.42168 l 1.71152,-3.05097 h 0.62012 v 2.95175 h 0.5209 z m -0.99219,-0.5209 v -2.40605 l -1.36426,2.40605 z m 22.00176,36.95899 h 0.52089 v -1.26504 h 0.47129 v 1.26504 h 1.86035 v 0.42168 l -1.71152,3.02617 h -0.62012 v -2.95176 h -0.52089 z m 0.99218,0.49609 v 2.40606 l 1.36426,-2.40606 z m -6.99492,-31.17949 v -0.37207 q 0.29766,-0.22324 0.5209,-0.66973 0.22324,-0.44648 0.22324,-1.0914 -0.19844,0.12402 -0.39687,0.19843 -0.17364,0.0744 -0.47129,0.0744 -0.64492,0 -1.09141,-0.39688 -0.42168,-0.42168 -0.42168,-1.11621 0,-0.62012 0.39688,-1.0418 0.42168,-0.44648 1.0914,-0.47128 -0.0496,-0.12403 -0.0744,-0.24805 0,-0.12402 0,-0.24805 0,-0.62012 0.42168,-1.0666 0.42168,-0.44648 1.09141,-0.44648 0.66972,0 1.0666,0.44648 0.42168,0.44648 0.42168,1.0666 0,0.12403 -0.0248,0.24805 0,0.12402 -0.0496,0.24805 0.66973,0.0248 1.0666,0.47128 0.42168,0.42168 0.42168,1.0418 0,0.69453 -0.44648,1.11621 -0.44649,0.39688 -1.0666,0.39688 -0.29766,0 -0.4961,-0.0744 -0.17363,-0.0744 -0.37207,-0.19843 0,0.64492 0.22325,1.0914 0.22324,0.44649 0.52089,0.66973 v 0.37207 z m -11.55898,0 v -0.37207 q 0.29765,-0.22324 0.5209,-0.66973 0.22324,-0.44648 0.22324,-1.0914 -0.19844,0.12402 -0.39688,0.19843 -0.17363,0.0744 -0.47129,0.0744 -0.62011,0 -1.0666,-0.39688 -0.44648,-0.42168 -0.44648,-1.11621 0,-0.62012 0.39687,-1.0418 0.42168,-0.44648 1.09141,-0.47128 -0.0248,-0.12403 -0.0496,-0.24805 -0.0248,-0.12402 -0.0248,-0.24805 0,-0.62012 0.42168,-1.0666 0.42168,-0.44648 1.09141,-0.44648 0.66973,0 1.0666,0.44648 0.42168,0.44648 0.42168,1.0666 0,0.12403 -0.0248,0.24805 0,0.12402 -0.0496,0.24805 0.66972,0.0248 1.0666,0.47128 0.42168,0.42168 0.42168,1.0418 0,0.69453 -0.44649,1.11621 -0.42167,0.39688 -1.0666,0.39688 -0.29765,0 -0.49609,-0.0744 -0.17363,-0.0744 -0.37207,-0.19843 0,0.64492 0.22324,1.0914 0.22324,0.44649 0.5209,0.66973 v 0.37207 z m -5.35782,0.59531 v -0.19844 q 0.17364,-0.14882 0.29766,-0.39687 0.12402,-0.24805 0.12402,-0.64492 -0.19843,0.14883 -0.49609,0.14883 -0.37207,0 -0.64492,-0.22325 -0.24805,-0.22324 -0.24805,-0.64492 0,-0.37207 0.24805,-0.62012 0.24805,-0.24804 0.62012,-0.27285 -0.0496,-0.17363 -0.0496,-0.29765 0,-0.37207 0.24804,-0.62012 0.24805,-0.27285 0.64493,-0.27285 0.39687,0 0.64492,0.27285 0.24804,0.24805 0.24804,0.62012 0,0.12402 -0.0496,0.29765 0.39688,0.0248 0.64493,0.27285 0.24804,0.24805 0.24804,0.62012 0,0.42168 -0.27285,0.64492 -0.24804,0.22325 -0.64492,0.22325 -0.29766,0 -0.49609,-0.14883 0,0.39687 0.12402,0.66972 0.14883,0.24805 0.32246,0.37207 v 0.19844 z m 7.8879,24.30859 v 0.37208 q -0.29766,0.22324 -0.5209,0.66972 -0.22325,0.44649 -0.22325,1.09141 0.19844,-0.12403 0.37207,-0.19844 0.19844,-0.0744 0.4961,-0.0744 0.64492,0 1.0914,0.42168 0.44649,0.39687 0.44649,1.0914 0,0.62012 -0.42168,1.0666 -0.42168,0.42168 -1.09141,0.44649 0.0496,0.12402 0.0744,0.24805 0.0248,0.12402 0.0248,0.24804 0,0.64492 -0.42168,1.0666 -0.42168,0.44649 -1.11621,0.44649 -0.66973,0 -1.0914,-0.44649 -0.39688,-0.42168 -0.39688,-1.0666 0,-0.12402 0.0248,-0.24804 0.0248,-0.12403 0.0496,-0.24805 -0.66972,-0.0248 -1.0914,-0.44649 -0.39688,-0.44648 -0.39688,-1.0666 0,-0.69453 0.44649,-1.0914 0.44648,-0.42168 1.0666,-0.42168 0.29766,0 0.47129,0.0744 0.19844,0.0744 0.39687,0.19844 0,-0.64492 -0.22324,-1.09141 -0.22324,-0.44648 -0.5209,-0.66972 v -0.37208 z m 11.55898,0 v 0.37208 q -0.29766,0.22324 -0.5209,0.66972 -0.22324,0.44649 -0.22324,1.09141 0.19844,-0.12403 0.37207,-0.19844 0.19844,-0.0744 0.49609,-0.0744 0.64492,0 1.0666,0.42168 0.44649,0.39687 0.44649,1.0914 0,0.62012 -0.42168,1.0666 -0.39688,0.42168 -1.0666,0.44649 0.0496,0.12402 0.0496,0.24805 0.0248,0.12402 0.0248,0.24804 0,0.64492 -0.42168,1.0666 -0.42168,0.44649 -1.0914,0.44649 -0.66973,0 -1.09141,-0.44649 -0.39688,-0.42168 -0.39688,-1.0666 0,-0.12402 0.0248,-0.24804 0.0248,-0.12403 0.0496,-0.24805 -0.66973,-0.0248 -1.09141,-0.44649 -0.39687,-0.44648 -0.39687,-1.0666 0,-0.69453 0.44648,-1.0914 0.44649,-0.42168 1.0666,-0.42168 0.29766,0 0.47129,0.0744 0.19844,0.0744 0.39688,0.19844 0,-0.64492 -0.22324,-1.09141 -0.22325,-0.44648 -0.5209,-0.66972 v -0.37208 z m 5.35781,-0.59531 v 0.19844 q -0.17363,0.14883 -0.29765,0.42168 -0.12403,0.24805 -0.12403,0.62012 0.19844,-0.14883 0.4961,-0.14883 0.39687,0 0.64492,0.24805 0.24804,0.22324 0.24804,0.64492 0,0.34726 -0.24804,0.62011 -0.24805,0.24805 -0.62012,0.24805 0.0496,0.17363 0.0496,0.29766 0,0.37207 -0.24805,0.64492 -0.24804,0.24805 -0.64492,0.24805 -0.39687,0 -0.64492,-0.24805 -0.24805,-0.27285 -0.24805,-0.64492 0,-0.12403 0.0496,-0.29766 -0.39687,0 -0.64492,-0.24805 -0.24805,-0.27285 -0.24805,-0.62011 0,-0.42168 0.27285,-0.64492 0.27286,-0.24805 0.64493,-0.24805 0.29765,0 0.49609,0.14883 0,-0.37207 -0.14883,-0.64493 -0.12402,-0.27285 -0.27285,-0.39687 v -0.19844 z" />
  </g>
</svg>
