<?xml version="1.0" encoding="UTF-8" standalone="no"?>
<!-- Created with Inkscape (http://www.inkscape.org/) -->

<svg
   xmlns:dc="http://purl.org/dc/elements/1.1/"
   xmlns:cc="http://creativecommons.org/ns#"
   xmlns:rdf="http://www.w3.org/1999/02/22-rdf-syntax-ns#"
   xmlns:svg="http://www.w3.org/2000/svg"
   xmlns="http://www.w3.org/2000/svg"
   xmlns:sodipodi="http://sodipodi.sourceforge.net/DTD/sodipodi-0.dtd"
   xmlns:inkscape="http://www.inkscape.org/namespaces/inkscape"
   width="31.303518mm"
   height="46.930489mm"
   viewBox="0 0 31.303518 46.930489"
   version="1.1"
   id="svg8"
   inkscape:version="0.92.1 r15371"
   sodipodi:docname="j.svg">
  <defs
     id="defs2" />
  <sodipodi:namedview
     id="base"
     pagecolor="#ffffff"
     bordercolor="#666666"
     borderopacity="1.0"
     inkscape:pageopacity="0.0"
     inkscape:pageshadow="2"
     inkscape:zoom="0.7"
     inkscape:cx="180.09009"
     inkscape:cy="303.80665"
     inkscape:document-units="mm"
     inkscape:current-layer="layer1"
     showgrid="false"
     inkscape:window-width="1297"
     inkscape:window-height="991"
     inkscape:window-x="-8"
     inkscape:window-y="0"
     inkscape:window-maximized="0"
     fit-margin-top="0"
     fit-margin-left="0"
     fit-margin-right="0"
     fit-margin-bottom="0"
     inkscape:pagecheckerboard="true"
     showguides="false" />
  <metadata
     id="metadata5">
    <rdf:RDF>
      <cc:Work
         rdf:about="">
        <dc:format>image/svg+xml</dc:format>
        <dc:type
           rdf:resource="http://purl.org/dc/dcmitype/StillImage" />
        <dc:title></dc:title>
      </cc:Work>
    </rdf:RDF>
  </metadata>
  <g
     inkscape:label="Layer 1"
     inkscape:groupmode="layer"
     id="layer1"
     transform="translate(-359.40897,-513.35075)">
    <rect
       style="fill:#ffffff;fill-opacity:1;stroke:none;stroke-width:1;stroke-miterlimit:4;stroke-dasharray:none;stroke-opacity:1"
       id="rect8320-895"
       width="31.303518"
       height="46.93047"
       x="359.40897"
       y="513.35077" />
    <path
       inkscape:connector-curvature="0"
       id="path8256"
       style="font-style:normal;font-variant:normal;font-weight:normal;font-stretch:normal;font-size:50.79999924px;line-height:1.25;font-family:serif;-inkscape-font-specification:serif;letter-spacing:0px;word-spacing:0px;fill:#000000;fill-opacity:1;stroke:none;stroke-width:0.41033289"
       d="m 390.71248,513.35075 v 46.93047 h -31.30351 v -46.93047 z m -30.1625,45.78946 h 29.02149 v -44.64844 h -29.02149 z m 23.41563,-39.6875 v 34.72656 h -17.80977 v -34.72656 z m -16.74317,1.0666 v 32.59336 h 15.67657 v -32.59336 z m 1.0418,18.62832 q 0.0744,-1.31465 0.32246,-2.6541 0.22324,-1.14102 0.69453,-2.45567 0.4961,-1.31464 1.36426,-2.45566 0.5457,-0.66973 1.16582,-1.11621 0.64492,-0.44649 1.26504,-0.71934 0.62012,-0.27285 1.11621,-0.39687 0.5209,-0.12403 0.74414,-0.17364 -0.49609,-0.62011 -0.79375,-1.53789 -0.27285,-0.91777 -0.27285,-1.83554 v -1.71153 h 6.30039 l 1.53789,5.90352 h -2.00918 l -0.27285,-1.81074 q -0.49609,0.69453 -1.28984,1.26504 -0.76895,0.5457 -1.88516,0.5457 -0.5457,0 -0.99219,-0.47129 -0.27285,0.0496 -0.79375,0.17363 -0.49609,0.0992 -1.11621,0.34727 -0.62012,0.24805 -1.26504,0.69453 -0.62011,0.42168 -1.14101,1.09141 -0.79375,0.99218 -1.24024,2.25722 -0.42168,1.24024 -0.64492,2.38125 -0.24805,1.28985 -0.34726,2.67891 z m 5.90352,-13.27051 q 0,0.62012 0.17363,1.31465 0.17363,0.66973 0.47129,1.24023 0.29765,0.54571 0.66973,0.89297 0.37207,0.34727 0.81855,0.34727 0.57051,0 1.01699,-0.14883 0.47129,-0.17363 0.84336,-0.44648 0.39688,-0.27286 0.69453,-0.62012 0.29766,-0.34727 0.4961,-0.69453 l -0.54571,-3.44785 h -4.63847 z m -1.33946,-4.71289 h 8.35918 l -1.04179,2.53008 h -6.27559 z m 13.27051,34.45371 q 0,-0.32246 0.0744,-0.64492 0.0744,-0.32246 0.22324,-0.57051 0.17363,-0.24805 0.42168,-0.39687 0.24804,-0.14883 0.59531,-0.14883 0.29766,0 0.47129,0.0744 v 0.54571 q -0.14883,-0.12403 -0.47129,-0.12403 -0.76895,0 -0.76895,1.26504 v 3.1502 h -0.5457 z m -22.12578,-37.35586 q 0,0.34727 -0.0744,0.66973 -0.0744,0.29766 -0.24805,0.57051 -0.14883,0.24804 -0.39688,0.39687 -0.22324,0.12403 -0.59531,0.12403 -0.29765,0 -0.47129,-0.0744 v -0.5457 q 0.14883,0.12402 0.47129,0.12402 0.76895,0 0.76895,-1.26504 v -3.15019 h 0.5457 z m 13.79141,7.11895 q 0.32246,0 0.52089,0.0992 0.22325,0.0992 0.22325,0.24804 0,0.14883 -0.22325,0.24805 -0.19843,0.0992 -0.52089,0.0992 -0.32246,0 -0.54571,-0.0992 -0.19843,-0.0992 -0.19843,-0.24805 0,-0.14882 0.19843,-0.24804 0.22325,-0.0992 0.54571,-0.0992 z m -2.6293,0 q 0.32246,0 0.5457,0.0992 0.22324,0.0992 0.22324,0.24804 0,0.14883 -0.22324,0.24805 -0.22324,0.0992 -0.5457,0.0992 -0.29766,0 -0.5209,-0.0992 -0.19844,-0.0992 -0.19844,-0.24805 0,-0.14882 0.19844,-0.24804 0.22324,-0.0992 0.5209,-0.0992 z m 1.11621,0.5457 h 0.22324 v 1.53789 h -0.49609 z m -0.64492,2.23242 h 1.63711 v 0.32246 h -1.63711 z m 6.07715,6.30039 q -0.0744,1.31465 -0.32246,2.6293 -0.22325,1.14102 -0.71934,2.48047 -0.47129,1.31465 -1.33945,2.43086 -0.5209,0.66972 -1.16582,1.11621 -0.64493,0.44648 -1.26504,0.71934 -0.62012,0.27285 -1.11621,0.39687 -0.4961,0.12402 -0.74414,0.17363 0.49609,0.64492 0.76894,1.5627 0.29766,0.89297 0.29766,1.81074 v 1.73633 h -6.30039 l -1.53789,-5.92832 h 2.00918 l 0.27285,1.83555 q 0.49609,-0.69454 1.26504,-1.24024 0.79375,-0.57051 1.93476,-0.57051 0.5209,0 0.99219,0.44649 0.24805,-0.0248 0.74414,-0.14883 0.5209,-0.12402 1.14102,-0.37207 0.62011,-0.24805 1.24023,-0.66973 0.64492,-0.44648 1.16582,-1.0914 0.76895,-0.99219 1.21543,-2.23243 0.44648,-1.26503 0.66973,-2.40605 0.27285,-1.31465 0.34726,-2.67891 z m -5.90352,13.24571 q 0,-0.62012 -0.17363,-1.28985 -0.17363,-0.66972 -0.47129,-1.21543 -0.29766,-0.5705 -0.66973,-0.91777 -0.37207,-0.37207 -0.81855,-0.37207 -0.57051,0 -1.0418,0.17363 -0.44648,0.17363 -0.84336,0.44649 -0.37207,0.24804 -0.66972,0.59531 -0.29766,0.34726 -0.4961,0.71933 l 0.5457,3.42305 h 4.63848 z m 1.33945,4.71289 h -8.35917 l 1.04179,-2.53008 h 6.27559 z m -4.93613,-4.2168 q -0.29765,0 -0.5209,-0.0992 -0.22324,-0.0992 -0.22324,-0.24805 0,-0.14882 0.22324,-0.22324 0.22325,-0.0992 0.5209,-0.0992 0.32246,0 0.5209,0.0992 0.22324,0.0744 0.22324,0.22324 0,0.14883 -0.22324,0.24805 -0.19844,0.0992 -0.5209,0.0992 z m 2.6293,0 q -0.32246,0 -0.5457,-0.0992 -0.22325,-0.0992 -0.22325,-0.24805 0,-0.14882 0.22325,-0.22324 0.22324,-0.0992 0.5457,-0.0992 0.32246,0 0.5209,0.0992 0.22324,0.0744 0.22324,0.22324 0,0.14883 -0.22324,0.24805 -0.19844,0.0992 -0.5209,0.0992 z m -1.09141,-0.5457 h -0.24804 v -1.53789 h 0.52089 z m 0.62012,-2.20762 h -1.63711 v -0.34727 h 1.63711 z m -5.3082,-18.55391 v -0.32246 q 0.24804,-0.22324 0.42168,-0.59531 0.19843,-0.37207 0.19843,-0.91777 -0.14882,0.0992 -0.32246,0.17363 -0.14883,0.0496 -0.39687,0.0496 -0.54571,0 -0.94258,-0.34727 -0.37207,-0.34726 -0.37207,-0.96738 0,-0.5457 0.34727,-0.89297 0.37207,-0.37207 0.94257,-0.37207 -0.0248,-0.12402 -0.0496,-0.22324 -0.0248,-0.12402 -0.0248,-0.22324 0,-0.54571 0.34726,-0.91778 0.37207,-0.39687 0.96739,-0.39687 0.57051,0 0.91777,0.39687 0.37207,0.37207 0.37207,0.91778 0,0.0992 -0.0248,0.22324 -0.0248,0.0992 -0.0744,0.22324 0.59531,0 0.94258,0.37207 0.37207,0.34727 0.37207,0.89297 0,0.62012 -0.39687,0.96738 -0.37207,0.34727 -0.91778,0.34727 -0.24804,0 -0.42168,-0.0496 -0.14883,-0.0744 -0.32246,-0.17363 0,0.5457 0.19844,0.94258 0.19844,0.37207 0.42168,0.5705 v 0.32246 z m -6.39961,-1.81074 v -0.19844 q 0.17363,-0.14882 0.29765,-0.39687 0.12403,-0.24805 0.12403,-0.64492 -0.19844,0.14883 -0.4961,0.14883 -0.37207,0 -0.64492,-0.22325 -0.24805,-0.22324 -0.24805,-0.64492 0,-0.37207 0.24805,-0.62012 0.24805,-0.24804 0.62012,-0.27285 -0.0496,-0.17363 -0.0496,-0.29765 0,-0.37207 0.24805,-0.62012 0.24804,-0.27285 0.64492,-0.27285 0.39687,0 0.64492,0.27285 0.24805,0.24805 0.24805,0.62012 0,0.12402 -0.0496,0.29765 0.39687,0.0248 0.64492,0.27285 0.24805,0.24805 0.24805,0.62012 0,0.42168 -0.27286,0.64492 -0.24804,0.22325 -0.64492,0.22325 -0.29765,0 -0.49609,-0.14883 0,0.39687 0.12402,0.66972 0.14883,0.24805 0.32246,0.37207 v 0.19844 z m 24.80468,23.71328 v 0.19844 q -0.17363,0.14883 -0.29765,0.42168 -0.12403,0.24805 -0.12403,0.62012 0.19844,-0.14883 0.4961,-0.14883 0.39687,0 0.64492,0.24805 0.24805,0.22324 0.24805,0.64492 0,0.34726 -0.24805,0.62011 -0.24805,0.24805 -0.62012,0.24805 0.0496,0.17363 0.0496,0.29766 0,0.37207 -0.24804,0.64492 -0.24805,0.24805 -0.64493,0.24805 -0.39687,0 -0.64492,-0.24805 -0.24804,-0.27285 -0.24804,-0.64492 0,-0.12403 0.0496,-0.29766 -0.39687,0 -0.64492,-0.24805 -0.24804,-0.27285 -0.24804,-0.62011 0,-0.42168 0.27285,-0.64492 0.27285,-0.24805 0.64492,-0.24805 0.29766,0 0.49609,0.14883 0,-0.37207 -0.14883,-0.64493 -0.12402,-0.27285 -0.27285,-0.39687 v -0.19844 z m -6.52363,-2.08359 v 0.29766 q -0.24805,0.22324 -0.44648,0.62011 -0.17364,0.37207 -0.17364,0.91778 0.17364,-0.12403 0.32247,-0.17364 0.14882,-0.0744 0.42168,-0.0744 0.5457,0 0.91777,0.34726 0.37207,0.34727 0.37207,0.96739 0,0.5457 -0.37207,0.91777 -0.34727,0.34727 -0.91777,0.37207 0.0248,0.0992 0.0496,0.22324 0.0248,0.0992 0.0248,0.22325 0,0.5457 -0.37207,0.91777 -0.34727,0.37207 -0.94258,0.37207 -0.57051,0 -0.94258,-0.37207 -0.34726,-0.37207 -0.34726,-0.91777 0,-0.12403 0.0248,-0.22325 0.0248,-0.12402 0.0744,-0.22324 -0.59532,-0.0248 -0.96739,-0.37207 -0.34726,-0.37207 -0.34726,-0.91777 0,-0.62012 0.37207,-0.96739 0.39687,-0.34726 0.94258,-0.34726 0.24804,0 0.42168,0.0744 0.17363,0.0496 0.32246,0.17364 0,-0.54571 -0.19844,-0.94258 -0.19844,-0.39688 -0.42168,-0.59531 v -0.29766 z" />
  </g>
</svg>
