<?xml version="1.0" encoding="UTF-8" standalone="no"?>
<!-- Created with Inkscape (http://www.inkscape.org/) -->

<svg
   xmlns:dc="http://purl.org/dc/elements/1.1/"
   xmlns:cc="http://creativecommons.org/ns#"
   xmlns:rdf="http://www.w3.org/1999/02/22-rdf-syntax-ns#"
   xmlns:svg="http://www.w3.org/2000/svg"
   xmlns="http://www.w3.org/2000/svg"
   xmlns:sodipodi="http://sodipodi.sourceforge.net/DTD/sodipodi-0.dtd"
   xmlns:inkscape="http://www.inkscape.org/namespaces/inkscape"
   width="100"
   height="100"
   viewBox="0 0 26.458333 26.458334"
   version="1.1"
   id="svg4497"
   sodipodi:docname="invite.svg"
   inkscape:version="0.92.1 r15371">
  <defs
     id="defs4491" />
  <sodipodi:namedview
     id="base"
     pagecolor="#ffffff"
     bordercolor="#666666"
     borderopacity="1.0"
     inkscape:pageopacity="0.0"
     inkscape:pageshadow="2"
     inkscape:zoom="5.6"
     inkscape:cx="62.142856"
     inkscape:cy="51.658498"
     inkscape:document-units="mm"
     inkscape:current-layer="layer1"
     showgrid="false"
     units="px"
     inkscape:window-width="1920"
     inkscape:window-height="1027"
     inkscape:window-x="-8"
     inkscape:window-y="-8"
     inkscape:window-maximized="1" />
  <metadata
     id="metadata4494">
    <rdf:RDF>
      <cc:Work
         rdf:about="">
        <dc:format>image/svg+xml</dc:format>
        <dc:type
           rdf:resource="http://purl.org/dc/dcmitype/StillImage" />
        <dc:title></dc:title>
      </cc:Work>
    </rdf:RDF>
  </metadata>
  <g
     inkscape:label="Layer 1"
     inkscape:groupmode="layer"
     id="layer1"
     transform="translate(0,-270.54165)">
    <rect
       style="fill:#1fffff;fill-opacity:0;fill-rule:nonzero;stroke:none;stroke-width:1;stroke-linecap:round;stroke-linejoin:round;stroke-miterlimit:1;stroke-dasharray:none;stroke-dashoffset:0;stroke-opacity:1"
       id="rect5042"
       width="26.458334"
       height="26.458334"
       x="0"
       y="270.54166" />
    <g
       aria-label="✉"
       style="font-style:normal;font-variant:normal;font-weight:normal;font-stretch:normal;font-size:34.50641632px;line-height:1.25;font-family:'Capture it';-inkscape-font-specification:'Capture it';letter-spacing:0px;word-spacing:0px;fill:#fdffff;fill-opacity:1;stroke:none;stroke-width:0.32791105"
       id="text4495"
       transform="matrix(0.80687525,0,0,0.80687525,2.5703913,54.782388)">
      <path
         d="m 15.937905,281.54869 7.413488,-5.05465 H 3.2675806 l 7.4134874,5.05465 q 0.117942,-0.15164 0.252733,-0.28643 0.488616,-0.47177 1.095174,-0.74135 0.58971,-0.25273 1.280512,-0.25273 0.690802,0 1.280511,0.25273 0.7245,0.32013 1.095175,0.74135 0.13479,0.15164 0.252732,0.28643 z m 0.673954,2.72951 7.244999,4.88616 v -11.00229 l -7.244999,4.90302 q 0.05055,0.28643 0.05055,0.5897 0,0.32013 -0.05055,0.62341 z m -5.897093,1.49955 -7.4471854,5.0715 H 23.351393 l -7.447185,-5.0715 q -0.101093,0.13479 -0.219035,0.25273 -0.488616,0.47177 -1.095175,0.74135 -0.589709,0.25273 -1.280511,0.25273 -0.690802,0 -1.280512,-0.25273 -0.606558,-0.26958 -1.095174,-0.74135 -0.117942,-0.11794 -0.219035,-0.25273 z m -0.7244998,-2.72951 -7.2281507,-4.88617 v 11.00229 l 7.2281507,-4.86931 q -0.050547,-0.32013 -0.050547,-0.64026 0,-0.30327 0.050547,-0.60655 z m -8.9130343,9.48589 V 274.79231 H 25.541742 v 17.74182 z"
         style="fill:#fdffff;fill-opacity:1;stroke-width:0.32791105"
         id="path4497"
         inkscape:connector-curvature="0" />
    </g>
  </g>
</svg>
