<?xml version="1.0" encoding="UTF-8" standalone="no"?>
<!-- Created with Inkscape (http://www.inkscape.org/) -->

<svg
   xmlns:dc="http://purl.org/dc/elements/1.1/"
   xmlns:cc="http://creativecommons.org/ns#"
   xmlns:rdf="http://www.w3.org/1999/02/22-rdf-syntax-ns#"
   xmlns:svg="http://www.w3.org/2000/svg"
   xmlns="http://www.w3.org/2000/svg"
   xmlns:sodipodi="http://sodipodi.sourceforge.net/DTD/sodipodi-0.dtd"
   xmlns:inkscape="http://www.inkscape.org/namespaces/inkscape"
   width="31.303518mm"
   height="46.930489mm"
   viewBox="0 0 31.303518 46.930489"
   version="1.1"
   id="svg8"
   inkscape:version="0.92.1 r15371"
   sodipodi:docname="black.svg">
  <defs
     id="defs2" />
  <sodipodi:namedview
     id="base"
     pagecolor="#ffffff"
     bordercolor="#666666"
     borderopacity="1.0"
     inkscape:pageopacity="0.0"
     inkscape:pageshadow="2"
     inkscape:zoom="0.7"
     inkscape:cx="360.25889"
     inkscape:cy="303.80665"
     inkscape:document-units="mm"
     inkscape:current-layer="layer1"
     showgrid="false"
     inkscape:window-width="1297"
     inkscape:window-height="991"
     inkscape:window-x="-8"
     inkscape:window-y="0"
     inkscape:window-maximized="0"
     fit-margin-top="0"
     fit-margin-left="0"
     fit-margin-right="0"
     fit-margin-bottom="0"
     inkscape:pagecheckerboard="true"
     showguides="false" />
  <metadata
     id="metadata5">
    <rdf:RDF>
      <cc:Work
         rdf:about="">
        <dc:format>image/svg+xml</dc:format>
        <dc:type
           rdf:resource="http://purl.org/dc/dcmitype/StillImage" />
        <dc:title></dc:title>
      </cc:Work>
    </rdf:RDF>
  </metadata>
  <g
     inkscape:label="Layer 1"
     inkscape:groupmode="layer"
     id="layer1"
     transform="translate(7.3034954,-513.35075)">
    <rect
       style="fill:#ffffff;fill-opacity:1;stroke:none;stroke-width:1;stroke-miterlimit:4;stroke-dasharray:none;stroke-opacity:1"
       id="rect8320-91"
       width="31.303518"
       height="46.93047"
       x="-7.3034954"
       y="513.35077" />
    <path
       inkscape:connector-curvature="0"
       id="path8234"
       style="font-style:normal;font-variant:normal;font-weight:normal;font-stretch:normal;font-size:50.79999924px;line-height:1.25;font-family:serif;-inkscape-font-specification:serif;letter-spacing:0px;word-spacing:0px;fill:#000000;fill-opacity:1;stroke:none;stroke-width:0.41033289"
       d="m 18.468575,541.15681 -0.496094,0.79375 v 0.5209 l 0.545703,0.47129 h 0.446484 l 0.84336,-0.71934 -0.272852,-0.74414 z m -4.39043,-6.07715 -1.5875,-0.69453 -0.223242,-2.00918 -3.3982424,-1.63711 H 6.0662309 l -1.7363281,2.33164 -0.099219,1.98438 -0.4464844,0.42168 -0.8433593,0.52089 v 6.37481 l 0.1984375,0.14883 2.7533202,0.5705 2.7285156,-0.94257 2.9765626,-3.27422 h 0.173633 l 0.446484,0.86816 1.041797,-0.99219 0.917774,-1.93476 z m 2.976562,-4.73769 3.026172,1.21542 1.95957,5.45704 -2.108398,4.04316 0.694531,1.19063 -1.53789,1.38906 H 18.39416 l -1.091406,-0.84336 v -0.94258 l 0.520899,-0.94258 -1.364258,-4.68808 -1.686719,0.39687 v 0.5457 l -0.74414,2.00918 -1.041797,1.09141 0.620117,0.69453 -0.446485,0.74414 0.694532,0.19844 1.314648,1.51309 0.694531,1.68671 v 1.76114 l -0.644922,0.62011 -2.182812,-2.38125 -1.016992,-0.39687 0.471289,0.99219 -0.347266,1.78593 -1.761133,3.1502 -1.1162104,-0.19844 -0.5208985,-1.86035 -1.8603515,-2.33164 -1.4634765,-0.91777 -2.778125,0.86816 -3.37343743,2.33164 -0.62011717,-0.5457 0.62011717,-3.27422 0.99218748,-1.76113 h -1.21542967 l -3.62148428,1.76113 -0.7689453,-0.37207 0.8185546,-2.23242 1.0666016,-1.46348 0.868164,-0.71934 h -1.3146484 v -0.76894 l 1.7611328,-0.89297 2.95175777,-0.34727 -0.0992187,-0.74414 H 2.2463091 v -1.53789 l 1.2650391,-0.84336 0.1240234,-1.90996 1.5378906,-2.20761 -0.049609,-0.34727 0.8681641,-2.15801 -0.5457031,-0.99218 -2.3068359,0.39687 -1.0914063,2.00918 0.4464844,0.86816 -0.1240234,0.96739 -1.58750002,0.84336 -1.51308591,-0.57051 -0.32246097,-0.71934 v -0.86816 l 0.74414065,-0.99219 0.74414061,-0.27285 0.47128906,-3.34863 4.31601558,-2.30684 4.440039,0.29766 0.992187,3.175 3.621484,-3.27422 3.100586,1.0914 0.446485,1.0418 -1.091407,4.36563 -1.612304,1.66191 -0.768946,-5.08496 -0.620117,-0.24805 0.79375,5.63067 0.669727,0.42168 z m -2.951757,1.93476 -0.992188,0.34727 0.07441,1.26504 0.744141,0.44648 0.818554,-0.34727 0.173633,-1.21543 z m -13.27050804,-2.70371 -0.94257812,0.47129 -0.0496094,1.09141 0.99218749,0.39687 0.81855467,-0.39687 v -0.69454 l -0.3720703,-0.71933 z m 7.71425774,9.17773 -2.778125,1.21543 -1.4386719,-0.47129 -0.471289,-0.62011 -0.2232422,-0.84336 0.2232422,-0.14883 0.5208984,0.96738 1.5626953,0.32246 2.3068359,-0.64492 z m 0.4960937,-1.88515 -0.1736328,-0.22324 -0.024805,-0.94258 H 8.521895 l -0.8433594,0.5209 H 7.2568559 l -0.099219,-0.0992 V 535.799 l 1.0914062,-0.69453 H 9.365254 l 0.2480469,0.66972 v 0.84336 L 9.29084,536.8656 Z m -4.0183593,1.28984 -0.322461,-0.0248 -0.3472656,-1.24024 0.2728516,-0.12402 1.4882812,0.42168 -0.049609,0.27285 z m 0.8433593,-2.6541 -0.074414,-0.19844 v -0.47129 l -0.4712891,0.32246 -0.5208984,0.14883 v -0.19843 l 0.6945312,-0.69454 0.5208985,-0.39687 0.4960937,0.22324 v 0.59531 l -0.3720703,0.71934 z m 6.3499996,2.75332 v -0.37207 l 1.265039,-1.33945 0.322461,0.27285 -1.314648,1.6123 z m -7.8382808,3.44785 -0.1984375,-0.79375 1.4386719,0.34727 z M 24.00002,513.35075 v 46.93047 H -7.3034954 V 513.35075 Z M -6.1624798,559.14021 H 22.859004 V 514.49177 H -6.1624798 Z" />
  </g>
</svg>
