<?xml version="1.0" encoding="UTF-8" standalone="no"?>
<!-- Created with Inkscape (http://www.inkscape.org/) -->

<svg
   xmlns:dc="http://purl.org/dc/elements/1.1/"
   xmlns:cc="http://creativecommons.org/ns#"
   xmlns:rdf="http://www.w3.org/1999/02/22-rdf-syntax-ns#"
   xmlns:svg="http://www.w3.org/2000/svg"
   xmlns="http://www.w3.org/2000/svg"
   xmlns:sodipodi="http://sodipodi.sourceforge.net/DTD/sodipodi-0.dtd"
   xmlns:inkscape="http://www.inkscape.org/namespaces/inkscape"
   width="31.303522mm"
   height="46.930489mm"
   viewBox="0 0 31.303522 46.930489"
   version="1.1"
   id="svg8"
   inkscape:version="0.92.1 r15371"
   sodipodi:docname="white.svg">
  <defs
     id="defs2" />
  <sodipodi:namedview
     id="base"
     pagecolor="#ffffff"
     bordercolor="#666666"
     borderopacity="1.0"
     inkscape:pageopacity="0.0"
     inkscape:pageshadow="2"
     inkscape:zoom="0.7"
     inkscape:cx="-197.90995"
     inkscape:cy="303.80665"
     inkscape:document-units="mm"
     inkscape:current-layer="layer1"
     showgrid="false"
     inkscape:window-width="1297"
     inkscape:window-height="991"
     inkscape:window-x="-8"
     inkscape:window-y="0"
     inkscape:window-maximized="0"
     fit-margin-top="0"
     fit-margin-left="0"
     fit-margin-right="0"
     fit-margin-bottom="0"
     inkscape:pagecheckerboard="true"
     showguides="false" />
  <metadata
     id="metadata5">
    <rdf:RDF>
      <cc:Work
         rdf:about="">
        <dc:format>image/svg+xml</dc:format>
        <dc:type
           rdf:resource="http://purl.org/dc/dcmitype/StillImage" />
        <dc:title></dc:title>
      </cc:Work>
    </rdf:RDF>
  </metadata>
  <g
     inkscape:label="Layer 1"
     inkscape:groupmode="layer"
     id="layer1"
     transform="translate(-459.42148,-513.35075)">
    <rect
       style="fill:#ffffff;fill-opacity:1;stroke:none;stroke-width:1;stroke-miterlimit:4;stroke-dasharray:none;stroke-opacity:1"
       id="rect8320-98"
       width="31.303518"
       height="46.93047"
       x="459.42148"
       y="513.35077" />
    <path
       inkscape:connector-curvature="0"
       id="path8262"
       style="font-style:normal;font-variant:normal;font-weight:normal;font-stretch:normal;font-size:50.79999924px;line-height:1.25;font-family:serif;-inkscape-font-specification:serif;letter-spacing:0px;word-spacing:0px;fill:#000000;fill-opacity:1;stroke:none;stroke-width:0.41033289"
       d="m 485.81367,543.63728 h -0.69453 l -1.09141,-0.84336 v -0.94258 l 0.5209,-0.94258 -1.36426,-4.68808 -1.68672,0.39687 v 0.5457 l -0.74414,2.00918 -1.0418,1.09141 0.62012,0.69453 -0.44648,0.74414 0.69453,0.19844 1.31465,1.51309 0.69453,1.68671 v 1.76114 l -0.64492,0.62011 -2.18282,-2.38125 -1.01699,-0.39687 0.47129,0.99219 -0.34727,1.78593 -1.76113,3.1502 -1.11621,-0.19844 -0.5209,-1.86035 -1.86035,-2.33164 -1.46348,-0.91777 -2.77812,0.86816 -3.37344,2.33164 -0.62011,-0.5457 0.62011,-3.27422 0.99219,-1.76113 h -1.21543 l -3.62148,1.76113 -0.76895,-0.37207 0.81856,-2.23242 1.0666,-1.46348 0.86816,-0.71934 h -1.31465 v -0.76894 l 1.76114,-0.89297 2.95175,-0.34727 -0.0992,-0.74414 h 1.53789 v -1.53789 l 1.26504,-0.84336 0.12403,-1.90996 1.53789,-2.20761 -0.0496,-0.34727 0.86816,-2.15801 -0.5457,-0.99218 -2.30684,0.39687 -1.0914,2.00918 0.44648,0.86816 -0.12402,0.96739 -1.5875,0.84336 -1.51309,-0.57051 -0.32246,-0.71934 v -0.86816 l 0.74414,-0.99219 0.74414,-0.27285 0.47129,-3.34863 4.31602,-2.30684 4.44004,0.29766 0.99218,3.175 3.62149,-3.27422 3.10058,1.0914 2.00918,1.95957 v 0.64493 l -1.26504,3.34863 -0.42168,0.27285 2.38125,0.86816 1.95958,5.45704 -2.1084,4.04316 0.69453,1.19063 z m 0.71933,-1.41387 -0.27285,-0.74414 -0.44648,-0.22324 2.1332,-4.09278 -1.98437,-5.13457 -2.00918,-0.81855 -1.51309,1.41387 0.12402,0.44648 -0.12402,0.81856 -0.49609,0.69453 -1.48829,0.44648 -1.24023,-0.64492 -0.22324,-2.00918 1.21543,-0.69453 0.24804,-5.48184 0.62012,0.24805 v 5.65547 l -1.24023,0.5209 0.0744,1.26504 0.74414,0.44648 0.81856,-0.34727 0.42168,-0.86816 -0.32246,-0.57051 2.72851,-2.70371 1.14102,-2.85254 -1.53789,-1.63711 -2.67891,-1.14101 -3.44785,3.00136 -0.94258,0.17364 -0.96738,-3.27422 -3.59668,-0.29766 -4.09278,2.28203 -0.62011,3.47266 -0.94258,0.47129 -0.0496,1.09141 0.99219,0.39687 0.81855,-0.39687 v -0.69454 l -0.37207,-0.71933 1.24024,-2.60449 3.37343,-0.62012 0.86817,1.68672 -0.81856,2.1084 0.12403,0.37207 -1.73633,2.40605 -0.0992,1.98438 -0.44648,0.42168 -0.84336,0.52089 v 6.37481 l 0.19843,0.14883 2.75332,0.5705 2.72852,-0.94257 2.97656,-3.27422 h 0.17363 l 0.44649,0.86816 1.0418,-0.99219 0.91777,-1.93476 -0.0496,-0.69453 0.22324,-0.37207 2.20762,-0.32246 0.62012,0.19843 1.53789,4.83692 -0.27285,0.79375 -0.47129,0.69453 v 0.5209 l 0.5457,0.47129 h 0.44648 z m -4.7873,3.10059 -0.39688,-1.48828 -1.36425,-1.43868 -0.89297,-0.29765 -0.12403,-0.44649 0.4961,-0.59531 -0.4961,-0.34727 h -0.84336 l -1.86035,2.23243 -3.77031,0.89297 -3.15019,-0.66973 -0.44649,-0.22324 v -5.13457 l -0.71934,-0.19844 0.12403,1.26504 h -2.72852 l -1.68672,0.29765 1.63711,0.32246 0.0496,0.59532 -1.43867,0.62011 -1.21543,1.38907 -0.76894,1.83554 3.05097,-1.56269 h 2.55489 l 0.22324,0.27285 -1.19063,2.05879 -0.66972,2.6293 0.0496,0.14882 3.07578,-2.08359 3.29902,-0.69453 1.73633,0.99219 1.86035,2.23242 0.29766,1.78594 0.39687,0.0992 1.16582,-2.57968 0.32246,-1.41387 -1.0914,-1.68672 v -0.29765 l 1.0914,-0.19844 2.00918,1.0666 1.41387,1.53789 z m -6.47402,-6.57325 -2.77813,1.21543 -1.43867,-0.47129 -0.47129,-0.62011 -0.22324,-0.84336 0.22324,-0.14883 0.5209,0.96738 1.56269,0.32246 2.30684,-0.64492 z m 0.49609,-1.88515 -0.17363,-0.22324 -0.0248,-0.94258 h -0.32246 l -0.84336,0.5209 h -0.42168 l -0.0992,-0.0992 V 535.799 l 1.09141,-0.69453 h 1.11621 l 0.24805,0.66972 v 0.84336 l -0.32246,0.24805 z m -4.01836,1.28984 -0.32246,-0.0248 -0.34727,-1.24024 0.27285,-0.12402 1.48829,0.42168 -0.0496,0.27285 z m 0.84336,-2.6541 -0.0744,-0.19844 v -0.47129 l -0.47128,0.32246 -0.5209,0.14883 v -0.19843 l 0.69453,-0.69454 0.5209,-0.39687 0.49609,0.22324 v 0.59531 l -0.37207,0.71934 z m 6.35,2.75332 v -0.37207 l 1.26504,-1.33945 0.32246,0.27285 -1.31465,1.6123 z m -7.83828,3.44785 -0.19844,-0.79375 1.43867,0.34727 z M 490.725,513.35075 v 46.93047 h -31.30352 v -46.93047 z m -30.1625,45.78946 h 29.02148 V 514.49177 H 460.5625 Z" />
  </g>
</svg>
