<?xml version="1.0" encoding="UTF-8" standalone="no"?>
<!-- Created with Inkscape (http://www.inkscape.org/) -->

<svg
   xmlns:dc="http://purl.org/dc/elements/1.1/"
   xmlns:cc="http://creativecommons.org/ns#"
   xmlns:rdf="http://www.w3.org/1999/02/22-rdf-syntax-ns#"
   xmlns:svg="http://www.w3.org/2000/svg"
   xmlns="http://www.w3.org/2000/svg"
   xmlns:sodipodi="http://sodipodi.sourceforge.net/DTD/sodipodi-0.dtd"
   xmlns:inkscape="http://www.inkscape.org/namespaces/inkscape"
   width="31.303522mm"
   height="46.930481mm"
   viewBox="0 0 31.303522 46.930481"
   version="1.1"
   id="svg8"
   inkscape:version="0.92.1 r15371"
   sodipodi:docname="3.svg">
  <defs
     id="defs2" />
  <sodipodi:namedview
     id="base"
     pagecolor="#ffffff"
     bordercolor="#666666"
     borderopacity="1.0"
     inkscape:pageopacity="0.0"
     inkscape:pageshadow="2"
     inkscape:zoom="0.7"
     inkscape:cx="226.57144"
     inkscape:cy="-4.7647596"
     inkscape:document-units="mm"
     inkscape:current-layer="layer1"
     showgrid="false"
     inkscape:window-width="1297"
     inkscape:window-height="991"
     inkscape:window-x="-8"
     inkscape:window-y="0"
     inkscape:window-maximized="0"
     fit-margin-top="0"
     fit-margin-left="0"
     fit-margin-right="0"
     fit-margin-bottom="0"
     inkscape:pagecheckerboard="true"
     showguides="false" />
  <metadata
     id="metadata5">
    <rdf:RDF>
      <cc:Work
         rdf:about="">
        <dc:format>image/svg+xml</dc:format>
        <dc:type
           rdf:resource="http://purl.org/dc/dcmitype/StillImage" />
        <dc:title></dc:title>
      </cc:Work>
    </rdf:RDF>
  </metadata>
  <g
     inkscape:label="Layer 1"
     inkscape:groupmode="layer"
     id="layer1"
     transform="translate(-59.371498,-386.35074)">
    <g
       id="g8922">
      <rect
         y="386.35074"
         x="59.371498"
         height="46.93047"
         width="31.303518"
         id="rect8320-65"
         style="fill:#ffffff;fill-opacity:1;stroke:none;stroke-width:1;stroke-miterlimit:4;stroke-dasharray:none;stroke-opacity:1" />
      <path
         d="m 90.675015,386.35076 v 46.93046 H 59.3715 V 386.35076 Z M 60.512516,432.14021 H 89.534 V 387.49177 H 60.512516 Z m 1.5875,-39.36504 v -0.57051 q 0.396875,0.39688 0.892968,0.39688 0.42168,0 0.644922,-0.24805 0.248047,-0.24805 0.248047,-0.69453 0,-0.89297 -1.066601,-0.89297 h -0.322461 v -0.44648 h 0.297656 q 0.942578,0 0.942578,-0.91778 0,-0.79375 -0.719336,-0.79375 -0.396875,0 -0.768945,0.32246 v -0.52089 q 0.347265,-0.27286 0.892968,-0.27286 0.471289,0 0.79375,0.34727 0.322461,0.32246 0.322461,0.79375 0,0.94258 -0.843359,1.21543 v 0.0248 q 0.42168,0.0496 0.694531,0.37207 0.297656,0.29766 0.297656,0.74414 0,0.62012 -0.421679,1.017 -0.396875,0.39687 -0.992188,0.39687 -0.520898,0 -0.892968,-0.27285 z m 25.821679,34.28008 v 0.57051 q -0.42168,-0.37207 -0.892969,-0.37207 -0.42168,0 -0.669726,0.24804 -0.223243,0.24805 -0.223243,0.66973 0,0.89297 1.066602,0.89297 h 0.322461 v 0.47129 h -0.297656 q -0.942578,0 -0.942578,0.89297 0,0.81855 0.719335,0.81855 0.396875,0 0.768946,-0.32246 v 0.49609 q -0.347266,0.27285 -0.868164,0.27285 -0.496094,0 -0.818555,-0.32246 -0.322461,-0.32246 -0.322461,-0.81855 0,-0.91777 0.843359,-1.21543 v -0.0248 q -0.421679,-0.0248 -0.694531,-0.34726 -0.272851,-0.32246 -0.272851,-0.76895 0,-0.59531 0.396875,-0.99218 0.396875,-0.42168 0.992187,-0.42168 0.520899,0 0.892969,0.27285 z M 75.023258,391.73337 q 0.198437,-0.39687 0.520898,-0.71933 0.347266,-0.34727 0.868164,-0.34727 0.545703,0 0.992188,0.4961 0.446484,0.49609 0.446484,1.56269 0,0.86817 -0.322461,1.5627 -0.322461,0.66972 -0.768945,1.26504 -0.446485,0.5705 -0.942578,1.0666 -0.471289,0.47129 -0.79375,0.91777 -0.322461,-0.44648 -0.818555,-0.91777 -0.471289,-0.4961 -0.917774,-1.0666 -0.446484,-0.59532 -0.79375,-1.26504 -0.32246,-0.69453 -0.32246,-1.5627 0,-1.0666 0.446484,-1.56269 0.446484,-0.4961 0.992187,-0.4961 0.545704,0 0.892969,0.34727 0.347266,0.32246 0.520899,0.71933 z m -11.683008,3.12539 q 0.09922,-0.22324 0.272851,-0.37207 0.173633,-0.17363 0.446485,-0.17363 0.297656,0 0.520898,0.24805 0.223242,0.24804 0.223242,0.79375 0,0.44648 -0.173632,0.81855 -0.173633,0.34727 -0.42168,0.64492 -0.223242,0.27286 -0.471289,0.54571 -0.223242,0.24804 -0.396875,0.47129 -0.173633,-0.22325 -0.42168,-0.47129 -0.223242,-0.27285 -0.471289,-0.54571 -0.223242,-0.29765 -0.396875,-0.64492 -0.173633,-0.37207 -0.173633,-0.81855 0,-0.54571 0.223243,-0.79375 0.248046,-0.24805 0.520898,-0.24805 0.297656,0 0.471289,0.17363 0.173633,0.14883 0.248047,0.37207 z m 11.683008,33.3127 q -0.223243,0.39687 -0.545704,0.71933 -0.32246,0.32247 -0.843359,0.32247 -0.545703,0 -0.992187,-0.4961 -0.446485,-0.49609 -0.446485,-1.53789 0,-0.84336 0.322461,-1.53789 0.322461,-0.71934 0.768945,-1.28984 0.446485,-0.57051 0.917774,-1.0418 0.496094,-0.49609 0.818555,-0.96738 0.322461,0.47129 0.79375,0.96738 0.496093,0.47129 0.942578,1.0418 0.446484,0.5705 0.768945,1.28984 0.347266,0.69453 0.347266,1.53789 0,1.0418 -0.446485,1.53789 -0.446484,0.4961 -0.992187,0.4961 -0.545703,0 -0.892969,-0.32247 -0.347266,-0.32246 -0.520898,-0.71933 z m 11.633398,-3.12539 q -0.09922,0.19844 -0.272852,0.37207 -0.173633,0.14883 -0.446484,0.14883 -0.297656,0 -0.520899,-0.24805 -0.198437,-0.24805 -0.198437,-0.79375 0,-0.44648 0.148828,-0.79375 0.173633,-0.34727 0.396875,-0.64492 0.248047,-0.29766 0.471289,-0.5457 0.248047,-0.27286 0.42168,-0.4961 0.148828,0.22324 0.396875,0.4961 0.272851,0.24804 0.496094,0.5457 0.223242,0.29765 0.396875,0.64492 0.173632,0.34727 0.173632,0.79375 0,0.5457 -0.248046,0.79375 -0.223243,0.24805 -0.496094,0.24805 -0.297656,0 -0.471289,-0.14883 -0.148828,-0.17363 -0.248047,-0.37207 z M 75.023258,408.17888 q 0.198437,-0.39687 0.520898,-0.71933 0.347266,-0.34727 0.868164,-0.34727 0.545703,0 0.992188,0.49609 0.446484,0.4961 0.446484,1.5627 0,0.86816 -0.322461,1.56269 -0.322461,0.66973 -0.768945,1.26504 -0.446485,0.57051 -0.942578,1.0666 -0.471289,0.47129 -0.79375,0.91778 -0.322461,-0.44649 -0.818555,-0.91778 -0.471289,-0.49609 -0.917774,-1.0666 -0.446484,-0.59531 -0.79375,-1.26504 -0.32246,-0.69453 -0.32246,-1.56269 0,-1.0666 0.446484,-1.5627 0.446484,-0.49609 0.992187,-0.49609 0.545704,0 0.892969,0.34727 0.347266,0.32246 0.520899,0.71933 z"
         style="font-style:normal;font-variant:normal;font-weight:normal;font-stretch:normal;font-size:50.79999924px;line-height:1.25;font-family:serif;-inkscape-font-specification:serif;letter-spacing:0px;word-spacing:0px;fill:#ff0101;fill-opacity:1;stroke:none;stroke-width:0.41033289;stroke-opacity:1"
         id="path8184"
         inkscape:connector-curvature="0" />
      <path
         sodipodi:nodetypes="cccccccccc"
         d="m 90.67502,386.35076 v 46.93046 H 59.3715 v -46.93046 z m -30.1625,45.78945 H 89.534 V 387.49177 H 60.51252 Z"
         style="font-style:normal;font-variant:normal;font-weight:normal;font-stretch:normal;font-size:50.79999924px;line-height:1.25;font-family:serif;-inkscape-font-specification:serif;letter-spacing:0px;word-spacing:0px;fill:#000000;fill-opacity:1;stroke:none;stroke-width:0.41033289"
         id="path8180-3-99"
         inkscape:connector-curvature="0" />
    </g>
  </g>
</svg>
