<?xml version="1.0" encoding="UTF-8" standalone="no"?>
<!-- Created with Inkscape (http://www.inkscape.org/) -->

<svg
   xmlns:dc="http://purl.org/dc/elements/1.1/"
   xmlns:cc="http://creativecommons.org/ns#"
   xmlns:rdf="http://www.w3.org/1999/02/22-rdf-syntax-ns#"
   xmlns:svg="http://www.w3.org/2000/svg"
   xmlns="http://www.w3.org/2000/svg"
   xmlns:sodipodi="http://sodipodi.sourceforge.net/DTD/sodipodi-0.dtd"
   xmlns:inkscape="http://www.inkscape.org/namespaces/inkscape"
   width="31.303522mm"
   height="46.930481mm"
   viewBox="0 0 31.303522 46.930481"
   version="1.1"
   id="svg8"
   inkscape:version="0.92.1 r15371"
   sodipodi:docname="9.svg">
  <defs
     id="defs2" />
  <sodipodi:namedview
     id="base"
     pagecolor="#ffffff"
     bordercolor="#666666"
     borderopacity="1.0"
     inkscape:pageopacity="0.0"
     inkscape:pageshadow="2"
     inkscape:zoom="0.7"
     inkscape:cx="154.57151"
     inkscape:cy="-4.7647813"
     inkscape:document-units="mm"
     inkscape:current-layer="layer1"
     showgrid="false"
     inkscape:window-width="1297"
     inkscape:window-height="991"
     inkscape:window-x="-8"
     inkscape:window-y="0"
     inkscape:window-maximized="0"
     fit-margin-top="0"
     fit-margin-left="0"
     fit-margin-right="0"
     fit-margin-bottom="0"
     inkscape:pagecheckerboard="true"
     showguides="false" />
  <metadata
     id="metadata5">
    <rdf:RDF>
      <cc:Work
         rdf:about="">
        <dc:format>image/svg+xml</dc:format>
        <dc:type
           rdf:resource="http://purl.org/dc/dcmitype/StillImage" />
        <dc:title></dc:title>
      </cc:Work>
    </rdf:RDF>
  </metadata>
  <g
     inkscape:label="Layer 1"
     inkscape:groupmode="layer"
     id="layer1"
     transform="translate(-259.39648,-386.35074)">
    <g
       id="g8952">
      <rect
         y="386.35074"
         x="259.39648"
         height="46.93047"
         width="31.303518"
         id="rect8320-31"
         style="fill:#ffffff;fill-opacity:1;stroke:none;stroke-width:1;stroke-miterlimit:4;stroke-dasharray:none;stroke-opacity:1" />
      <path
         d="m 290.7,386.35076 v 46.93046 h -31.30351 v -46.93046 z m -30.1625,45.78945 h 29.02149 V 387.49177 H 260.5375 Z m 1.73633,-39.19141 v -0.49609 q 0.14883,0.0992 0.32246,0.14883 0.17363,0.0248 0.34727,0.0248 0.34726,0 0.5457,-0.22324 0.22324,-0.22324 0.34727,-0.5457 0.12402,-0.32246 0.17363,-0.69453 0.0496,-0.37207 0.0496,-0.66973 -0.29766,0.66973 -0.89297,0.66973 -0.57051,0 -0.84336,-0.42168 -0.27285,-0.44649 -0.27285,-0.99219 0,-0.57051 0.29765,-1.0418 0.32246,-0.49609 0.94258,-0.49609 0.37207,0 0.62012,0.19844 0.24805,0.19843 0.37207,0.52089 0.14883,0.29766 0.22324,0.66973 0.0744,0.34727 0.0744,0.69453 0,0.39688 -0.0992,0.89297 -0.0744,0.47129 -0.27285,0.89297 -0.19844,0.42168 -0.4961,0.71934 -0.29765,0.27285 -0.74414,0.27285 -0.22324,0 -0.42168,-0.0248 -0.17363,-0.0248 -0.27285,-0.0992 z m 1.01699,-2.25722 q 0.34727,0 0.54571,-0.27285 0.19843,-0.29766 0.19843,-0.64493 0,-0.17363 -0.0496,-0.37207 -0.0248,-0.19843 -0.12402,-0.37207 -0.0992,-0.17363 -0.24805,-0.27285 -0.14883,-0.12402 -0.34726,-0.12402 -0.37207,0 -0.54571,0.34726 -0.17363,0.32246 -0.17363,0.66973 0,0.39687 0.14883,0.71934 0.17363,0.32246 0.59531,0.32246 z m 24.50703,36.28925 v 0.4961 q -0.14883,-0.0992 -0.32246,-0.12403 -0.17363,-0.0496 -0.34726,-0.0496 -0.34727,0 -0.57051,0.22325 -0.19844,0.22324 -0.32246,0.5457 -0.12403,0.32246 -0.17364,0.69453 -0.0496,0.37207 -0.0496,0.66973 0.29765,-0.66973 0.89296,-0.66973 0.57051,0 0.84336,0.42168 0.29766,0.44649 0.29766,0.99219 0,0.57051 -0.32246,1.0418 -0.32246,0.49609 -0.94258,0.49609 -0.37207,0 -0.62012,-0.19844 -0.24804,-0.19844 -0.39687,-0.5209 -0.12402,-0.29765 -0.19844,-0.66972 -0.0496,-0.34727 -0.0496,-0.69453 0,-0.39688 0.0744,-0.89297 0.0744,-0.47129 0.27285,-0.89297 0.19843,-0.42168 0.49609,-0.69453 0.29766,-0.29766 0.74414,-0.29766 0.47129,0 0.69453,0.12402 z m -1.01699,2.25723 q -0.34726,0 -0.5457,0.27285 -0.19844,0.29766 -0.19844,0.64492 0,0.17364 0.0248,0.37207 0.0496,0.19844 0.14883,0.37207 0.0992,0.17364 0.24805,0.27286 0.14883,0.12402 0.34727,0.12402 0.39687,0 0.5457,-0.34727 0.17363,-0.32246 0.17363,-0.66972 0,-0.39688 -0.17363,-0.71934 -0.14883,-0.32246 -0.57051,-0.32246 z m -5.95312,-37.50469 q 0.19843,-0.39687 0.52089,-0.71933 0.34727,-0.34727 0.86817,-0.34727 0.5457,0 0.99219,0.4961 0.44648,0.49609 0.44648,1.56269 0,0.86817 -0.34727,1.5627 -0.32246,0.66972 -0.76894,1.26504 -0.42168,0.5705 -0.91777,1.0666 -0.47129,0.47129 -0.79375,0.91777 -0.32246,-0.44648 -0.81856,-0.91777 -0.47129,-0.4961 -0.94258,-1.0666 -0.44648,-0.59532 -0.76894,-1.26504 -0.32246,-0.69453 -0.32246,-1.5627 0,-1.0666 0.44648,-1.56269 0.44649,-0.4961 0.99219,-0.4961 0.5457,0 0.89297,0.34727 0.34726,0.32246 0.5209,0.71933 z m 0,10.41797 q 0.19843,-0.39687 0.52089,-0.71933 0.34727,-0.32246 0.86817,-0.32246 0.5457,0 0.99219,0.49609 0.44648,0.49609 0.44648,1.53789 0,0.86816 -0.34727,1.56269 -0.32246,0.69454 -0.76894,1.26504 -0.42168,0.57051 -0.91777,1.06661 -0.47129,0.47128 -0.79375,0.94257 -0.32246,-0.47129 -0.81856,-0.94257 -0.47129,-0.4961 -0.94258,-1.06661 -0.44648,-0.5705 -0.76894,-1.26504 -0.32246,-0.69453 -0.32246,-1.56269 0,-1.0418 0.44648,-1.53789 0.44649,-0.49609 0.99219,-0.49609 0.5457,0 0.89297,0.32246 0.34726,0.32246 0.5209,0.71933 z m -11.6086,-10.41797 q 0.22324,-0.39687 0.54571,-0.71933 0.32246,-0.34727 0.84335,-0.34727 0.57051,0 0.99219,0.4961 0.44649,0.49609 0.44649,1.56269 0,0.86817 -0.32246,1.5627 -0.32247,0.66972 -0.76895,1.26504 -0.44648,0.5705 -0.94258,1.0666 -0.47129,0.47129 -0.79375,0.91777 -0.29765,-0.44648 -0.79375,-0.91777 -0.47129,-0.4961 -0.94258,-1.0666 -0.44648,-0.59532 -0.76894,-1.26504 -0.32246,-0.69453 -0.32246,-1.5627 0,-1.0666 0.42168,-1.56269 0.44648,-0.4961 0.99219,-0.4961 0.5705,0 0.91777,0.34727 0.34726,0.32246 0.49609,0.71933 z m 0,10.41797 q 0.22324,-0.39687 0.54571,-0.71933 0.32246,-0.32246 0.84335,-0.32246 0.57051,0 0.99219,0.49609 0.44649,0.49609 0.44649,1.53789 0,0.86816 -0.32246,1.56269 -0.32247,0.69454 -0.76895,1.26504 -0.44648,0.57051 -0.94258,1.06661 -0.47129,0.47128 -0.79375,0.94257 -0.29765,-0.47129 -0.79375,-0.94257 -0.47129,-0.4961 -0.94258,-1.06661 -0.44648,-0.5705 -0.76894,-1.26504 -0.32246,-0.69453 -0.32246,-1.56269 0,-1.0418 0.42168,-1.53789 0.44648,-0.49609 0.99219,-0.49609 0.5705,0 0.91777,0.32246 0.34726,0.32246 0.49609,0.71933 z m -5.8539,-7.29258 q 0.0992,-0.22324 0.27285,-0.37207 0.17363,-0.17363 0.44648,-0.17363 0.29766,0 0.5209,0.24805 0.22324,0.24804 0.22324,0.79375 0,0.44648 -0.17363,0.81855 -0.17363,0.34727 -0.42168,0.64492 -0.22324,0.27286 -0.47129,0.54571 -0.22324,0.24804 -0.39687,0.47129 -0.17364,-0.22325 -0.42168,-0.47129 -0.22325,-0.27285 -0.47129,-0.54571 -0.22324,-0.29765 -0.39688,-0.64492 -0.17363,-0.37207 -0.17363,-0.81855 0,-0.54571 0.22324,-0.79375 0.24805,-0.24805 0.5209,-0.24805 0.29766,0 0.47129,0.17363 0.17363,0.14883 0.24805,0.37207 z m 5.8539,33.3127 q -0.19844,0.39687 -0.5209,0.71933 -0.32246,0.32247 -0.86816,0.32247 -0.5457,0 -0.99219,-0.4961 -0.44648,-0.49609 -0.44648,-1.53789 0,-0.84336 0.32246,-1.53789 0.34726,-0.71934 0.79375,-1.28984 0.44648,-0.57051 0.91777,-1.0418 0.4961,-0.49609 0.79375,-0.96738 0.32246,0.47129 0.79375,0.96738 0.4961,0.47129 0.94258,1.0418 0.47129,0.5705 0.79375,1.28984 0.32246,0.69453 0.32246,1.53789 0,1.0418 -0.44648,1.53789 -0.44649,0.4961 -0.99219,0.4961 -0.5457,0 -0.89297,-0.32247 -0.34726,-0.32246 -0.5209,-0.71933 z m 0,-10.44277 q -0.19844,0.39687 -0.5209,0.71933 -0.32246,0.32246 -0.86816,0.32246 -0.5457,0 -0.99219,-0.49609 -0.44648,-0.49609 -0.44648,-1.53789 0,-0.84336 0.32246,-1.53789 0.34726,-0.69453 0.79375,-1.26504 0.44648,-0.59531 0.91777,-1.0666 0.4961,-0.4961 0.79375,-0.96739 0.32246,0.47129 0.79375,0.96739 0.4961,0.47129 0.94258,1.0666 0.47129,0.57051 0.79375,1.26504 0.32246,0.69453 0.32246,1.53789 0,1.0418 -0.44648,1.53789 -0.44649,0.49609 -0.99219,0.49609 -0.5457,0 -0.89297,-0.32246 -0.34726,-0.32246 -0.5209,-0.71933 z m 11.6086,10.44277 q -0.22325,0.39687 -0.54571,0.71933 -0.32246,0.32247 -0.84336,0.32247 -0.5457,0 -0.99218,-0.4961 Q 278,428.22107 278,427.17927 q 0,-0.84336 0.32246,-1.53789 0.32246,-0.71934 0.76895,-1.28984 0.44648,-0.57051 0.91777,-1.0418 0.4961,-0.49609 0.81856,-0.96738 0.32246,0.47129 0.79375,0.96738 0.49609,0.47129 0.94257,1.0418 0.44649,0.5705 0.76895,1.28984 0.34726,0.69453 0.34726,1.53789 0,1.0418 -0.44648,1.53789 -0.44648,0.4961 -0.99219,0.4961 -0.5457,0 -0.89297,-0.32247 -0.34726,-0.32246 -0.52089,-0.71933 z m 0,-10.44277 q -0.22325,0.39687 -0.54571,0.71933 -0.32246,0.32246 -0.84336,0.32246 -0.5457,0 -0.99218,-0.49609 Q 278,417.7783 278,416.7365 q 0,-0.84336 0.32246,-1.53789 0.32246,-0.69453 0.76895,-1.26504 0.44648,-0.59531 0.91777,-1.0666 0.4961,-0.4961 0.81856,-0.96739 0.32246,0.47129 0.79375,0.96739 0.49609,0.47129 0.94257,1.0666 0.44649,0.57051 0.76895,1.26504 0.34726,0.69453 0.34726,1.53789 0,1.0418 -0.44648,1.53789 -0.44648,0.49609 -0.99219,0.49609 -0.5457,0 -0.89297,-0.32246 -0.34726,-0.32246 -0.52089,-0.71933 z m 5.8539,7.31738 q -0.0992,0.19844 -0.27285,0.37207 -0.17363,0.14883 -0.44648,0.14883 -0.29766,0 -0.5209,-0.24805 -0.19844,-0.24805 -0.19844,-0.79375 0,-0.44648 0.14883,-0.79375 0.17363,-0.34727 0.39687,-0.64492 0.24805,-0.29766 0.47129,-0.5457 0.24805,-0.27286 0.42168,-0.4961 0.14883,0.22324 0.39688,0.4961 0.27285,0.24804 0.49609,0.5457 0.22324,0.29765 0.39688,0.64492 0.17363,0.34727 0.17363,0.79375 0,0.5457 -0.24805,0.79375 -0.22324,0.24805 -0.49609,0.24805 -0.29766,0 -0.47129,-0.14883 -0.14883,-0.17363 -0.24805,-0.37207 z m -11.6334,-16.86719 q 0.19844,-0.39687 0.5209,-0.71933 0.34727,-0.34727 0.86817,-0.34727 0.5457,0 0.99218,0.49609 0.44649,0.4961 0.44649,1.5627 0,0.86816 -0.32246,1.56269 -0.32246,0.66973 -0.76895,1.26504 -0.44648,0.57051 -0.94258,1.0666 -0.47129,0.47129 -0.79375,0.91778 -0.32246,-0.44649 -0.81855,-0.91778 -0.47129,-0.49609 -0.91777,-1.0666 -0.44649,-0.59531 -0.79375,-1.26504 -0.32247,-0.69453 -0.32247,-1.56269 0,-1.0666 0.44649,-1.5627 0.44648,-0.49609 0.99219,-0.49609 0.5457,0 0.89297,0.34727 0.34726,0.32246 0.52089,0.71933 z"
         style="font-style:normal;font-variant:normal;font-weight:normal;font-stretch:normal;font-size:50.79999924px;line-height:1.25;font-family:serif;-inkscape-font-specification:serif;letter-spacing:0px;word-spacing:0px;fill:#ff0101;fill-opacity:1;stroke:none;stroke-width:0.41033289;stroke-opacity:1"
         id="path8196"
         inkscape:connector-curvature="0" />
      <path
         sodipodi:nodetypes="cccccccccc"
         d="m 290.7,386.35076 v 46.93046 h -31.30352 v -46.93046 z m -30.1625,45.78945 h 29.02148 V 387.49177 H 260.5375 Z"
         style="font-style:normal;font-variant:normal;font-weight:normal;font-stretch:normal;font-size:50.79999924px;line-height:1.25;font-family:serif;-inkscape-font-specification:serif;letter-spacing:0px;word-spacing:0px;fill:#000000;fill-opacity:1;stroke:none;stroke-width:0.41033289"
         id="path8180-3-46"
         inkscape:connector-curvature="0" />
    </g>
  </g>
</svg>
