<?xml version="1.0" encoding="UTF-8" standalone="no"?>
<!-- Created with Inkscape (http://www.inkscape.org/) -->

<svg
   xmlns:dc="http://purl.org/dc/elements/1.1/"
   xmlns:cc="http://creativecommons.org/ns#"
   xmlns:rdf="http://www.w3.org/1999/02/22-rdf-syntax-ns#"
   xmlns:svg="http://www.w3.org/2000/svg"
   xmlns="http://www.w3.org/2000/svg"
   xmlns:sodipodi="http://sodipodi.sourceforge.net/DTD/sodipodi-0.dtd"
   xmlns:inkscape="http://www.inkscape.org/namespaces/inkscape"
   width="31.30352mm"
   height="46.930481mm"
   viewBox="0 0 31.30352 46.930481"
   version="1.1"
   id="svg8"
   inkscape:version="0.92.1 r15371"
   sodipodi:docname="a.svg">
  <defs
     id="defs2" />
  <sodipodi:namedview
     id="base"
     pagecolor="#ffffff"
     bordercolor="#666666"
     borderopacity="1.0"
     inkscape:pageopacity="0.0"
     inkscape:pageshadow="2"
     inkscape:zoom="0.7"
     inkscape:cx="478.57141"
     inkscape:cy="-4.7647524"
     inkscape:document-units="mm"
     inkscape:current-layer="layer1"
     showgrid="false"
     inkscape:window-width="1297"
     inkscape:window-height="991"
     inkscape:window-x="-8"
     inkscape:window-y="0"
     inkscape:window-maximized="0"
     fit-margin-top="0"
     fit-margin-left="0"
     fit-margin-right="0"
     fit-margin-bottom="0"
     inkscape:pagecheckerboard="true"
     showguides="false" />
  <metadata
     id="metadata5">
    <rdf:RDF>
      <cc:Work
         rdf:about="">
        <dc:format>image/svg+xml</dc:format>
        <dc:type
           rdf:resource="http://purl.org/dc/dcmitype/StillImage" />
        <dc:title></dc:title>
      </cc:Work>
    </rdf:RDF>
  </metadata>
  <g
     inkscape:label="Layer 1"
     inkscape:groupmode="layer"
     id="layer1"
     transform="translate(7.3034954,-386.35074)">
    <g
       id="g8912">
      <rect
         y="386.35074"
         x="-7.3034954"
         height="46.93047"
         width="31.303518"
         id="rect8320-67"
         style="fill:#ffffff;fill-opacity:1;stroke:none;stroke-width:1;stroke-miterlimit:4;stroke-dasharray:none;stroke-opacity:1" />
      <path
         d="m 24.00002,386.35076 v 46.93046 H -7.3034954 V 386.35076 Z M -6.1624798,432.14021 H 22.859004 V 387.49177 H -6.1624798 Z m 5.0105468,-39.1666 h -0.6449219 l -0.5208984,-1.36426 h -2.058789 l -0.4712891,1.36426 h -0.6449219 l 1.8851563,-4.86172 h 0.5705078 z m -1.3394531,-1.88516 -0.8433594,-2.38125 -0.8433593,2.38125 z m 20.3150391,35.81797 h 0.644922 l 0.520898,1.36426 h 2.058789 l 0.471289,-1.36426 h 0.644922 l -1.885156,4.86172 h -0.570508 z m 1.339453,1.88516 0.843359,2.38125 0.843359,-2.38125 z M 8.3482622,408.20369 q 0.1984375,-0.39688 0.5208984,-0.71934 0.3472656,-0.32246 0.868164,-0.32246 0.5457034,0 0.9921874,0.49609 0.446484,0.4961 0.446484,1.53789 0,0.86817 -0.32246,1.5627 -0.322461,0.66973 -0.768946,1.26504 -0.4464841,0.57051 -0.9425779,1.0666 -0.471289,0.47129 -0.7937499,0.94258 -0.322461,-0.47129 -0.8185547,-0.94258 -0.4712891,-0.49609 -0.9177734,-1.0666 -0.4464844,-0.59531 -0.79375,-1.26504 -0.322461,-0.69453 -0.322461,-1.5627 0,-1.04179 0.4464844,-1.53789 0.4464844,-0.49609 0.9921875,-0.49609 0.5457031,0 0.8929687,0.32246 0.3472656,0.32246 0.5208985,0.71934 z M -3.3347455,394.85876 q 0.099219,-0.22324 0.2728516,-0.37207 0.1736328,-0.17363 0.4464843,-0.17363 0.2976563,0 0.5208985,0.24805 0.2232422,0.24804 0.2232422,0.79375 0,0.44648 -0.1736329,0.81855 -0.1736328,0.34727 -0.4216796,0.64492 -0.2232422,0.27286 -0.4712891,0.54571 -0.2232422,0.24804 -0.396875,0.47129 -0.1736328,-0.22325 -0.4216797,-0.47129 -0.2232421,-0.27285 -0.471289,-0.54571 -0.2232422,-0.29765 -0.396875,-0.64492 -0.1736328,-0.37207 -0.1736328,-0.81855 0,-0.54571 0.2232422,-0.79375 0.2480468,-0.24805 0.5208984,-0.24805 0.2976562,0 0.471289,0.17363 0.1736329,0.14883 0.2480469,0.37207 z M 19.98166,425.04607 q -0.09922,0.19844 -0.272851,0.37207 -0.173633,0.14883 -0.446485,0.14883 -0.297656,0 -0.520898,-0.24805 -0.198437,-0.24805 -0.198437,-0.79375 0,-0.44648 0.148828,-0.79375 0.173632,-0.34727 0.396875,-0.64492 0.248047,-0.29766 0.471289,-0.5457 0.248047,-0.27286 0.421679,-0.4961 0.148829,0.22324 0.396875,0.4961 0.272852,0.24804 0.496094,0.5457 0.223242,0.29765 0.396875,0.64492 0.173633,0.34727 0.173633,0.79375 0,0.5457 -0.248047,0.79375 -0.223242,0.24805 -0.496094,0.24805 -0.297656,0 -0.471289,-0.14883 -0.148828,-0.17363 -0.248047,-0.37207 z"
         style="font-style:normal;font-variant:normal;font-weight:normal;font-stretch:normal;font-size:50.79999924px;line-height:1.25;font-family:serif;-inkscape-font-specification:serif;letter-spacing:0px;word-spacing:0px;fill:#ff0101;fill-opacity:1;stroke:none;stroke-width:0.41033289;stroke-opacity:1"
         id="path8180"
         inkscape:connector-curvature="0" />
      <path
         sodipodi:nodetypes="cccccccccc"
         d="m 24.000024,386.35076 v 46.93046 H -7.303495 V 386.35076 Z M -6.162475,432.14021 H 22.859004 V 387.49177 H -6.162475 Z"
         style="font-style:normal;font-variant:normal;font-weight:normal;font-stretch:normal;font-size:50.79999924px;line-height:1.25;font-family:serif;-inkscape-font-specification:serif;letter-spacing:0px;word-spacing:0px;fill:#000000;fill-opacity:1;stroke:none;stroke-width:0.41033289"
         id="path8180-3"
         inkscape:connector-curvature="0" />
    </g>
  </g>
</svg>
