<?xml version="1.0" encoding="UTF-8" standalone="no"?>
<!-- Created with Inkscape (http://www.inkscape.org/) -->

<svg
   xmlns:dc="http://purl.org/dc/elements/1.1/"
   xmlns:cc="http://creativecommons.org/ns#"
   xmlns:rdf="http://www.w3.org/1999/02/22-rdf-syntax-ns#"
   xmlns:svg="http://www.w3.org/2000/svg"
   xmlns="http://www.w3.org/2000/svg"
   xmlns:sodipodi="http://sodipodi.sourceforge.net/DTD/sodipodi-0.dtd"
   xmlns:inkscape="http://www.inkscape.org/namespaces/inkscape"
   width="31.30352mm"
   height="46.930481mm"
   viewBox="0 0 31.30352 46.930481"
   version="1.1"
   id="svg8"
   inkscape:version="0.92.1 r15371"
   sodipodi:docname="j.svg">
  <defs
     id="defs2" />
  <sodipodi:namedview
     id="base"
     pagecolor="#ffffff"
     bordercolor="#666666"
     borderopacity="1.0"
     inkscape:pageopacity="0.0"
     inkscape:pageshadow="2"
     inkscape:zoom="0.7"
     inkscape:cx="-97.428451"
     inkscape:cy="-4.7647886"
     inkscape:document-units="mm"
     inkscape:current-layer="layer1"
     showgrid="false"
     inkscape:window-width="1297"
     inkscape:window-height="991"
     inkscape:window-x="-8"
     inkscape:window-y="0"
     inkscape:window-maximized="0"
     fit-margin-top="0"
     fit-margin-left="0"
     fit-margin-right="0"
     fit-margin-bottom="0"
     inkscape:pagecheckerboard="true"
     showguides="false" />
  <metadata
     id="metadata5">
    <rdf:RDF>
      <cc:Work
         rdf:about="">
        <dc:format>image/svg+xml</dc:format>
        <dc:type
           rdf:resource="http://purl.org/dc/dcmitype/StillImage" />
        <dc:title></dc:title>
      </cc:Work>
    </rdf:RDF>
  </metadata>
  <g
     inkscape:label="Layer 1"
     inkscape:groupmode="layer"
     id="layer1"
     transform="translate(-326.07147,-386.35074)">
    <g
       id="g8962">
      <rect
         y="386.35074"
         x="326.07147"
         height="46.93047"
         width="31.303518"
         id="rect8320-664"
         style="fill:#ffffff;fill-opacity:1;stroke:none;stroke-width:1;stroke-miterlimit:4;stroke-dasharray:none;stroke-opacity:1" />
      <path
         d="m 357.37499,386.35076 v 46.93046 h -31.30352 v -46.93046 z m -30.1625,45.78945 h 29.02148 v -44.64844 h -29.02148 z m 23.41562,-39.6875 v 34.72656 h -17.80976 v -34.72656 z m -16.74316,1.0666 v 32.59336 h 15.67656 v -32.59336 z m 18.87637,35.09863 q 0,-0.32246 0.0744,-0.64492 0.0744,-0.32246 0.22324,-0.57051 0.17364,-0.24804 0.42168,-0.39687 0.24805,-0.14883 0.59532,-0.14883 0.29765,0 0.47128,0.0744 v 0.54571 q -0.14882,-0.12403 -0.47128,-0.12403 -0.76895,0 -0.76895,1.26504 v 3.1502 h -0.5457 z m -22.12578,-37.35586 q 0,0.34727 -0.0744,0.66973 -0.0744,0.29766 -0.24804,0.57051 -0.14883,0.24805 -0.39688,0.39687 -0.22324,0.12403 -0.59531,0.12403 -0.29766,0 -0.47129,-0.0744 v -0.5457 q 0.14883,0.12402 0.47129,0.12402 0.76894,0 0.76894,-1.26504 v -3.15019 h 0.54571 z m -0.59532,3.59668 q 0.0992,-0.22324 0.27286,-0.37207 0.17363,-0.17363 0.44648,-0.17363 0.29766,0 0.5209,0.24805 0.22324,0.24804 0.22324,0.79375 0,0.44648 -0.17363,0.81855 -0.17364,0.34727 -0.42168,0.64492 -0.22324,0.27286 -0.47129,0.54571 -0.22324,0.24804 -0.39688,0.47129 -0.17363,-0.22325 -0.42168,-0.47129 -0.22324,-0.27285 -0.47128,-0.54571 -0.22325,-0.29765 -0.39688,-0.64492 -0.17363,-0.37207 -0.17363,-0.81855 0,-0.54571 0.22324,-0.79375 0.24805,-0.24805 0.5209,-0.24805 0.29765,0 0.47129,0.17363 0.17363,0.14883 0.24804,0.37207 z m 23.31641,30.18731 q -0.0992,0.19844 -0.27285,0.37207 -0.17363,0.14883 -0.44649,0.14883 -0.29765,0 -0.52089,-0.24805 -0.19844,-0.24805 -0.19844,-0.79375 0,-0.44648 0.14883,-0.79375 0.17363,-0.34727 0.39687,-0.64492 0.24805,-0.29766 0.47129,-0.5457 0.24805,-0.27286 0.42168,-0.4961 0.14883,0.22324 0.39687,0.4961 0.27286,0.24804 0.4961,0.5457 0.22324,0.29765 0.39687,0.64492 0.17364,0.34727 0.17364,0.79375 0,0.5457 -0.24805,0.79375 -0.22324,0.24805 -0.49609,0.24805 -0.29766,0 -0.47129,-0.14883 -0.14883,-0.17363 -0.24805,-0.37207 z m -16.61914,-30.23692 q 0.19844,-0.37207 0.47129,-0.64492 0.29765,-0.29765 0.76894,-0.29765 0.47129,0 0.86817,0.44648 0.39687,0.42168 0.39687,1.36426 0,0.71933 -0.29765,1.33945 -0.27285,0.62012 -0.69453,1.14102 -0.39688,0.49609 -0.81856,0.91777 -0.42168,0.42168 -0.69453,0.81856 -0.27285,-0.39688 -0.69453,-0.81856 -0.42168,-0.42168 -0.81856,-0.91777 -0.39687,-0.5209 -0.69453,-1.14102 -0.27285,-0.62012 -0.27285,-1.33945 0,-0.94258 0.39688,-1.36426 0.39687,-0.44648 0.86816,-0.44648 0.49609,0 0.76895,0.29765 0.29765,0.27285 0.44648,0.64492 z m 9.72344,29.98887 q -0.17364,0.34727 -0.47129,0.64492 -0.27285,0.27285 -0.74414,0.27285 -0.4961,0 -0.89297,-0.42167 -0.37207,-0.44649 -0.37207,-1.36426 0,-0.74414 0.27285,-1.33946 0.29766,-0.62011 0.69453,-1.11621 0.39688,-0.49609 0.81856,-0.91777 0.42168,-0.44648 0.69453,-0.84336 0.27285,0.39688 0.69453,0.84336 0.42168,0.42168 0.81855,0.91777 0.42168,0.4961 0.69453,1.11621 0.29766,0.59532 0.29766,1.33946 0,0.91777 -0.39687,1.36426 -0.39688,0.42167 -0.86817,0.42167 -0.49609,0 -0.79375,-0.27285 -0.29765,-0.29765 -0.44648,-0.64492 z m 0.37207,-28.10371 h -6.27559 l -1.0418,-2.53008 h 8.35918 z m -4.91133,2.55488 -0.64492,-0.5705 1.41386,0.14882 z m 0.84336,3.89434 q -0.5457,0.0496 -1.26504,0.19844 -0.69453,0.14883 -1.41387,0.42168 -0.69453,0.24804 -1.36426,0.66972 -0.64492,0.42168 -1.11621,1.017 -0.79375,1.01699 -1.24023,2.25722 -0.42168,1.24024 -0.64492,2.38125 -0.24805,1.31465 -0.34727,2.67891 h -0.44648 q 0.0744,-1.31465 0.32246,-2.6293 0.22324,-1.14101 0.69453,-2.45566 0.49609,-1.31465 1.36426,-2.45567 0.5209,-0.66972 1.21543,-1.0914 0.69453,-0.44649 1.41386,-0.71934 0.71934,-0.29766 1.38907,-0.42168 0.69453,-0.14883 1.16582,-0.19844 l 0.22324,-0.69453 -1.48828,-0.12402 -0.4961,-1.21543 0.34727,-0.19844 -0.42168,-0.19844 0.0744,-0.37207 -0.62011,-0.12402 v -0.22324 l 0.59531,-0.99219 -0.24805,-0.29765 0.0992,-1.26504 h 6.27559 l 1.56269,6.07714 h -3.67109 l -1.14102,-5.72988 h -2.6541 l -0.0992,0.86817 0.24805,0.34726 -0.5457,1.0666 0.5457,0.0744 -0.0744,0.5457 0.47128,0.17363 -0.37207,0.29766 0.42168,0.91777 1.63711,0.0992 z m -6.37481,19.71973 h 6.25079 l 1.0666,2.53007 h -8.38399 z m 4.91133,-2.55489 0.62012,0.57051 -1.38906,-0.14883 z m -0.86816,-3.89433 q 0.5457,-0.0496 1.24023,-0.19844 0.69453,-0.14883 1.41387,-0.39688 0.71934,-0.27285 1.36426,-0.69453 0.66972,-0.42168 1.14101,-1.01699 0.79375,-0.99219 1.24024,-2.23242 0.44648,-1.26504 0.66972,-2.40606 0.24805,-1.28984 0.32246,-2.6789 h 0.44649 q -0.0496,1.31465 -0.29766,2.6541 -0.24804,1.14102 -0.74414,2.48047 -0.47129,1.31465 -1.33945,2.43086 -0.49609,0.64492 -1.19063,1.0914 -0.69453,0.44649 -1.43867,0.74415 -0.71933,0.27285 -1.38906,0.42167 -0.66973,0.12403 -1.16582,0.17364 l -0.19844,0.69453 1.46348,0.12402 0.5209,1.19063 -0.37207,0.22324 0.42168,0.17363 -0.0496,0.39688 0.59531,0.12402 v 0.19844 l -0.59531,0.99219 0.27285,0.32246 -0.12402,1.26504 h -6.25079 l -1.5875,-6.10196 h 3.6959 l 1.14102,5.72989 h 2.6541 l 0.0744,-0.84336 -0.24804,-0.34727 0.5705,-1.0666 -0.5457,-0.0992 0.0744,-0.5209 -0.47129,-0.19844 0.34726,-0.29765 -0.42168,-0.89297 -1.6123,-0.0992 z"
         style="font-style:normal;font-variant:normal;font-weight:normal;font-stretch:normal;font-size:50.79999924px;line-height:1.25;font-family:serif;-inkscape-font-specification:serif;letter-spacing:0px;word-spacing:0px;fill:#ff0101;fill-opacity:1;stroke:none;stroke-width:0.41033289;stroke-opacity:1"
         id="path8200"
         inkscape:connector-curvature="0" />
      <path
         sodipodi:nodetypes="cccccccccc"
         d="m 357.37499,386.35076 v 46.93046 h -31.30352 v -46.93046 z m -30.1625,45.78945 h 29.02148 v -44.64844 h -29.02148 z"
         style="font-style:normal;font-variant:normal;font-weight:normal;font-stretch:normal;font-size:50.79999924px;line-height:1.25;font-family:serif;-inkscape-font-specification:serif;letter-spacing:0px;word-spacing:0px;fill:#000000;fill-opacity:1;stroke:none;stroke-width:0.41033289"
         id="path8180-3-7"
         inkscape:connector-curvature="0" />
    </g>
  </g>
</svg>
