<?xml version="1.0" encoding="UTF-8" standalone="no"?>
<!-- Created with Inkscape (http://www.inkscape.org/) -->

<svg
   xmlns:dc="http://purl.org/dc/elements/1.1/"
   xmlns:cc="http://creativecommons.org/ns#"
   xmlns:rdf="http://www.w3.org/1999/02/22-rdf-syntax-ns#"
   xmlns:svg="http://www.w3.org/2000/svg"
   xmlns="http://www.w3.org/2000/svg"
   xmlns:sodipodi="http://sodipodi.sourceforge.net/DTD/sodipodi-0.dtd"
   xmlns:inkscape="http://www.inkscape.org/namespaces/inkscape"
   width="31.303524mm"
   height="46.930481mm"
   viewBox="0 0 31.303524 46.930481"
   version="1.1"
   id="svg8"
   inkscape:version="0.92.1 r15371"
   sodipodi:docname="q.svg">
  <defs
     id="defs2" />
  <sodipodi:namedview
     id="base"
     pagecolor="#ffffff"
     bordercolor="#666666"
     borderopacity="1.0"
     inkscape:pageopacity="0.0"
     inkscape:pageshadow="2"
     inkscape:zoom="0.7"
     inkscape:cx="-223.42844"
     inkscape:cy="-4.7647922"
     inkscape:document-units="mm"
     inkscape:current-layer="layer1"
     showgrid="false"
     inkscape:window-width="1297"
     inkscape:window-height="991"
     inkscape:window-x="-8"
     inkscape:window-y="0"
     inkscape:window-maximized="0"
     fit-margin-top="0"
     fit-margin-left="0"
     fit-margin-right="0"
     fit-margin-bottom="0"
     inkscape:pagecheckerboard="true"
     showguides="false" />
  <metadata
     id="metadata5">
    <rdf:RDF>
      <cc:Work
         rdf:about="">
        <dc:format>image/svg+xml</dc:format>
        <dc:type
           rdf:resource="http://purl.org/dc/dcmitype/StillImage" />
        <dc:title></dc:title>
      </cc:Work>
    </rdf:RDF>
  </metadata>
  <g
     inkscape:label="Layer 1"
     inkscape:groupmode="layer"
     id="layer1"
     transform="translate(-359.40897,-386.35074)">
    <g
       id="g8967">
      <rect
         y="386.35074"
         x="359.40897"
         height="46.93047"
         width="31.303518"
         id="rect8320-72"
         style="fill:#ffffff;fill-opacity:1;stroke:none;stroke-width:1;stroke-miterlimit:4;stroke-dasharray:none;stroke-opacity:1" />
      <path
         d="m 390.71248,386.35076 v 46.93046 h -31.30351 v -46.93046 z m -30.1625,45.78945 h 29.02149 v -44.64844 h -29.02149 z m 23.41563,-39.6875 v 34.72656 h -17.80977 v -34.72656 z m -16.74317,1.0666 v 32.59336 h 15.67657 v -32.59336 z m 12.20391,7.66465 q -0.49609,0.69453 -1.28984,1.26504 -0.76895,0.5457 -1.88516,0.5457 -0.5457,0 -0.99219,-0.47129 -0.27285,0.0496 -0.79375,0.17364 -0.49609,0.0992 -1.11621,0.34726 -0.62012,0.24805 -1.26504,0.69453 -0.62011,0.42168 -1.14101,1.09141 -0.79375,0.99219 -1.24024,2.25722 -0.42168,1.24024 -0.64492,2.38125 -0.24805,1.28985 -0.34726,2.67891 h -0.44649 q 0.0744,-1.31465 0.32246,-2.6541 0.22324,-1.14102 0.69453,-2.45566 0.4961,-1.31465 1.36426,-2.45567 0.5457,-0.66973 1.16582,-1.11621 0.64492,-0.44648 1.26504,-0.71934 0.62012,-0.27285 1.11621,-0.39687 0.5209,-0.12402 0.74414,-0.17363 -0.49609,-0.62012 -0.79375,-1.53789 -0.27285,-0.91778 -0.27285,-1.83555 0,-0.62012 0.12402,-1.41387 0.12403,-0.79375 0.44649,-1.51308 0.34726,-0.71934 0.94258,-1.19063 0.59531,-0.49609 1.53789,-0.49609 1.0914,0 1.81074,0.34726 0.71934,0.32246 1.16582,0.94258 0.44648,0.59531 0.71934,1.41387 0.27285,0.81855 0.52089,1.76113 l 1.28985,6.97012 h -2.40606 z m -3.12539,1.48828 q 0.57051,0 1.01699,-0.14883 0.47129,-0.17363 0.84336,-0.44648 0.39688,-0.27285 0.69453,-0.62012 0.29766,-0.34726 0.4961,-0.69453 l -0.29766,-2.20762 q -0.12402,-0.74414 -0.44648,-1.31465 -0.27286,-0.47128 -0.76895,-0.86816 -0.47129,-0.42168 -1.28984,-0.42168 -0.59532,0 -0.99219,0.14883 -0.39688,0.12402 -0.64492,0.29765 -0.29766,0.17364 -0.47129,0.42168 -0.0496,0.17364 -0.12403,0.47129 -0.0248,0.24805 -0.0744,0.64493 -0.0496,0.37207 -0.0496,0.86816 0,0.64492 0.17363,1.33945 0.17364,0.66973 0.44649,1.24024 0.29765,0.5705 0.66973,0.94258 0.37207,0.34726 0.81855,0.34726 z m 1.46348,-4.29121 q 0.32246,0 0.52089,0.0992 0.22325,0.0992 0.22325,0.24805 0,0.14882 -0.22325,0.24804 -0.19843,0.0992 -0.52089,0.0992 -0.32246,0 -0.54571,-0.0992 -0.19843,-0.0992 -0.19843,-0.24804 0,-0.14883 0.19843,-0.24805 0.22325,-0.0992 0.54571,-0.0992 z m -2.6293,0 q 0.32246,0 0.5457,0.0992 0.22324,0.0992 0.22324,0.24805 0,0.14882 -0.22324,0.24804 -0.22324,0.0992 -0.5457,0.0992 -0.29766,0 -0.5209,-0.0992 -0.19844,-0.0992 -0.19844,-0.24804 0,-0.14883 0.19844,-0.24805 0.22324,-0.0992 0.5209,-0.0992 z m 1.11621,0.5457 h 0.22324 v 1.53789 h -0.49609 z m -0.64492,2.23242 h 1.63711 v 0.32247 h -1.63711 z m -12.30313,-8.13593 q -1.0666,0 -1.66191,-0.69453 -0.57051,-0.71934 -0.57051,-1.73633 0,-1.11621 0.59531,-1.83555 0.62012,-0.74414 1.76114,-0.74414 1.04179,0 1.6123,0.71934 0.59531,0.71933 0.59531,1.73632 0,0.91778 -0.39687,1.61231 -0.39688,0.66973 -1.28984,0.89297 0.34726,0.34726 0.62011,0.57051 0.29766,0.19843 0.69453,0.19843 0.12403,0 0.24805,0 0.14883,-0.0248 0.24805,-0.0744 v 0.5457 q -0.0992,0.0496 -0.27285,0.0744 -0.14883,0 -0.24805,0 -0.64492,0 -1.0666,-0.37207 -0.42168,-0.37207 -0.86817,-0.89297 z m 0.0496,-4.48965 q -0.81855,0 -1.26504,0.59531 -0.44648,0.59531 -0.44648,1.41387 0,0.79375 0.42168,1.41387 0.42168,0.59531 1.26504,0.59531 0.89297,0 1.28984,-0.57051 0.42168,-0.57051 0.42168,-1.43867 0,-0.86817 -0.39687,-1.43867 -0.39688,-0.57051 -1.28985,-0.57051 z m 23.44043,38.32324 q 1.0418,0 1.63711,0.71934 0.59531,0.69453 0.59531,1.71152 0,1.11621 -0.62011,1.83555 -0.62012,0.74414 -1.76114,0.74414 -1.04179,0 -1.6371,-0.71934 -0.57051,-0.71933 -0.57051,-1.71152 0,-0.94258 0.39687,-1.63711 0.42168,-0.66973 1.28985,-0.89297 -0.34727,-0.34727 -0.64493,-0.5457 -0.27285,-0.22325 -0.64492,-0.22325 -0.14883,0 -0.29765,0.0248 -0.12403,0.0248 -0.22325,0.0496 v -0.5457 q 0.0992,-0.0248 0.24805,-0.0248 0.17363,-0.0248 0.27285,-0.0248 0.66973,0 1.09141,0.37207 0.42168,0.34726 0.86816,0.86816 z m -0.0744,4.48965 q 0.81855,0 1.26504,-0.59531 0.44648,-0.59532 0.44648,-1.41387 0,-0.79375 -0.42168,-1.41387 -0.42168,-0.59531 -1.26504,-0.59531 -0.89297,0 -1.31465,0.57051 -0.39687,0.57051 -0.39687,1.43867 0,0.86816 0.39687,1.43867 0.39688,0.57051 1.28985,0.57051 z m -16.09824,-12.97285 q 0.47129,-0.69453 1.24023,-1.24024 0.79375,-0.5705 1.93477,-0.5705 0.52089,0 0.99218,0.47128 0.24805,-0.0496 0.76895,-0.14882 0.5209,-0.12403 1.11621,-0.37207 0.62012,-0.27286 1.24023,-0.69454 0.64493,-0.44648 1.16582,-1.0914 0.79375,-0.99219 1.21543,-2.23242 0.44649,-1.26504 0.69454,-2.40606 0.24804,-1.31465 0.32246,-2.6789 h 0.44648 q -0.0496,1.31464 -0.29766,2.62929 -0.24804,1.14102 -0.74414,2.48047 -0.47128,1.31465 -1.33945,2.43086 -0.5209,0.69453 -1.16582,1.14102 -0.64492,0.42168 -1.26504,0.69453 -0.59531,0.27285 -1.11621,0.42168 -0.49609,0.12402 -0.71934,0.14883 0.47129,0.64492 0.74415,1.56269 0.29765,0.91777 0.29765,1.81074 0,0.64492 -0.12402,1.43867 -0.0992,0.79375 -0.44649,1.51309 -0.32246,0.69453 -0.91777,1.19063 -0.59531,0.47128 -1.53789,0.47128 -1.11621,0 -1.83555,-0.32246 -0.69453,-0.34726 -1.16582,-0.94257 -0.44648,-0.59532 -0.71933,-1.41387 -0.27285,-0.81856 -0.4961,-1.78594 l -1.31465,-6.94531 h 2.43086 z m 3.10058,-1.48828 q -0.57051,0 -1.04179,0.17363 -0.44649,0.14883 -0.84336,0.42168 -0.37207,0.27285 -0.66973,0.62012 -0.27285,0.34726 -0.49609,0.69453 l 0.29765,2.20761 q 0.14883,0.71934 0.47129,1.28985 0.27285,0.49609 0.74414,0.91777 0.4961,0.39688 1.28985,0.39688 0.59531,0 0.99218,-0.12403 0.39688,-0.12402 0.66973,-0.29765 0.27285,-0.19844 0.44648,-0.44649 0.0744,-0.19843 0.12403,-0.47129 0.0496,-0.27285 0.0744,-0.62011 0.0496,-0.37207 0.0496,-0.91778 0,-0.62011 -0.17363,-1.28984 -0.14883,-0.69453 -0.44649,-1.26504 -0.27285,-0.57051 -0.66972,-0.91777 -0.37207,-0.37207 -0.81856,-0.37207 z m -1.43867,4.2664 q -0.32246,0 -0.5457,-0.0744 -0.22324,-0.0992 -0.22324,-0.24805 0,-0.14883 0.22324,-0.24805 0.22324,-0.0992 0.5457,-0.0992 0.32246,0 0.5209,0.0992 0.22324,0.0992 0.22324,0.24805 0,0.14883 -0.22324,0.24805 -0.19844,0.0744 -0.5209,0.0744 z m 2.60449,0 q -0.32246,0 -0.5457,-0.0744 -0.19844,-0.0992 -0.19844,-0.24805 0,-0.14883 0.19844,-0.24805 0.22324,-0.0992 0.5457,-0.0992 0.32246,0 0.5209,0.0992 0.22324,0.0992 0.22324,0.24805 0,0.14883 -0.22324,0.24805 -0.19844,0.0744 -0.5209,0.0744 z m -1.0914,-0.5457 h -0.22325 v -1.53789 h 0.4961 z m 0.62011,-2.20762 h -1.63711 v -0.34726 h 1.63711 z m -11.03808,-23.53965 q 0.0992,-0.22324 0.27285,-0.37207 0.17363,-0.17363 0.44648,-0.17363 0.29766,0 0.5209,0.24805 0.22324,0.24804 0.22324,0.79375 0,0.44648 -0.17363,0.81855 -0.17363,0.34727 -0.42168,0.64492 -0.22324,0.27286 -0.47129,0.54571 -0.22324,0.24804 -0.39687,0.47129 -0.17363,-0.22325 -0.42168,-0.47129 -0.22324,-0.27285 -0.47129,-0.54571 -0.22324,-0.29765 -0.39688,-0.64492 -0.17363,-0.37207 -0.17363,-0.81855 0,-0.54571 0.22324,-0.79375 0.24805,-0.24805 0.5209,-0.24805 0.29766,0 0.47129,0.17363 0.17363,0.14883 0.24805,0.37207 z m 23.3164,30.18731 q -0.0992,0.19844 -0.27285,0.37207 -0.17363,0.14883 -0.44648,0.14883 -0.29766,0 -0.5209,-0.24805 -0.19844,-0.24805 -0.19844,-0.79375 0,-0.44648 0.14883,-0.79375 0.17363,-0.34727 0.39688,-0.64492 0.24804,-0.29766 0.47128,-0.5457 0.24805,-0.27286 0.42168,-0.4961 0.14883,0.22324 0.39688,0.4961 0.27285,0.24804 0.49609,0.5457 0.22324,0.29765 0.39688,0.64492 0.17363,0.34727 0.17363,0.79375 0,0.5457 -0.24805,0.79375 -0.22324,0.24805 -0.49609,0.24805 -0.29766,0 -0.47129,-0.14883 -0.14883,-0.17363 -0.24805,-0.37207 z m -16.61914,-30.23692 q 0.19844,-0.37207 0.47129,-0.64492 0.29766,-0.29765 0.76895,-0.29765 0.47129,0 0.86816,0.44648 0.39688,0.42168 0.39688,1.36426 0,0.71933 -0.29766,1.33945 -0.27285,0.62012 -0.69453,1.14102 -0.39688,0.49609 -0.81856,0.91777 -0.42168,0.42168 -0.69453,0.81856 -0.27285,-0.39688 -0.69453,-0.81856 -0.42168,-0.42168 -0.81855,-0.91777 -0.39688,-0.5209 -0.69453,-1.14102 -0.27286,-0.62012 -0.27286,-1.33945 0,-0.94258 0.39688,-1.36426 0.39687,-0.44648 0.86816,-0.44648 0.4961,0 0.76895,0.29765 0.29766,0.27285 0.44648,0.64492 z m 9.72344,29.98887 q -0.17363,0.34727 -0.47129,0.64492 -0.27285,0.27285 -0.74414,0.27285 -0.49609,0 -0.89297,-0.42167 -0.37207,-0.44649 -0.37207,-1.36426 0,-0.74414 0.27285,-1.33946 0.29766,-0.62011 0.69453,-1.11621 0.39688,-0.49609 0.81856,-0.91777 0.42168,-0.44648 0.69453,-0.84336 0.27285,0.39688 0.69453,0.84336 0.42168,0.42168 0.81856,0.91777 0.42168,0.4961 0.69453,1.11621 0.29765,0.59532 0.29765,1.33946 0,0.91777 -0.39687,1.36426 -0.39688,0.42167 -0.86816,0.42167 -0.4961,0 -0.79375,-0.27285 -0.29766,-0.29765 -0.44649,-0.64492 z"
         style="font-style:normal;font-variant:normal;font-weight:normal;font-stretch:normal;font-size:50.79999924px;line-height:1.25;font-family:serif;-inkscape-font-specification:serif;letter-spacing:0px;word-spacing:0px;fill:#ff0101;fill-opacity:1;stroke:none;stroke-width:0.41033289;stroke-opacity:1"
         id="path8202"
         inkscape:connector-curvature="0" />
      <path
         sodipodi:nodetypes="cccccccccc"
         d="m 390.71249,386.35076 v 46.93046 h -31.30352 v -46.93046 z m -30.1625,45.78945 h 29.02148 v -44.64844 h -29.02148 z"
         style="font-style:normal;font-variant:normal;font-weight:normal;font-stretch:normal;font-size:50.79999924px;line-height:1.25;font-family:serif;-inkscape-font-specification:serif;letter-spacing:0px;word-spacing:0px;fill:#000000;fill-opacity:1;stroke:none;stroke-width:0.41033289"
         id="path8180-3-18"
         inkscape:connector-curvature="0" />
    </g>
  </g>
</svg>
