<?xml version="1.0" encoding="UTF-8" standalone="no"?>
<!-- Created with Inkscape (http://www.inkscape.org/) -->

<svg
   xmlns:dc="http://purl.org/dc/elements/1.1/"
   xmlns:cc="http://creativecommons.org/ns#"
   xmlns:rdf="http://www.w3.org/1999/02/22-rdf-syntax-ns#"
   xmlns:svg="http://www.w3.org/2000/svg"
   xmlns="http://www.w3.org/2000/svg"
   xmlns:sodipodi="http://sodipodi.sourceforge.net/DTD/sodipodi-0.dtd"
   xmlns:inkscape="http://www.inkscape.org/namespaces/inkscape"
   width="31.30352mm"
   height="46.930481mm"
   viewBox="0 0 31.30352 46.930481"
   version="1.1"
   id="svg8"
   inkscape:version="0.92.1 r15371"
   sodipodi:docname="10.svg">
  <defs
     id="defs2" />
  <sodipodi:namedview
     id="base"
     pagecolor="#ffffff"
     bordercolor="#666666"
     borderopacity="1.0"
     inkscape:pageopacity="0.0"
     inkscape:pageshadow="2"
     inkscape:zoom="0.7"
     inkscape:cx="150.31039"
     inkscape:cy="63.806597"
     inkscape:document-units="mm"
     inkscape:current-layer="layer1"
     showgrid="false"
     inkscape:window-width="1297"
     inkscape:window-height="991"
     inkscape:window-x="-8"
     inkscape:window-y="0"
     inkscape:window-maximized="0"
     fit-margin-top="0"
     fit-margin-left="0"
     fit-margin-right="0"
     fit-margin-bottom="0"
     inkscape:pagecheckerboard="true"
     showguides="false" />
  <metadata
     id="metadata5">
    <rdf:RDF>
      <cc:Work
         rdf:about="">
        <dc:format>image/svg+xml</dc:format>
        <dc:type
           rdf:resource="http://purl.org/dc/dcmitype/StillImage" />
        <dc:title></dc:title>
      </cc:Work>
    </rdf:RDF>
  </metadata>
  <g
     inkscape:label="Layer 1"
     inkscape:groupmode="layer"
     id="layer1"
     transform="translate(-326.07147,-449.85074)">
    <rect
       style="fill:#ffffff;fill-opacity:1;stroke:none;stroke-width:1;stroke-miterlimit:4;stroke-dasharray:none;stroke-opacity:1"
       id="rect8320-77"
       width="31.303518"
       height="46.93047"
       x="326.07147"
       y="449.85074" />
    <path
       inkscape:connector-curvature="0"
       id="path8226"
       style="font-style:normal;font-variant:normal;font-weight:normal;font-stretch:normal;font-size:50.79999924px;line-height:1.25;font-family:serif;-inkscape-font-specification:serif;letter-spacing:0px;word-spacing:0px;fill:#ff0101;fill-opacity:1;stroke:none;stroke-width:0.41033289;stroke-opacity:1"
       d="m 357.37499,449.85076 v 46.93046 h -31.30352 v -46.93046 z m -30.1625,45.78945 h 29.02148 v -44.64844 h -29.02148 z m 6.30039,-38.1 2.40605,-3.49746 2.43086,3.49746 -2.43086,3.49746 z m 0,10.46758 2.40605,-3.49746 2.43086,3.49746 -2.43086,3.49746 z m 0,10.79004 2.40605,-3.49747 2.43086,3.49747 -2.43086,3.49746 z m 0,10.51718 2.40605,-3.49746 2.43086,3.49746 -2.43086,3.49746 z m 11.58379,-31.7748 2.40605,-3.49746 2.43086,3.49746 -2.43086,3.49746 z m 0,10.46758 2.40605,-3.49746 2.43086,3.49746 -2.43086,3.49746 z m 0,10.79004 2.40605,-3.49747 2.43086,3.49747 -2.43086,3.49746 z m 0,10.51718 2.40605,-3.49746 2.43086,3.49746 -2.43086,3.49746 z m -5.77949,-26.4914 2.40605,-3.49746 2.43086,3.49746 -2.43086,3.49746 z m 0,21.28242 2.40605,-3.49746 2.43086,3.49746 -2.43086,3.49746 z m -10.69082,-24.50703 1.41386,-2.05879 1.38907,2.05879 -1.38907,1.98437 z m 0.86816,-3.12539 h -1.76113 v -0.4961 h 0.62012 v -3.67109 l -0.76895,0.27285 v -0.49609 l 1.26504,-0.47129 v 4.36562 h 0.64492 z m 1.53789,0.0744 q -0.44648,0 -0.71933,-0.22324 -0.27286,-0.22324 -0.44649,-0.57051 -0.17363,-0.34726 -0.24805,-0.76894 -0.0496,-0.42168 -0.0496,-0.79375 0,-0.42168 0.0496,-0.86817 0.0496,-0.44648 0.19844,-0.81855 0.17363,-0.37207 0.44649,-0.59532 0.27285,-0.24804 0.76894,-0.24804 0.69453,0 1.0666,0.66972 0.37207,0.64493 0.37207,1.86036 0,0.39687 -0.0496,0.81855 -0.0496,0.42168 -0.22324,0.76895 -0.14883,0.32246 -0.42168,0.5457 -0.27285,0.22324 -0.74414,0.22324 z m 0,-4.44004 q -0.94258,0 -0.94258,2.0836 0,1.90996 0.94258,1.90996 0.47129,0 0.69453,-0.44649 0.22324,-0.47129 0.22324,-1.46347 0,-1.017 -0.24804,-1.53789 -0.22324,-0.54571 -0.66973,-0.54571 z m 23.73809,35.19785 -1.41387,2.03399 -1.38906,-2.03399 1.38906,-2.00918 z m -0.86817,3.10059 h 1.78594 v 0.49609 h -0.64492 v 3.6711 l 0.76894,-0.27286 v 0.4961 l -1.26504,0.47129 v -4.36563 h -0.64492 z m -1.53789,-0.0744 q 0.44649,0 0.71934,0.22325 0.27285,0.22324 0.44648,0.5705 0.17364,0.34727 0.22324,0.76895 0.0744,0.42168 0.0744,0.79375 0,0.42168 -0.0496,0.86816 -0.0496,0.47129 -0.19844,0.81856 -0.14883,0.37207 -0.44648,0.59531 -0.27285,0.24805 -0.76895,0.24805 -0.69453,0 -1.0666,-0.66973 -0.37207,-0.64492 -0.37207,-1.86035 0,-0.39687 0.0496,-0.81855 0.0744,-0.42168 0.22324,-0.76895 0.14883,-0.32246 0.42168,-0.5457 0.29766,-0.22325 0.74414,-0.22325 z m 0,4.44004 q 0.94258,0 0.94258,-2.08359 0,-1.88516 -0.94258,-1.88516 -0.44648,0 -0.66972,0.44649 -0.22325,0.44648 -0.22325,1.43867 0,1.01699 0.22325,1.53789 0.22324,0.5457 0.66972,0.5457 z" />
    <path
       inkscape:connector-curvature="0"
       id="path8180-3-5"
       style="font-style:normal;font-variant:normal;font-weight:normal;font-stretch:normal;font-size:50.79999924px;line-height:1.25;font-family:serif;-inkscape-font-specification:serif;letter-spacing:0px;word-spacing:0px;fill:#000000;fill-opacity:1;stroke:none;stroke-width:0.41033289"
       d="m 357.37499,449.85076 v 46.93046 h -31.30352 v -46.93046 z m -30.1625,45.78945 h 29.02148 v -44.64844 h -29.02148 z"
       sodipodi:nodetypes="cccccccccc" />
  </g>
</svg>
