<?xml version="1.0" encoding="UTF-8" standalone="no"?>
<!-- Created with Inkscape (http://www.inkscape.org/) -->

<svg
   xmlns:dc="http://purl.org/dc/elements/1.1/"
   xmlns:cc="http://creativecommons.org/ns#"
   xmlns:rdf="http://www.w3.org/1999/02/22-rdf-syntax-ns#"
   xmlns:svg="http://www.w3.org/2000/svg"
   xmlns="http://www.w3.org/2000/svg"
   xmlns:sodipodi="http://sodipodi.sourceforge.net/DTD/sodipodi-0.dtd"
   xmlns:inkscape="http://www.inkscape.org/namespaces/inkscape"
   width="31.30352mm"
   height="46.930481mm"
   viewBox="0 0 31.30352 46.930481"
   version="1.1"
   id="svg8"
   inkscape:version="0.92.1 r15371"
   sodipodi:docname="2.svg">
  <defs
     id="defs2" />
  <sodipodi:namedview
     id="base"
     pagecolor="#ffffff"
     bordercolor="#666666"
     borderopacity="1.0"
     inkscape:pageopacity="0.0"
     inkscape:pageshadow="2"
     inkscape:zoom="0.7"
     inkscape:cx="226.57144"
     inkscape:cy="63.806625"
     inkscape:document-units="mm"
     inkscape:current-layer="layer1"
     showgrid="false"
     inkscape:window-width="1297"
     inkscape:window-height="991"
     inkscape:window-x="-8"
     inkscape:window-y="0"
     inkscape:window-maximized="0"
     fit-margin-top="0"
     fit-margin-left="0"
     fit-margin-right="0"
     fit-margin-bottom="0"
     inkscape:pagecheckerboard="true"
     showguides="false" />
  <metadata
     id="metadata5">
    <rdf:RDF>
      <cc:Work
         rdf:about="">
        <dc:format>image/svg+xml</dc:format>
        <dc:type
           rdf:resource="http://purl.org/dc/dcmitype/StillImage" />
        <dc:title></dc:title>
      </cc:Work>
    </rdf:RDF>
  </metadata>
  <g
     inkscape:label="Layer 1"
     inkscape:groupmode="layer"
     id="layer1"
     transform="translate(-59.371496,-449.85074)">
    <rect
       style="fill:#ffffff;fill-opacity:1;stroke:none;stroke-width:1;stroke-miterlimit:4;stroke-dasharray:none;stroke-opacity:1"
       id="rect8320-87"
       width="31.303518"
       height="46.93047"
       x="59.371498"
       y="449.85074" />
    <path
       inkscape:connector-curvature="0"
       id="path8210"
       style="font-style:normal;font-variant:normal;font-weight:normal;font-stretch:normal;font-size:50.79999924px;line-height:1.25;font-family:serif;-inkscape-font-specification:serif;letter-spacing:0px;word-spacing:0px;fill:#ff0101;fill-opacity:1;stroke:none;stroke-width:0.41033289;stroke-opacity:1"
       d="m 90.675015,449.85076 v 46.93046 H 59.3715 V 449.85076 Z M 60.512516,495.64021 H 89.534 V 450.99177 H 60.512516 Z m 3.894335,-39.1666 h -2.306835 v -0.4961 l 1.066601,-1.38906 q 0.322461,-0.42168 0.570508,-0.79375 0.248047,-0.37207 0.248047,-0.79375 0,-0.42168 -0.223242,-0.64492 -0.198438,-0.22324 -0.545703,-0.22324 -0.223243,0 -0.47129,0.12402 -0.248046,0.12402 -0.446484,0.39688 v -0.54571 q 0.396875,-0.44648 0.992188,-0.44648 0.496093,0 0.818554,0.37207 0.322461,0.37207 0.322461,0.91777 0,0.59531 -0.297656,1.0418 -0.297656,0.42168 -0.669727,0.89297 l -0.868164,1.0666 h 1.810742 z m 21.232813,33.908 H 87.9465 v 0.47129 l -1.066602,1.38907 q -0.322461,0.42168 -0.570508,0.79375 -0.248047,0.39687 -0.248047,0.81855 0,0.42168 0.198438,0.64492 0.223242,0.22324 0.570508,0.22324 0.223242,0 0.471289,-0.12402 0.248047,-0.12402 0.446484,-0.39687 v 0.5457 q -0.42168,0.42168 -0.992187,0.42168 -0.496094,0 -0.818555,-0.37207 -0.322461,-0.34727 -0.322461,-0.89297 0,-0.59531 0.272852,-1.0418 0.297656,-0.44648 0.694531,-0.91777 l 0.868164,-1.0666 H 85.639664 Z M 61.926383,459.599 l 1.413867,-2.05879 1.389062,2.05879 -1.389062,1.98437 z m 26.14414,27.70683 -1.413867,2.03399 -1.389063,-2.03399 1.389063,-2.00918 z m -15.45332,-29.76562 2.406055,-3.49746 2.430859,3.49746 -2.430859,3.49746 z m 0,31.7748 2.406055,-3.49746 2.430859,3.49746 -2.430859,3.49746 z" />
    <path
       inkscape:connector-curvature="0"
       id="path8180-3-619"
       style="font-style:normal;font-variant:normal;font-weight:normal;font-stretch:normal;font-size:50.79999924px;line-height:1.25;font-family:serif;-inkscape-font-specification:serif;letter-spacing:0px;word-spacing:0px;fill:#000000;fill-opacity:1;stroke:none;stroke-width:0.41033289"
       d="m 90.675016,449.85076 v 46.93046 h -31.30352 v -46.93046 z m -30.1625,45.78945 h 29.02148 v -44.64844 h -29.02148 z"
       sodipodi:nodetypes="cccccccccc" />
  </g>
</svg>
