<?xml version="1.0" encoding="UTF-8" standalone="no"?>
<!-- Created with Inkscape (http://www.inkscape.org/) -->

<svg
   xmlns:dc="http://purl.org/dc/elements/1.1/"
   xmlns:cc="http://creativecommons.org/ns#"
   xmlns:rdf="http://www.w3.org/1999/02/22-rdf-syntax-ns#"
   xmlns:svg="http://www.w3.org/2000/svg"
   xmlns="http://www.w3.org/2000/svg"
   xmlns:sodipodi="http://sodipodi.sourceforge.net/DTD/sodipodi-0.dtd"
   xmlns:inkscape="http://www.inkscape.org/namespaces/inkscape"
   width="31.30353mm"
   height="46.930481mm"
   viewBox="0 0 31.30353 46.930481"
   version="1.1"
   id="svg8"
   inkscape:version="0.92.1 r15371"
   sodipodi:docname="4.svg">
  <defs
     id="defs2" />
  <sodipodi:namedview
     id="base"
     pagecolor="#ffffff"
     bordercolor="#666666"
     borderopacity="1.0"
     inkscape:pageopacity="0.0"
     inkscape:pageshadow="2"
     inkscape:zoom="0.7"
     inkscape:cx="-25.428531"
     inkscape:cy="63.806618"
     inkscape:document-units="mm"
     inkscape:current-layer="layer1"
     showgrid="false"
     inkscape:window-width="1297"
     inkscape:window-height="991"
     inkscape:window-x="-8"
     inkscape:window-y="0"
     inkscape:window-maximized="0"
     fit-margin-top="0"
     fit-margin-left="0"
     fit-margin-right="0"
     fit-margin-bottom="0"
     inkscape:pagecheckerboard="true"
     showguides="false" />
  <metadata
     id="metadata5">
    <rdf:RDF>
      <cc:Work
         rdf:about="">
        <dc:format>image/svg+xml</dc:format>
        <dc:type
           rdf:resource="http://purl.org/dc/dcmitype/StillImage" />
        <dc:title></dc:title>
      </cc:Work>
    </rdf:RDF>
  </metadata>
  <g
     inkscape:label="Layer 1"
     inkscape:groupmode="layer"
     id="layer1"
     transform="translate(-126.04649,-449.85074)">
    <rect
       style="fill:#ffffff;fill-opacity:1;stroke:none;stroke-width:1;stroke-miterlimit:4;stroke-dasharray:none;stroke-opacity:1"
       id="rect8320-52"
       width="31.303518"
       height="46.93047"
       x="126.0465"
       y="449.85074" />
    <path
       inkscape:connector-curvature="0"
       id="path8214"
       style="font-style:normal;font-variant:normal;font-weight:normal;font-stretch:normal;font-size:50.79999924px;line-height:1.25;font-family:serif;-inkscape-font-specification:serif;letter-spacing:0px;word-spacing:0px;fill:#ff0101;fill-opacity:1;stroke:none;stroke-width:0.41033289;stroke-opacity:1"
       d="m 157.35001,449.85076 v 46.93046 H 126.0465 v -46.93046 z m -30.1625,45.78945 h 29.02148 v -44.64844 h -29.02148 z m 3.99356,-40.40684 h -0.5209 v 1.24024 h -0.47129 v -1.24024 h -1.86035 v -0.42168 l 1.71152,-3.05097 h 0.62012 v 2.95175 h 0.5209 z m -0.99219,-0.5209 v -2.40605 l -1.36426,2.40605 z m 22.00176,36.95899 h 0.52089 v -1.26504 h 0.47129 v 1.26504 h 1.86035 v 0.42168 l -1.71152,3.02617 h -0.62012 v -2.95176 h -0.52089 z m 0.99218,0.49609 v 2.40606 l 1.36426,-2.40606 z m -19.69492,-34.62734 2.40606,-3.49746 2.43086,3.49746 -2.43086,3.49746 z m 0,31.7748 2.40606,-3.49746 2.43086,3.49746 -2.43086,3.49746 z m 11.58379,-31.7748 2.40606,-3.49746 2.43085,3.49746 -2.43085,3.49746 z m 0,31.7748 2.40606,-3.49746 2.43085,3.49746 -2.43085,3.49746 z m -16.47031,-29.71601 1.41387,-2.05879 1.38906,2.05879 -1.38906,1.98437 z m 26.14414,27.70683 -1.41387,2.03399 -1.38906,-2.03399 1.38906,-2.00918 z" />
    <path
       inkscape:connector-curvature="0"
       id="path8180-3-2"
       style="font-style:normal;font-variant:normal;font-weight:normal;font-stretch:normal;font-size:50.79999924px;line-height:1.25;font-family:serif;-inkscape-font-specification:serif;letter-spacing:0px;word-spacing:0px;fill:#000000;fill-opacity:1;stroke:none;stroke-width:0.41033289"
       d="m 157.35001,449.85076 v 46.93046 h -31.30352 v -46.93046 z m -30.1625,45.78945 h 29.02148 v -44.64844 h -29.02148 z"
       sodipodi:nodetypes="cccccccccc" />
  </g>
</svg>
